<?xml version="1.0" encoding="utf-8"?>
<!-- Generator: Adobe Illustrator 26.0.1, SVG Export Plug-In . SVG Version: 6.00 Build 0)  -->
<svg version="1.1" id="Layer_1" xmlns="http://www.w3.org/2000/svg" xmlns:xlink="http://www.w3.org/1999/xlink" x="0px" y="0px"
	 viewBox="0 0 1058.5 222.2" style="enable-background:new 0 0 1058.5 222.2;" xml:space="preserve">
<style type="text/css">
	.st0{fill:#FE0000;}
	.st1{fill:#BBBBBB;}
	.st2{fill:#3F3F3F;}
	.st3{fill:#010101;}
</style>
<g>
	<path class="st0" d="M141.1,41.5c-0.1-0.7-0.2-1.4-0.3-2.1c-0.6-5.5-2.3-10.7-4.9-15.6c-2.4-4.5-5.5-8.5-9.3-11.9
		c-3.9-3.6-8.3-6.3-13.2-8.4c-3.6-1.5-7.3-2.4-11.1-3.1c-0.3-0.1-0.7,0-1-0.1c0,0,0,0,0,0c-0.1,0-0.1-0.1-0.2-0.1
		c-0.7-0.1-1.4,0.3-2-0.3h-0.2c-1.7,0.2-3.3,0.2-5,0h-0.5c-0.2,0.4-0.6,0.2-0.9,0.2c-2.3,0.3-4.7,0.6-6.9,1.2
		C79.1,3,73.4,5.8,68.2,9.9c-2.9,2.3-5.5,4.9-7.7,7.9c-4.9,6.5-7.9,13.8-8.8,22c-0.1,0.3,0,0.7-0.1,1c0,0,0,0,0,0.1
		c0,0.1,0,0.2-0.1,0.2c0,0.6,0,1.2,0,1.7c-0.1,1.4-0.1,2.8,0,4.2c0,0.7,0,1.3,0.1,2c0,0.1,0.1,0.2,0.1,0.2c0,0,0,0,0,0.1
		c0.1,0.3-0.1,0.7,0.1,1c0.4,4,1.4,7.8,2.9,11.5c2.1,5.4,5.3,10.2,9.3,14.5c2,2.1,4.2,3.9,6.5,5.5c4,2.9,8.5,5,13.2,6.4
		c3.4,1,6.9,1.6,10.4,1.7c1.6,0.1,3.1,0.1,4.7,0c0.6,0,1.1,0,1.7-0.1c0.1-0.1,0.2-0.1,0.3-0.1c0.3-0.1,0.7,0.1,1-0.1
		c2.6-0.4,5.1-0.9,7.6-1.7c5.9-1.9,11.2-4.7,15.9-8.8c5.5-4.7,9.6-10.4,12.5-17.1c1.5-3.6,2.4-7.3,3-11.1c0.2-0.3,0-0.7,0.1-1
		c0-0.1,0-0.2,0.1-0.3c0-0.4,0-0.8,0.1-1.2C141.2,46.2,141.2,43.8,141.1,41.5z M96.5,14c17,0,30.8,14,30.8,31.3
		c0,16.7-14.1,30.5-31,30.5c-17,0-30.8-13.9-30.8-31C65.4,27.9,79.4,14,96.5,14z"/>
	<path class="st1" d="M682.7,221.3c0,0.3,0,0.6,0,0.9h-2c0-0.1-0.1-0.2-0.1-0.2c-0.1-0.4,0-0.9,0-1.3c0-58.2,0-116.3,0-174.4
		c0-2,0-2.1,2.1-1.7c0,0.4,0,0.8,0,1.1V221.3z"/>
	<path class="st2" d="M278.8,222.2h-41c0-0.1,0-0.2,0-0.3c0.1-0.1,0.2-0.1,0.4-0.2c0.4-0.2,0.9-0.2,1.4-0.2c12.5,0,24.9,0,37.4,0
		c0.6,0,1.2-0.1,1.6,0.3c0,0,0.1,0.1,0.1,0.1C278.8,222,278.8,222.1,278.8,222.2z"/>
	<path d="M415,220.5c-4.2-10.2-8.3-20.5-12.5-30.7c-3.3-8.1-6.5-16.3-9.8-24.4c-4.3-10.6-8.7-21.2-13-31.8
		c-3.3-8.1-6.5-16.3-9.8-24.4c-4.3-10.6-8.7-21.2-13-31.8c-3.3-8.2-6.6-16.3-9.8-24.5c-1.1-2.7-2.3-5.4-3.2-8.2
		c-0.2-0.3-0.5-0.3-0.7-0.2c0,0,0,0,0,0c0,0-0.1,0-0.1,0c-6.8,0-13.6,0-20.4,0c-5.1,0-10.1,0-15.2,0c-1.1,2.6-2.3,5.2-3.2,7.8
		c-1.6,4.7-3.6,9.3-5.4,13.9c-1.7,4.6-3.6,9.1-5.4,13.6c-2.2,5.5-4.2,11-6.4,16.5c-1.9,4.9-3.9,9.8-5.9,14.7
		c-1.4,3.5-2.6,7.1-4.1,10.6c-2,4.9-3.9,9.9-5.9,14.8c-2.1,5.1-3.9,10.2-5.9,15.3c-2.3,5.7-4.5,11.5-6.8,17.2
		c-1.9,4.8-3.7,9.5-5.6,14.3c-1.4,3.7-2.9,7.5-4.4,11.1c-1.4,3.2-2.5,6.6-3.8,9.9c-1.4,3.6-2.8,7.3-4.3,10.9
		c-0.9,2.3-1.8,4.5-2.7,6.8h0.2c13.5,0,27.1,0,40.6,0h0.1c0.1-0.1,0.2-0.3,0.2-0.4c3.8-10.6,7.7-21.3,11.5-32
		c0.3-0.8,0.6-1.2,1.5-1.2c22.8,0,45.6,0,68.5,0c0.8,0,1.2,0.2,1.5,1c1.8,5.1,3.7,10.1,5.5,15.2c2.1,5.8,4.3,11.6,6.5,17.4h0.1
		c13.8,0,27.5,0,41.3,0h0.1C415.3,221.4,415.2,220.9,415,220.5z M348.1,154.9h-45.1c7.7-21.1,15.3-42.1,23.1-63.4
		c3.4,9.2,6.6,18,9.9,26.8c4.3,11.8,8.7,23.5,13,35.3C349.4,154.9,349.4,154.9,348.1,154.9z"/>
	<path d="M618.3,45.9c-0.1,11,0,22,0,33c0,0.5,0,0.9,0,1.4c-22.1,0-44.1,0-66.1,0c-0.5,0-0.9,0.1-1.4,0.1c-0.1,0.1-0.1,0.2-0.1,0.3
		c0,0,0,0.1,0,0.2c0,0.2,0,0.4,0,0.6v36.9c0,0.2,0,0.4,0,0.5c0,0.1,0,0.1,0,0.2c0,0.1,0.1,0.2,0.1,0.3c0.4,0,0.9,0.1,1.4,0.1
		c21.3,0,42.7,0,64.1,0c1.1,0,1.4,0.2,1.4,1.3c0,11.1,0,22.3,0,33.5c-0.5,0.2-1,0.1-1.5,0.1c-21.3,0-42.5,0-63.8,0
		c-0.3,0-0.5,0-0.8,0c0,0-0.1,0-0.1,0c-0.1,0-0.2,0-0.4,0.1c0,0-0.1,0.1-0.2,0.1l0,0c-0.3,0.4-0.1,0.9-0.1,1.3c0,21.6,0,43.2,0,64.9
		c0,0.5-0.1,0.9-0.1,1.4c0,0,0,0.1,0,0.1h-0.2c-12.6,0-25.3,0-37.9,0h-0.2c0-0.1,0-0.1,0-0.2v0c0-0.4,0-0.8,0-1.1
		c0-58.2,0-116.4,0-174.7c0-1.3,0.4-1.6,1.6-1.6c34.3,0,68.6,0,103,0C618,44.3,618.3,44.6,618.3,45.9z"/>
	<path class="st0" d="M191.8,46.9c-0.2,0.7-0.1,1.4-0.1,2.2c0,0.4,0,0.8-0.1,1.2c0,0.7,0,1.3-0.1,2c-0.1,0.1-0.1,0.3-0.1,0.4
		c0,0.4,0.1,0.7-0.1,1.1c0,0.4,0,0.8-0.1,1.2c0,0.1-0.1,0.1-0.1,0.2c0,0,0,0,0,0.1c-0.1,0.3,0.1,0.7-0.1,1
		c-0.9,6.4-2.2,12.8-4.3,18.9c-3.6,10.8-9,20.6-16.2,29.5c-6.6,8.3-14.5,15.3-23.5,21c-4.9,3.1-10.1,5.8-15.7,8c0,0-0.1,0-0.1,0
		c0,0,0.1,0,0.1,0.1v0c0.9,0.7,1.9,0.9,2.9,1.4c7.4,3.3,14.3,7.6,20.6,12.6c4,3.2,7.6,6.7,11.1,10.4c5.1,5.6,9.4,11.8,13.1,18.4
		c4.3,7.8,7.3,16,9.3,24.6c0.7,3.2,1.2,6.4,1.7,9.5c0.2,0.3,0,0.7,0.1,1c0,0.1,0,0.2,0.1,0.3c0,0.4,0.1,0.8,0.1,1.2
		c0.1,0.3,0,0.7,0.1,1.1c0,0.1,0,0.3,0.1,0.4c0,0.6,0,1.1,0.1,1.7c0.1,0.5,0.1,1,0,1.5v0c0,0.9-0.1,1.9,0,2.8c0,0.3,0,0.5,0,0.7
		c-0.1,0.4-0.5,0.6-1.1,0.5c-4.1-0.1-8.3,0-12.4,0h-0.1c-0.2-10.3-1.8-20.3-5.8-29.8c-11.7-27.5-32.1-44.7-61.6-50.1
		c-26.9-4.9-50.6,2.7-70.5,21.5c-13.3,12.5-21.1,28.1-24.1,46.1c-0.7,4.1-0.8,8.2-1,12.3h-0.1c-4.5,0-9.1,0-13.6,0v-0.1
		c0-1,0-1.9-0.1-2.9v0c0-0.9,0-1.8,0-2.7c0.1-0.2,0.1-0.3,0.1-0.5v0c0-0.4-0.1-0.8,0-1.2c0-0.5,0-1,0.1-1.5c0-0.1,0.1-0.2,0.1-0.2
		c0,0,0,0,0-0.1c0-0.3-0.1-0.7,0.1-1c0.4-5.6,1.6-11.1,3.2-16.4c1.1-3.8,2.5-7.5,4-11.1c2.9-6.6,6.4-12.8,10.6-18.5
		c2-2.8,4.2-5.5,6.6-8c1.4-1.5,2.8-3.1,4.4-4.6c5.7-5.3,11.8-10,18.6-13.8c3.9-2.2,7.9-4.1,11.9-5.7c-33.3-15.6-53.5-41.1-58.3-78
		c-0.1-0.3,0-0.6-0.1-0.9c0-0.1,0-0.2-0.1-0.3c0-0.5,0-1-0.1-1.5c-0.1-0.4,0-0.8,0-1.3v0c0-0.2,0-0.3-0.1-0.5c0-0.8,0-1.7-0.1-2.5
		c0-0.6-0.2-1.4-0.2-2c0-0.1,0-0.2,0-0.3c0,0,0-0.1,0-0.1c0-0.4,0.1-0.7,0.3-0.9c0.2-0.2,0.4-0.3,0.8-0.4c0.2,0,0.5,0,0.8,0
		c0.5,0.1,1.1,0.1,1.5,0.1c3.2,0,6.3,0,9.5,0c1,0,1.4,0.2,1.2,1.2c0,0.2,0,0.3,0,0.5c0,0.2,0,0.4,0,0.7c0,0.1,0,0.1,0,0.2
		c0,0.1,0.1,0.1,0.1,0.2c0,0.9,0.1,1.8,0.1,2.7c0.1,0.4,0,0.8,0.1,1.2c0,0,0,0,0,0.1c0,0.1,0,0.2,0.1,0.3c0.1,4.8,1.1,9.5,2.4,14.2
		c2.8,10.4,7.5,19.9,14,28.5c7,9.1,15.6,16.5,25.7,22c7.8,4.3,16,7,24.7,8.7c1.6,0.3,3.1,0.7,4.8,0.6c0.1,0.1,0.2,0.1,0.3,0.1
		c0.3,0.1,0.7-0.1,1,0.1c0.4,0,0.8,0,1.2,0.1c0.1,0.1,0.3,0.1,0.4,0.1c0.5,0,0.9-0.1,1.4,0.1c0.8,0,1.5,0,2.2,0.1c2,0.2,4,0.2,6,0
		c0.8,0,1.7-0.1,2.5-0.1c0.4-0.1,0.8,0,1.2-0.1c0,0,0,0,0.1,0c0.1,0,0.2,0,0.3-0.1c0.4,0,0.8-0.1,1.2-0.1c0.3-0.2,0.7,0,1-0.1
		c0.1,0,0.2,0,0.3-0.1c4.5-0.3,8.8-1.3,13.1-2.6c8.4-2.5,16.1-6.2,23.3-11.1c2.6-1.8,5.2-3.9,7.6-5.9c2.3-2,4.5-4.1,6.5-6.3
		c3.4-3.8,6.5-7.8,9.2-12.2c2.1-3.5,4.1-7,5.6-10.8c1.5-3.5,2.7-7.1,3.7-10.8c1-3.9,1.9-7.8,2.2-11.8c0.1-0.5,0.3-0.9,0.2-1.4
		c0-0.1,0.1-0.2,0.1-0.2c0,0,0,0,0,0c0.1-0.4-0.1-0.8,0.1-1.2c0-0.6,0-1.2,0.1-1.8c0-0.2,0.1-0.3,0.1-0.5c0-0.1,0-0.1,0-0.2
		c0.1-1.3-0.2-2.5,0.1-3.8l0,0c1.2-0.2,2.4-0.1,3.6-0.1c3.1,0,6.1,0,9.2,0c0.4,0,0.8-0.2,1.2,0.2V46.9z"/>
	<path class="st0" d="M166.5,46.2c-0.2,0.6-0.1,1.3-0.1,1.9c0,0.5,0,0.9-0.1,1.4c0,0.6,0,1.1-0.1,1.7c0,0.1-0.1,0.2-0.1,0.3
		c0,0,0,0,0,0.1c0,0.3,0,0.7-0.1,1c-0.9,6.5-2.3,12.8-4.8,18.9c-2.8,6.6-6.4,12.7-11,18.3c-4.9,5.9-10.6,10.9-17.1,15
		c-4.1,2.6-8.6,4.8-13.2,6.4c-4.8,1.7-9.7,3-14.8,3.5c-0.7,0.1-1.5,0.1-2.2,0.3c-0.3,0.1-0.7,0-1,0c-0.2,0-0.3,0-0.5,0.1
		c-0.7,0-1.3,0-2,0.1c-2.2,0.1-4.3,0.1-6.5,0c-0.7,0-1.3,0-2-0.1c-0.1-0.1-0.3-0.1-0.4-0.1h0c-0.4,0-0.7,0.1-1.1-0.1
		c-4.2-0.3-8.3-1.1-12.3-2.3c-7.5-2.1-14.4-5.3-20.8-9.8c-2.9-2-5.6-4.4-8.3-6.8c-5-4.6-9-9.9-12.5-15.6c-2.2-3.6-3.9-7.5-5.3-11.5
		C28.9,65,28,61,27.1,57c-0.2-1-0.2-2-0.3-3c-0.2-0.3,0-0.7-0.1-1c0-0.1,0-0.2-0.1-0.3c0-0.3,0-0.7,0-1c-0.2-0.4,0-0.8-0.1-1.2
		c0-0.2,0-0.4-0.1-0.5c0-0.7,0-1.5-0.1-2.2c-0.1-1.1-0.1-1.7,0-2.2c0.1-0.4,0.3-0.5,0.7-0.6c0.4-0.1,1-0.1,1.9-0.1h9.8
		c1.3,0,1.4,0,1.5,1.2c0,0,0,0,0,0c0,0.1,0,0.2,0,0.3c0,0.2,0,0.3,0.1,0.5c0,0.7,0,1.5,0.1,2.2c0.2,0.4,0,0.8,0.1,1.3
		c0,0.1,0,0.2,0.1,0.3c0.2,5.1,1.6,10,3.4,14.7c2.9,7.5,7.2,14,12.9,19.6c7.9,7.8,17.3,12.8,28.1,15.1c1.8,0.4,3.7,0.8,5.6,0.8
		c0.1,0.1,0.2,0.1,0.4,0.1c0,0,0,0,0.1,0c0.4,0,0.7-0.1,1.1,0.1c0.7,0,1.3,0,2,0.1c1.5,0.2,3,0.2,4.5,0c0.7,0,1.3,0,2-0.1
		c0.4-0.2,0.8,0,1.2-0.1c0.1,0,0.2-0.1,0.3-0.1c4.8-0.3,9.5-1.6,14-3.2c4.4-1.6,8.6-3.9,12.5-6.6c3.7-2.6,7.1-5.7,10-9
		c4.2-4.8,7.5-10.3,9.9-16.2c1.7-4.2,2.9-8.5,3.3-13c0-0.5,0.4-0.9,0.3-1.4c0-0.1,0.1-0.2,0.1-0.2c0,0,0,0,0,0c0-0.3-0.1-0.7,0.1-1
		c0-0.5,0-1,0.1-1.5c0-0.1,0.1-0.2,0.1-0.3c0.2-0.8,0-1.7,0-2.5c0-0.6,0.1-0.8,0.8-0.8c4.4,0,8.7,0,13,0c0.2,0,0.2,0.1,0.3,0.2
		C166.5,45.4,166.5,45.8,166.5,46.2z"/>
	<path d="M1045.1,88.2c0,0.8-0.2,1.2-1.1,1.1c-1.6-0.1-3.4,0.4-4.7-0.2c-1.3-0.6-2-2.4-2.9-3.6c-2-2.6-4-5.3-5.9-7.9
		c-1.9-2.6-3.8-5.2-5.8-8.1v19.7c-2.3,0.3-4.6,0.3-7,0V57.3c0.3,0,0.5-0.1,0.8-0.1c0.5-0.1,1-0.1,1.5-0.1c1.4,0,2.8,0,4.2,0.1
		c4.6,6.4,9.2,12.8,14,19.5v-1.8c0-5.5,0-11.1,0-16.6c0-1,0.3-1.3,1.2-1.2c1.5,0.1,3,0.1,4.5,0c0.9,0,1.2,0.2,1.2,1.2
		c-0.1,4.5,0,9.1,0,13.6C1045.1,77.3,1045.1,82.8,1045.1,88.2z"/>
	<path d="M1028.5,121.6c-3.1-3.2-6.9-4.7-11.2-5.2c-0.9-0.1-1.8-0.1-2.7,0c-8.6,0.7-14.9,6.2-15.8,14.8c-0.1,1.3-0.1,2.7,0,4
		c0.1,1.4,0.5,2.7,0.9,4c1.1,3.2,3,5.7,5.7,7.7c2.7,2,5.7,3,9,3.2c1.1,0.1,2.2,0.1,3.2,0c2.4-0.2,4.7-0.9,6.9-2.1
		C1033.9,142.8,1036,129.4,1028.5,121.6z M1016.6,143.4c-5.7,0.4-10.4-3.7-10.8-9.4c-0.4-5.9,3.7-10.7,9.7-11
		c5.5-0.3,10,3.9,10.4,9.8C1026.2,138.3,1022,143.1,1016.6,143.4z"/>
	<path d="M842.7,177.2v31.9c-2.1,0.2-4.1,0.3-6.2,0c-2.4-3.2-4.8-6.5-7.1-9.7c-2.3-3.2-4.7-6.4-7.2-10v19.8
		c-0.8,0.1-1.6,0.1-2.5,0.1c-0.5,0-0.9,0-1.4,0h-0.5c-0.3,0-0.6,0-0.9,0c-0.1,0-0.2,0-0.3,0c-0.2,0-0.4,0-0.7,0
		c-0.5,0-0.7-0.2-0.6-0.7c0-0.2,0-0.4,0-0.6v-29.6c0-0.2,0-0.5,0-0.6c0-0.5,0.1-0.6,0.5-0.7c0,0,0,0,0,0c0.2,0,0.4,0,0.8,0h0.7
		c1.3,0,2.6,0,3.9,0h0.4c4.6,6.4,9.1,12.8,13.7,19.2c0.1,0,0.2-0.1,0.3-0.1v-19C838.1,177.1,840.4,176.9,842.7,177.2z"/>
	<path d="M784.8,117.2v32c-2,0.2-4,0.1-6,0c-3.7-5-7.3-10-11-15c-1-1.4-2.1-2.9-3.1-4.3c-0.1,0-0.2,0.1-0.3,0.2
		c-0.2,0.2-0.1,0.5,0,0.8c0,0.1,0,0.1,0,0.2c0,2.8,0,5.6,0,8.4v8.3c0,0.4,0,0.6,0,0.8c0,0,0,0.1,0,0.1c0,0.2-0.1,0.3-0.3,0.4
		c0,0,0,0,0,0c0,0,0,0-0.1,0c-0.2,0-0.5,0-1,0h-0.2c-1,0-2.1,0-3.1,0c-0.3,0-0.6,0-0.8,0c-0.2,0-0.3,0-0.5,0
		c-0.6-0.1-0.9-0.4-0.8-1.2c0.1-4.5,0-9.1,0-13.6c0-5.4,0-10.8,0-16.2c0-0.3,0-0.5,0.1-0.7c0.1-0.3,0.3-0.5,0.6-0.5
		c0.2,0,0.3,0,0.5,0c0.2,0,0.4,0,0.5,0h0c0.9,0,1.9,0,2.8,0c0.3,0,0.6,0,0.9,0c0.2,0,0.4,0,0.5,0c0.2,0,0.4,0,0.6,0.1
		c2,2.9,4,5.8,6.1,8.6c2.3,3.3,4.7,6.6,7.1,9.9c0.1,0.1,0.2,0.2,0.3,0.2c0.3,0,0.4-0.1,0.5-0.2v0c0.1-0.2,0-0.5,0-0.7
		c0,0,0-0.1,0-0.1c0-2.7,0-5.5,0-8.2c0-2.8,0-5.7,0-8.5c0-1,0.1-1.1,0.9-1.1c0.9,0,1.7,0,2.6,0c0.7,0,1.4,0,2.1,0c0.2,0,0.4,0,0.6,0
		C784.3,117.2,784.5,117.2,784.8,117.2z"/>
	<path d="M894.7,89c-2.1-3.6-4.3-7.3-6.4-10.9c-0.2-0.4-0.6-0.8,0.2-1.3c2.9-1.6,4.5-4.2,5.1-7.3c0.1-1.1,0.1-2.2,0-3.2
		c-0.3-1.7-0.9-3.4-2-4.8c-1.8-2.5-4.4-3.7-7.3-4.3c-4.1-0.1-8.2-0.1-12.3-0.1c-0.8,0-1.6,0-2.4,0c0,0,0,0,0,0h-0.1
		c-0.1,0-0.1,0.1-0.2,0.1v31.9c0.2,0,0.5,0.1,0.7,0.1c0.2,0,0.5,0,0.7,0.1c0.2,0,0.5,0,0.7,0c1.5,0,3-0.1,4.5,0c0.2,0,0.3,0,0.3-0.1
		c0,0,0,0,0,0c0.2-0.2,0.1-0.5,0.1-0.8c0-1.4,0-2.8,0-4.2c0-1.9-0.2-3.8,0.1-5.7c1,0,2,0,3-0.1c0.9-0.1,1.4,0.3,1.8,1
		c1.8,3.2,3.6,6.4,5.5,9.6c0.2,0.1,0.3,0.3,0.5,0.3h0.1c0,0,0,0,0,0c2.3,0,4.6,0,7,0c0.1,0,0.2,0,0.2,0c0,0,0,0,0-0.1
		C894.7,89.2,894.7,89.1,894.7,89z M882.8,71.8c-1,0.1-2.1,0-3.1,0c-1.1,0-2.5,0.5-3.1-0.1c-0.7-0.6-0.2-2.1-0.2-3.1
		c0-1.4,0-2.7,0-4.1c0-0.6,0.1-0.9,0.8-0.8c1.9,0.1,3.8,0,5.7,0.1c2.3,0.2,3.8,1.8,3.8,4C886.5,69.9,885.1,71.5,882.8,71.8z"/>
	<path d="M901.3,201.2c-1,6.3-6.2,8.5-11.4,8.8c-2.5,0.1-5.1-0.1-7.4-1.3c-3.3-1.7-5.5-4.1-5.8-8c0-0.4,0-0.7,0-1v0
		c0-0.6,0.2-0.8,0.8-0.8h0.1c0.2,0,0.5,0,0.9,0c0.1,0,0.1,0,0.2,0c0.3,0,0.6,0,1,0c0.5,0,1,0,1.4,0c0.9,0,1.8,0,2.7,0.2
		c-0.2,2.6,2.1,4.1,4.3,4.4c1.7,0.2,3.3-0.2,4.7-1.2c1.8-1.2,1.8-3.4,0-4.7c-1.7-1.2-3.6-1.3-5.5-1.9c-2.3-0.7-4.8-1-6.8-2.5
		c-2.1-1.6-3.5-3.5-3.5-6.3c0.1-1.7,0-3.3,0.8-4.8c1.4-2.8,3.6-4.3,6.6-5c1.9-0.5,3.9-0.5,5.9-0.5c0.1,0.1,0.2,0.1,0.3,0.1
		c0.3,0.1,0.6,0,1,0.1c1.7,0.4,3.4,0.9,5,1.9c2.3,1.6,3.3,3.8,3.9,6.4c0.1,0.2,0.1,0.4,0.1,0.5c0,0.3-0.1,0.7,0.1,1
		c-0.1,0.5-0.4,0.4-0.8,0.4c-1.9,0-3.8,0-5.7,0c-0.3,0-0.7,0.2-0.7-0.4c0-2.1-1.5-2.9-3.1-3.4c-1.6-0.5-3.3-0.4-4.9,0.6
		c-1.7,1.1-1.8,3.1-0.1,4.2c1.9,1.2,4.2,1.4,6.3,2c2.8,0.8,5.6,1.6,7.7,3.8c1.2,1.3,1.6,2.8,2,4.4
		C901.4,199.2,901.4,200.2,901.3,201.2z"/>
	<path d="M833.3,80.5c-0.7,5.6-4,8.3-9.3,9.2c-3.2,0.6-6.3,0.5-9.3-0.8c-3.3-1.4-5.5-4-6.1-7.7c-0.1-0.3,0-0.6-0.1-0.9c0,0,0,0,0,0
		c0-0.1,0-0.2-0.1-0.3c0-0.3,0-0.6,0-1c0.2,0,0.4-0.1,0.7-0.1c1.2-0.1,2.3-0.1,3.5-0.1c0.8,0,1.6,0,2.5,0c0.1,0,0.1,0,0.1,0
		c0.1,0,0.2,0.1,0.2,0.1c0.1,0.1,0.2,0.3,0.3,0.5c-0.1,2,1.9,3.6,4.2,4c1.8,0.3,3.5-0.3,5-1.3c0.6-0.4,0.6-1.1,1-1.6
		c0.2-0.5,0.2-1,0-1.5c-0.3-1.2-1.4-1.6-2.4-2c-2.5-1.1-5.3-1.3-7.9-2.2c-2.9-1-5.5-2.5-6.4-5.8c-1.2-4.9,0.3-10,6-11.7
		c2.2-0.7,4.6-0.8,6.9-0.8c0.1,0.1,0.2,0.1,0.4,0.1c0,0,0,0,0,0c0.3,0,0.6-0.1,0.9,0.1c1.8,0.4,3.6,0.9,5.2,2.1
		c2.2,1.6,3.2,3.9,3.6,6.5c0,0.5,0.2,1,0,1.5c0,0.1-0.1,0.2-0.1,0.3c-2,0-4,0-6,0c-0.4,0-0.9,0.2-0.9-0.5c-0.1-2.3-3-3.7-5.2-3.5
		c-1.5,0.1-3,0.4-3.8,1.8c-0.1,0.1-0.1,0.3-0.1,0.5c-0.2,0.5-0.2,0.9,0,1.4c0.1,0.9,0.7,1.3,1.5,1.7c2.1,1.1,4.5,1.3,6.8,2
		c1.7,0.5,3.4,1.1,5,2.1c2.4,1.5,3.5,3.7,3.8,6.4C833.4,79.3,833.4,79.9,833.3,80.5z"/>
	<path d="M815.9,140.6c0,0.4,0.1,0.7-0.1,1.1c-0.5,1.7-1.1,3.3-2.3,4.7c-2,2.1-4.5,3.1-7.3,3.5c-2.8,0.4-5.7,0.4-8.5-0.8
		c-3.9-1.7-6.1-4.6-6.5-8.8c-0.1-0.6-0.1-1,0-1.2c0-0.1,0.1-0.1,0.2-0.2c0.1,0,0.3,0,0.5,0h0.4c0.1,0,0.3,0,0.4,0c0.5,0,1.1,0,1.6,0
		c0.6,0,1.2,0,1.8,0c0.2,0,0.4,0,0.7,0c0.2,0,0.4,0,0.7,0c0.2,0,0.4,0,0.7,0.1c-0.1,2.4,1.6,4,4.1,4.5c2,0.4,3.9-0.1,5.5-1.6
		c1.5-1.3,1.2-3.3-0.7-4.4c-1.7-1-3.6-1.2-5.4-1.7c-1.9-0.5-3.8-1.1-5.6-1.9c-2.6-1.2-4.1-3.2-4.5-6c-0.1-1.1-0.1-2.2,0-3.2
		c0.5-4.2,3.3-6.5,7.3-7.5c0.5-0.1,1-0.2,1.6-0.3c0.3-0.1,0.6,0,0.9-0.1c0,0,0,0,0,0c0.1,0,0.2,0,0.3-0.1c2.8,0.1,5.5,0.1,8,1.4
		c2.9,1.5,4.6,3.9,4.9,7.2c0.2,1.9,0.2,1.9-1.7,1.9c-1.4,0-2.8-0.1-4.1,0c-0.7,0-0.9-0.3-1.1-0.8c-1-3-5.4-4.4-8-2.4
		c-0.8,0.6-1.3,1.3-1.2,2.4c0.2,1.2,1,1.9,2.1,2.4c1.8,0.7,3.6,1.1,5.4,1.5c1.9,0.5,3.7,1.1,5.5,2.1c2.3,1.2,3.6,3.2,4.2,5.7
		c0.1,0.2,0.1,0.3,0.1,0.5c0,0.3,0,0.5,0.1,0.8c0,0.4,0,0.8,0,1.2C815.9,140.3,815.9,140.4,815.9,140.6
		C815.9,140.6,815.9,140.6,815.9,140.6z"/>
	<path d="M931.6,201.4c-1.2,5.9-5.7,8-10.8,8.5c-2.8,0.2-5.6,0.1-8.2-1.2c-3.3-1.7-5.3-4.4-5.7-8.2c0-0.4-0.1-0.7-0.1-0.9
		c0,0,0,0,0,0c0-0.4,0.1-0.5,0.3-0.6c0.1,0,0.1,0,0.2,0c0.2,0,0.5,0,0.8,0h0.1c1.1,0,2.2,0,3.3,0c0.4,0,0.8,0,1.2,0
		c0.4,0,0.8,0,1.2,0.1c-0.1,1.7,0.6,2.9,2,3.7c2.3,1.4,5.7,1,7.6-0.9c1.4-1.5,1-3.4-0.7-4.4c-2-1.2-4.3-1.3-6.5-2
		c-2.4-0.8-5.1-1.3-6.9-3.3c-1.1-1.2-1.8-2.5-2-4.1c-0.1-1.2-0.1-2.3,0-3.5c0.4-4,3.3-6.5,6.9-7.4c0.6-0.2,1.3-0.3,1.9-0.4
		c0.3-0.1,0.6,0,0.9-0.1c0.1,0,0.2,0,0.3-0.1c2.8,0.1,5.5,0.1,8.1,1.4c2.9,1.5,4.5,3.9,4.9,7.2c0.2,1.9,0.2,1.9-1.7,1.9
		c-1.4,0-2.9,0-4.4,0c-0.6,0-0.8-0.3-0.9-0.7c-0.6-1.9-1.9-3.2-3.9-3.3c-1-0.1-2.1-0.1-3.2,0.3c-1.2,0.5-2.3,1.7-2.2,2.7
		c0.2,1.3,1,2.1,2.2,2.6c1.8,0.7,3.6,1.1,5.4,1.5c2,0.5,4,1.2,5.8,2.2c2.2,1.3,3.3,3.3,3.9,5.7C931.6,199.1,931.6,200.3,931.6,201.4
		z"/>
	<path d="M802.5,57.2c0,6.6,0,13.2,0,19.8c0,4.9-2,8.7-6.2,11.2c-1.7,1-3.6,1.5-5.5,1.8c-1.1,0.1-2.2,0.1-3.2,0
		c-3.3-0.2-6.1-1.4-8.3-3.8c-2-2.1-3.3-4.7-3.4-7.6c-0.1-7.1-0.1-14.2-0.1-21.3c0.4-0.1,0.8-0.1,1.2-0.1c0.2,0,0.4,0,0.6,0
		c0.2,0,0.4,0,0.5,0c0.9,0,1.8,0,2.8,0c0.5,0,0.9,0,1.4,0h0c0.5,0,0.6,0.2,0.6,0.6v0.1c0,0.3,0,0.5,0,0.8v17.8c0,0.2,0,0.4,0,0.7
		c0,0.2,0,0.5,0.1,0.7c0.1,2.9,2.1,5.1,4.8,5.5c0.1,0,0.2,0.1,0.2,0.1c0.3,0.1,0.7-0.1,1,0.1c0.1,0,0.2,0,0.3,0
		c0.4-0.2,0.8,0,1.1-0.1c0,0,0.1,0,0.1-0.1c2.7-0.6,4.2-2.4,4.7-5c0-0.1,0.1-0.1,0.1-0.2c0,0,0-0.1,0-0.2c0.1-0.3,0-0.7,0-1
		c0-6.2,0-12.4,0-18.6c0-0.2,0-0.5,0.1-0.6c0.1-0.3,0.2-0.5,0.6-0.5h0c0.1,0,0.3,0,0.5,0c0.2,0,0.4,0,0.7,0h0c1,0,2.1,0,3.1,0
		c0.2,0,0.4,0,0.5,0c0.2,0,0.4,0,0.5,0C801.8,57.1,802.1,57.2,802.5,57.2z"/>
	<path d="M924.3,137.7c-0.4,6.1-4,10.1-8.6,11.6c-1,0.3-2.1,0.6-3.2,0.7c-1.1,0.1-2.2,0.1-3.2,0c-3-0.2-5.7-1.3-7.8-3.3
		c-2.1-2-3.5-4.5-3.8-7.5c-0.2-2-0.1-3.9-0.1-5.8c0-5,0-10.1,0-15.1c0-0.1,0-0.3,0-0.4c0-0.5,0.2-0.7,0.6-0.8c0.2,0,0.3,0,0.6,0
		c0.2,0,0.3,0,0.5,0c1,0,2.1,0,3.1,0c0.3,0,0.7,0,1,0c0.4,0,0.9,0.1,1.3,0.1c0,6.8-0.1,13.6,0,20.4c0,3.4,2.9,6,6.3,5.7
		c0.4-0.2,0.9,0.1,1.3-0.2c2.4-0.5,4.6-2.8,4.7-5c0.5-7,0.1-14,0.2-21c0.4,0,0.9-0.1,1.3-0.1c0.1,0,0.2,0,0.3,0c0.3,0,0.5,0,0.8,0
		c0.3,0,0.6,0,0.9,0c0.5,0,1.1,0,1.6,0c0.5,0,1,0,1.5,0h0.2c0.5,0,0.5,0.3,0.6,0.6v0.3c0,1.9,0,3.7,0,5.6
		C924.3,128.3,924.4,133,924.3,137.7z"/>
	<path d="M1011.8,88.7c-0.2-0.3-0.4-0.6-0.5-1c-1.5-3.8-3.1-7.6-4.6-11.4c-2.6-6.4-5.1-12.8-7.7-19.1c-2.2-0.2-4.5-0.1-6.7-0.1
		c-0.7,1.8-1.5,3.6-2.2,5.5c-1.4,3.6-2.8,7.1-4.2,10.7c-1.4,3.6-2.9,7.2-4.3,10.8c-0.7,1.7-1.2,3.4-1.9,5.2c1.2,0.1,2.5,0.1,3.8,0.1
		h0.1c1.2,0,2.4,0,3.7-0.1c0.6-2,1.3-3.9,2.1-5.8c0.4-0.2,0.8-0.1,1.2-0.1c3,0,6,0,9,0c0.8,0,1.7-0.2,2.5,0.1c1,1.9,1.4,3.9,2.3,5.8
		c2.3,0.1,4.5,0,6.8,0c0.1,0,0.3,0,0.4,0C1011.7,89.3,1011.9,89.2,1011.8,88.7z M995.7,65.8c1,2.7,1.9,5.1,2.8,7.5
		c0.4,1,0.8,2.1,1.2,3.1c0.2,0.5,0.1,0.7-0.5,0.7c-2.5,0-5,0-7.6,0C992.9,73.4,994.2,69.7,995.7,65.8z"/>
	<path d="M931,86.1c-2.9-7.2-5.8-14.4-8.8-21.6c-0.9-2.4-2.1-4.7-2.8-7.1c-0.5-0.4-1.1-0.2-1.6-0.2c0,0,0,0,0,0c-0.9,0-1.8,0-2.8,0
		c-0.9,0-1.7,0-2.5,0.2c-4.1,10.5-8.2,21-12.3,31.4c-0.1,0.4,0,0.5,0.2,0.6c0.1,0,0.2,0,0.4,0h6.2c0.1,0,0.2,0,0.2,0
		c0,0,0.1,0,0.1,0c0.2,0,0.3-0.2,0.4-0.3c0.5-1.9,1.2-3.7,2-5.5c3.5-0.2,7,0,10.6-0.1c0.7,0,1.5-0.1,2.2,0.1
		c0.7,1.9,1.4,3.8,2.1,5.6c0,0,0,0,0,0.1c0,0,0,0.1,0.1,0.1c0,0,0,0,0,0c0,0,0,0,0,0h0.4c0.6,0,1.3,0,1.9,0c0.8,0,1.5,0,2.2,0
		c1,0,2,0,3.1-0.1C931.8,88.2,931.4,87.1,931,86.1z M912.8,74.7c1-2.6,1.9-5.3,2.9-7.9c0.1-0.3,0.1-0.6,0.5-0.8
		c1.3,3.6,2.7,7.3,4.1,11.1h-5.7C911.9,77.2,911.9,77.2,912.8,74.7z"/>
	<path d="M763.2,65.1c-1-2.5-2.2-5-3-7.6c-0.1-0.1-0.2-0.3-0.4-0.3h0c-0.4,0-0.9,0-1.3,0c-0.3,0-0.6,0-0.8,0c-0.3,0-0.6,0-0.9,0
		c-1.2,0-2.4,0-3.5,0.2c-0.9,2.3-1.9,4.5-2.7,6.8c-1.8,4.6-3.6,9.3-5.4,14c-1.5,3.7-2.9,7.4-4.4,11.1c0.9,0.1,1.7,0.2,2.5,0.2h0
		c0.9,0,1.7,0,2.6,0c0.1,0,0.2,0,0.3,0c0.7,0,1.4-0.1,2-0.1c0.7-1.9,1.3-3.9,2.2-5.8c3.5-0.2,7,0,10.6-0.1c0.7,0,1.5-0.1,2.2,0.1
		c0.7,1.9,1.4,3.8,2.1,5.7c2.6,0.4,5.2,0.2,7.7,0.1C769.7,81.2,766.5,73.1,763.2,65.1z M752.8,76.6c1.3-3.5,2.6-7,4-10.8
		c1.5,4,2.8,7.6,4.2,11.4c-2.7,0-5.2,0-7.7,0C752.8,77.2,752.6,77.1,752.8,76.6z"/>
	<path d="M981.8,146.6c0,0.2,0,0.4,0,0.7c0,0.5,0,1,0,1.6v0c0,0.4-0.2,0.5-0.5,0.5h-0.1c-0.3,0-0.7,0-1,0h-5.3c-2.9,0-5.7,0-8.6,0
		h-2.9c-0.2,0-0.3,0-0.4,0c-0.3,0-0.6,0-0.9-0.1v-32c0.3-0.1,0.6-0.1,0.9-0.1c0.1,0,0.2,0,0.3,0c2.8,0,5.7,0,8.5,0
		c2.8,0,5.7,0,8.5,0c0.1,0,0.2,0,0.2,0h0.1c0.3,0,0.6-0.1,0.9,0.2v6.2c-0.3,0.2-0.7,0.2-1,0.2c-0.1,0-0.1,0-0.2,0
		c-0.6,0-1.3,0-1.9,0h-0.3c-1.4,0-2.8,0-4.2,0c-0.8,0-1.6,0-2.4,0h-1c-0.4,0-0.8-0.1-1.2,0.1v0c-0.3,1.8-0.1,3.7-0.1,5.5
		c0,0.2,0,0.3,0.1,0.4c0.1,0.1,0.1,0.1,0.2,0.1c0.2,0.1,0.5,0,0.7,0c3,0,6,0,8.9,0c0.4,0,0.8-0.2,1.2,0.2v6.1
		c-0.4,0.3-0.8,0.2-1.2,0.2c-2.9,0-5.8,0-8.7,0c-0.9,0-1.3,0.2-1.2,1.2c0.1,1.7-0.2,3.5,0.2,5.2c4.1,0.2,8.3,0.1,12.5,0.1
		c0.1,0.4,0.1,0.8,0.1,1.2c0,0.1,0,0.3,0,0.4C981.9,145.1,981.9,145.9,981.8,146.6z"/>
	<path d="M870.8,203.9c-0.1,1.8,0,3.6,0,5.4c0,0,0,0-0.1,0c-0.1,0-0.2,0.1-0.4,0.1c-0.6,0.1-1.2,0-1.9,0c-5.5,0-11,0-16.5,0
		c-0.7,0-1-0.2-1.1-0.8c0-0.1,0-0.2,0-0.4c0-4,0-8,0-11.9v-18c0-0.2,0-0.4,0-0.6c0,0,0,0,0-0.1c0-0.1,0.1-0.2,0.2-0.3
		c0,0,0.1-0.1,0.1-0.1c0.1,0,0.1,0,0.2-0.1c0.1,0,0.1,0,0.2,0c0.1,0,0.2,0,0.3,0c5.7,0,11.4,0,17.2,0h0.7c0.2,0,0.3,0,0.5,0.1v6.3
		c-1.3,0.1-2.6,0.1-3.9,0.1c-1.1,0-2.2,0-3.3,0c-0.8,0-1.7,0-2.5,0h-0.1c-0.4,0-0.7,0-1.1,0c-0.1,0-0.2,0-0.2,0
		c-0.4,0-0.8-0.1-1.1,0.2l0,0c0,0.2-0.1,0.5-0.1,0.7c-0.1,1.5-0.1,2.9,0,4.4c0,0.3,0,0.5,0.1,0.8c0.4,0.1,0.9,0.2,1.3,0.2
		c0.5,0,1-0.1,1.5,0c2.4,0,4.8,0,7.2,0c0.8,0,1.1,0.2,1.1,1c-0.1,1.5-0.1,3,0,4.5c0,0.9-0.3,1-1.1,1c-2.9,0-5.9,0-8.8,0
		c-0.4,0-0.8-0.1-1.2,0.1c-0.2,2-0.2,4.1,0,6.2c2.4,0.3,4.7,0.1,7.1,0.1c1.5,0,3,0.1,4.5,0C870.5,202.7,870.8,202.9,870.8,203.9z"/>
	<path d="M1058.5,118.3c-0.1,1.7-0.1,3.5-0.1,5.2v0.2c-3.7,0-7.4,0-11.1,0c-0.8,0-1.1,0.2-1.1,1c0.1,1.6,0.1,3.2,0,4.7
		c0,1,0.2,1.3,1.2,1.3c2.9-0.1,5.9,0,8.9,0c0.8,0,1.1,0.2,1,1c-0.1,1.5-0.1,2.9,0,4.4c0,0.8-0.3,1-1,1c-3,0-5.9,0-8.9,0
		c-0.9,0-1.3,0.2-1.2,1.2c0.1,3.4,0,6.8,0,10.1c0,0.8-0.2,1.1-1,1c-1.6-0.1-3.2-0.1-4.8,0c-1,0-1.3-0.2-1.2-1.2c0-9.9,0-19.7,0-29.6
		v-1.2c0.4,0,0.9-0.1,1.4-0.1c5.6,0,11.2,0,16.7,0c0.4,0,0.6,0,0.8,0.1c0,0,0,0,0,0C1058.5,117.4,1058.5,117.7,1058.5,118.3z"/>
	<path d="M749.2,184.6c0.1,2,0.1,3.9,0.1,5.9c1,0.3,2.1,0.1,3.1,0.1c2.3,0,4.7,0,7,0c0.7,0,1,0.1,1,1c-0.1,1.5-0.1,3.1,0,4.6
		c0,0.8-0.3,1-1,1c-3,0-5.9,0-8.8,0c-0.4,0-0.8-0.1-1.2,0.1c0,4,0,8-0.1,12c-0.2,0-0.4,0-0.6,0c-0.2,0-0.4,0-0.6,0c-1,0-1.9,0-2.9,0
		c-0.3,0-0.6,0-0.9,0c-0.5,0-1,0-1.6,0h0c0,0,0,0,0,0c0,0-0.1,0-0.1,0c0,0,0,0,0,0c-0.3,0-0.5-0.2-0.5-0.5v-0.1c0-0.2,0-0.5,0-0.8
		v-29.4c0-1,0-1.3,0.6-1.4c0,0,0,0,0,0c0.2,0,0.5,0,0.8,0h16.7c0.4,0,0.8-0.1,1.2,0.1c0,1.8-0.1,3.5,0,5.2c0.1,1.1-0.3,1.3-1.3,1.3
		c-3.3-0.1-6.7,0-10,0C749.5,183.6,749.2,183.8,749.2,184.6z"/>
	<path d="M892.2,117.3v6.2c-0.3,0.1-0.6,0.2-0.9,0.2c-0.4,0-0.8,0-1.2,0c0,0,0,0-0.1,0c-0.3,0-0.7,0-1,0c-0.2,0-0.3,0-0.5,0
		c0,0,0,0,0,0c-0.9,0-1.8,0-2.7,0c-0.9,0-1.7,0-2.6,0.1c0,0.3-0.1,0.7-0.1,1c0,8.2,0,16.4,0,24.5c-0.4,0-0.7,0.1-1.1,0.1
		c-0.2,0-0.3,0-0.5,0c-0.2,0-0.4,0-0.5,0c-0.9,0-1.8,0-2.8,0c-0.5,0-1,0-1.5,0h-0.1c-0.1,0-0.1,0-0.2,0c0,0,0,0,0,0
		c-0.3,0-0.4-0.2-0.4-0.5c0,0,0-0.1,0-0.1c0-0.3,0-0.6,0-0.9c0-7.6,0-15.2,0-22.7c0-0.5,0.1-0.9-0.1-1.3v0c-0.4-0.1-0.9-0.1-1.3-0.1
		h0c-0.1,0-0.2,0-0.3,0c-0.2,0-0.5,0-0.8,0c-0.8,0-1.6,0-2.4,0c-0.2,0-0.4,0-0.6,0c-0.5,0-1,0-1.5,0c-0.6,0-1.2,0-1.8-0.1v-6.3
		c0.3-0.1,0.6-0.1,0.8-0.1c7.7,0,15.5,0,23.2,0c0.1,0,0.1,0,0.2,0h0C891.8,117.1,892,117.1,892.2,117.3z"/>
	<path d="M808,177.2v6.3c-0.7,0-1.4,0.1-2,0.1h-0.2c-0.8,0-1.6,0-2.4,0c-0.7,0-1.5,0-2.2,0c-0.2,0-0.5,0-0.7,0
		c-0.5,0-0.9-0.1-1.3,0.1c0,0.3-0.1,0.7-0.1,1v24.5c-2.3,0.1-4.7,0.1-7,0c0-8.2,0-16.4,0-24.5c0-0.3-0.1-0.6-0.1-1
		c-0.7-0.1-1.3-0.1-2-0.1c-0.6,0-1.2,0-1.8,0c0,0,0,0,0,0c-0.7,0-1.4,0-2.2,0c-0.1,0-0.2,0-0.3,0c-0.5,0-0.9,0-1.4,0h-0.1
		c-0.4,0-0.9,0.1-1.2-0.1v-6.2c0.2-0.2,0.4-0.2,0.7-0.2h0.3c7.8,0,15.6,0,23.4,0C807.6,177.1,807.8,177.1,808,177.2z"/>
	<path d="M845.5,117.2v6.3c-1,0.1-2,0.1-3,0.1H842c-1.4,0-2.7-0.1-4.1,0c0,0,0,0-0.1,0c-0.4,0-0.9-0.1-1.3,0.1c0,0.3-0.1,0.7-0.1,1
		c0,8.2,0,16.4,0,24.5c-2.3,0.2-4.7,0.2-7,0v-24.5c0-0.3-0.1-0.6-0.1-1c-0.7-0.1-1.3-0.1-2-0.1c-0.7,0-1.4,0-2.1,0
		c-0.4,0-0.9,0-1.3,0c-0.7,0-1.4,0-2.1,0h-0.1c-0.4,0-0.9,0.1-1.2-0.2v-6.2c0.2-0.2,0.5-0.2,0.7-0.2h23.7
		C845.1,117.1,845.3,117.1,845.5,117.2z"/>
	<path d="M955.6,122.6c0,0.4-0.1,0.6-0.2,0.8c0,0,0,0-0.1,0.1c-0.2,0.1-0.4,0.1-0.7,0.1c-0.2,0-0.5,0-0.7,0c0,0-0.1,0-0.1,0
		c-0.8,0-1.7,0-2.5,0h0c-0.7,0-1.4,0-2.1,0h-0.1c-0.4,0-0.7,0-1.1,0c-0.1,0-0.1,0-0.2,0c-0.3,0-0.7-0.1-1,0.2l0,0
		c0,0-0.1,0.1-0.1,0.2c0,0.1-0.1,0.2-0.1,0.3c0,0.3,0,0.6,0,0.8c0,4.2,0,8.4,0,12.6c0,3.5,0,6.9,0,10.4c0,0.1,0,0.2,0,0.3
		c0,0,0,0,0,0c0,0.5-0.2,0.8-0.7,0.9c-0.2,0-0.4,0-0.6,0c-0.2,0-0.3,0-0.4,0c-1.2-0.1-2.5,0-3.7,0c-0.1,0-0.2,0-0.3,0
		c-0.2,0-0.4,0-0.6,0c-0.2,0-0.5,0-0.7-0.1c0-8.3,0-16.7,0-25c0-0.1-0.1-0.3-0.1-0.5c-0.2-0.1-0.4-0.1-0.7-0.2c-0.3,0-0.6,0-0.8,0
		h-0.2c-1.9,0-3.8-0.1-5.6,0h-0.3c-0.1,0-0.2,0-0.3,0c-0.5,0-0.8-0.2-0.9-0.8c0,0,0,0,0,0c0-0.1,0-0.3,0-0.5c0-0.2,0-0.5,0-0.7
		c0,0,0-0.1,0-0.1c0-1.2,0-2.3,0-3.5v-0.1c0-0.1,0-0.1,0-0.2c0-0.3,0.2-0.5,0.6-0.6c0.1,0,0.1,0,0.2,0c7.8,0,15.6,0,23.4,0
		c0.1,0,0.1,0,0.2,0c0.1,0,0.1,0,0.2,0c0.4,0.1,0.5,0.3,0.5,0.8C955.6,119.5,955.6,121,955.6,122.6z"/>
	<path class="st3" d="M958.5,84c-0.1,1.7,0,3.5,0,5.2c0,0,0,0-0.1,0c-0.1,0-0.2,0-0.2,0.1c-0.3,0-0.5,0-0.8,0h-4
		c-4.1,0-8.2,0-12.2,0h-0.8c-0.8,0-1.1-0.1-1.2-0.8c0,0,0-0.1,0-0.1c0-0.1,0-0.2,0-0.3c0-4.1,0-8.2,0-12.3v-4.3c0-4.4,0-8.8,0-13.2
		c0-0.1,0-0.2,0-0.3v0c0.1-0.7,0.3-0.9,1-0.9h0.3c0.2,0,0.4,0,0.6,0c1,0,1.9,0,2.9,0c0.3,0,0.5,0,0.8,0c0.4,0,0.7,0,0.9,0
		c0,0,0,0,0,0c0.3,0.1,0.4,0.2,0.4,0.6c0,0,0,0.1,0,0.1c0,0.2,0,0.4,0,0.6v9.1c0,4.6,0,9.2,0,13.8v0c0,0.4-0.1,0.9,0.1,1.3
		c0.3,0.4,0.8,0.2,1.2,0.2c3.3,0,6.6,0,9.8,0C958.2,82.8,958.6,83,958.5,84z"/>
	<path d="M749.2,117.2v32c-0.4,0-0.7,0.1-1.1,0.1c-0.2,0-0.3,0-0.5,0c-0.2,0-0.3,0-0.5,0c-0.9,0-1.8,0-2.8,0c-0.5,0-1,0-1.5,0h-0.1
		c-0.1,0-0.1,0-0.2,0c0,0,0,0,0,0c-0.3,0-0.4-0.2-0.4-0.5c0,0,0,0,0,0v-0.1c0-0.2,0-0.4,0-0.6c0-9.9,0-19.8,0-29.7
		c0-0.3,0-0.6,0.1-0.8c0.1-0.3,0.3-0.5,0.7-0.5c0.2,0,0.3,0,0.6,0c0.3,0,0.6,0,1,0c0.9,0,1.8,0,2.8,0c0.2,0,0.3,0,0.5,0
		c0.2,0,0.4,0,0.5,0C748.5,117.1,748.9,117.2,749.2,117.2z"/>
	<path d="M775.7,177.2v31.9c-0.4,0.1-0.8,0.1-1.2,0.1c-0.2,0-0.4,0-0.6,0c-0.2,0-0.4,0-0.5,0c-0.9,0-1.8,0-2.8,0c-0.5,0-0.9,0-1.4,0
		h0c-0.4,0-0.5-0.2-0.5-0.5v-8.4c0-3.1,0-6.2,0-9.3v-2.8c0-3.3,0-6.6,0-9.9c0-0.2,0-0.3,0-0.4c0-0.5,0.2-0.8,0.6-0.9
		c0.2,0,0.4,0,0.7,0l0.6,0h0c1,0,2,0,3,0h0.2c0.2,0,0.4,0,0.6,0C774.8,177.1,775.3,177.2,775.7,177.2z"/>
	<path class="st0" d="M165.2,219.9c0,0.7,0,1.1-0.1,1.4c0,0,0,0,0,0c0,0,0,0,0,0c-0.1,0.6-0.6,0.6-1.9,0.6c-3.8,0-7.7,0-11.5,0h-0.1
		c-0.2-4.9-0.6-9.8-2.1-14.5c-7-22.5-21.9-36.4-45.1-40.6c-24.6-4.5-48.6,8.6-59.5,30.6c-3.7,7.5-5.6,15.5-5.7,23.8
		c0,0.2-0.1,0.5-0.1,0.7h-0.1c-4.5,0-9,0-13.5,0h-0.2c-0.2-7.3,0.9-14.4,3.3-21.2c8.3-24.1,24.8-40.1,49.5-46.5
		c24.2-6.2,46.1-0.4,64.7,16.3c12.2,11,19.4,25,21.9,41.2c0.4,2.2,0.6,4.5,0.6,6.8C165.3,219.1,165.2,219.5,165.2,219.9z"/>
	<path class="st0" d="M140.1,219.4c0,0.5-0.1,0.9-0.1,1.3c0,0,0,0,0,0c-0.2,1.2-0.6,1.2-2.7,1.2c-3.6,0-7.2,0-10.8,0h-0.2
		c-0.2-8-3-15-8.4-20.9c-14.2-15.5-40.3-12-49.9,6.7c-2.1,4.1-3.4,8.4-3.5,13c0,0.4-0.1,0.8-0.2,1.2h-0.1c-4.5,0-9,0-13.5,0h-0.2
		c-0.2-6.6,1.2-12.8,4.1-18.7c6.6-13.7,17.4-22.2,32.3-25.2c19.2-3.8,38.8,5.6,48,22.9C138,206.7,139.8,212.8,140.1,219.4z"/>
	<path d="M476.5,222c-12.8,0-25.5,0-38.3,0c0-0.5-0.1-0.9-0.1-1.4c0-58.2,0-116.5,0-174.7c0-1.3,0.3-1.5,1.6-1.5
		c11.9,0.1,23.7,0,35.6,0c1.1,0,1.3,0.3,1.3,1.3c0,58.4,0,116.8,0,175.2C476.6,221.2,476.6,221.6,476.5,222z"/>
	<path class="st3" d="M965.9,73.2c0-4.9,0-9.9,0-14.8c0-1.1,0.3-1.3,1.3-1.3c1.6,0.1,3.2,0,4.7,0c0.6,0,1,0.1,1,0.9
		c0,10.2,0,20.4,0,30.6c0,0.5-0.1,0.8-0.7,0.8c-1.8,0-3.7,0-5.5,0c-0.9,0-0.8-0.5-0.8-1.1C965.9,83.3,965.9,78.2,965.9,73.2z"/>
	<path class="st3" d="M859.9,133.4c0,4.9,0,9.9,0,14.8c0,1-0.3,1.2-1.2,1.2c-1.7-0.1-3.3,0-5,0c-0.7,0-0.8-0.2-0.8-0.9
		c0-10.2,0-20.4,0-30.6c0-0.7,0.2-0.8,0.9-0.8c1.7,0,3.4,0.1,5.1,0c0.8,0,1,0.2,1,1.1C859.9,123.2,859.9,128.3,859.9,133.4z"/>
	<path d="M846.8,63.7c-2.6-0.3-5.1-0.1-7.7-0.1c-0.9,0-1.1-0.2-1.1-1.1c0.1-1.5,0.1-3,0-4.5c0-0.8,0.3-0.9,1-0.9
		c7.6,0,15.2,0,22.9,0c0.9,0,1.1,0.3,1.1,1.1c-0.1,1.5-0.1,3,0,4.5c0,0.7-0.2,0.9-0.9,0.9c-2.7,0-5.3-0.2-8,0.1
		c-0.2,0.4-0.1,0.9-0.1,1.3c0,7.7,0,15.4,0,23.1c0,0.9-0.2,1.3-1.1,1.2c-1.6-0.1-3.2-0.1-4.7,0c-1,0.1-1.1-0.3-1.1-1.2
		c0-7.7,0-15.5,0-23.2C846.9,64.5,847,64.1,846.8,63.7z"/>
</g>
</svg>
