<svg id="Layer_1" data-name="Layer 1" xmlns="http://www.w3.org/2000/svg" viewBox="0 0 323.8 99.9"><defs><style>.cls-1{fill:#fff;opacity:0.87;isolation:isolate;}</style></defs><g id="logotype"><path class="cls-1" d="M355.5,84a3.7,3.7,0,0,0-5.1,1c-.2.3-4.6,6.7-12.3,6.7-3,0-5.3-.9-6.8-2.8-.1-.1-.2-.3-.3-.4a.1.1,0,0,0,.1-.1c18.2-10.4,18-19.3,17.2-22.6a9,9,0,0,0-9.1-6.6c-10.4,0-17.3,11.6-17.3,22.4a26,26,0,0,0,.3,4c-3.7,2.7-9.4,6.1-14.4,6.1-2.9,0-5.1-.9-6.5-2.6a8.17,8.17,0,0,1-1.2-2c13.9-4,19.2-12.9,18.2-20-.6-4.6-4.1-7.9-8.4-7.9-9.7,0-16.7,10.2-17.8,20.2a10.65,10.65,0,0,1-5-1.7,38.89,38.89,0,0,0,.4-4.7,17.28,17.28,0,0,0-1.8-8.3,8.28,8.28,0,0,0-7.4-4.5,4.64,4.64,0,0,0-4.1,2.5c-1.8,3.3-.6,9.7,2.7,14.8a18.6,18.6,0,0,0,2.1,2.8c-1.8,5.8-5.6,11.3-10.4,11.3a6.86,6.86,0,0,1-5.2-2.1c-1.9-2.1-3.2-5.8-3.6-10.5,13.6-17,20.3-33.7,16.5-41.6a7.09,7.09,0,0,0-6.6-4.2c-9.4,0-15,12.2-17.2,37.3-.1,1.5-.2,3.4-.2,5.4-5,6.8-13.3,15.7-20.7,15.7a5.25,5.25,0,0,1-4.7-2.2c-.1-.1-.2-.3-.3-.4.1,0,.2-.1.3-.2,18.3-11.8,18-20.7,17.1-23.9-1-3.5-4.2-5.8-8.3-5.8-10.6,0-17.8,12.2-17.8,23.6,0,1,.1,2,.2,3-3.4,2.4-6.1,4.6-8.8,6.7.4-3.1,1-7.1,1.7-13h0c.2-1.2.3-2.2.4-2.7.6-4.3-6.5-5.2-7.3-.4-.8,5-2.9,15.3-8.8,15.3-3.5,0-5.4-3.9-5-9.6.5-9,5.4-16.3,11.4-16.3,2.1,0,3.1,2.2,3.1,2.2,1.9,3.4,7.8.5,6.5-3.1-.6-1.6-2.5-5.7-9.4-5.7-14,0-18.4,14.2-19,23.6a22.57,22.57,0,0,0,.1,4.5c-2,2.4-4.3,4.4-6.6,4.4s-3.6-2.5-2.8-8.2c.8-5.5,1.4-10,1.7-12.6,1.7-11.9-13.2-11.6-13.2-11.6s-.2-7-5.9-7c-2.9,0-5.6,2.3-5.6,6.6a7.39,7.39,0,0,0,3.3,6h0c-.7,6.2-3.6,26.8-10.1,26.8-2.9,0-3.1-3.1-2.8-5.3.4-3,.9-8.2,1.1-9.5.6-4.3-6.5-5.2-7.3-.4-.8,5-2.9,15.3-8.8,15.3-3.5,0-5.4-4.4-5.1-9.8.5-9.1,5.4-16.1,11.4-16.1,2.1,0,3.1,2.2,3.1,2.2,1.6,3.4,7.7,1,6.5-3.1-.5-1.8-2.5-5.7-9.4-5.7-14,0-18.4,14.2-19,23.6a29.4,29.4,0,0,0,0,4.2c-2,2.7-4.4,4.7-6.7,4.7-2.1,0-3.7-1.1-3.3-5.8.2-2.2,2.7-17.3,2.6-20-.3-4.6-2.4-6.6-7.5-6.6a16.22,16.22,0,0,0-11.1,4.5s2.5-19,3-22.7-6.9-3.9-7.3,0c-.2,1.7-2.2,16.7-4,30.7C75,81,66.7,95,54.4,95c-23.3,0-12.6-50.8,9.3-50.8,5.1,0,2.8,8.2-.6,13.1-2.4,3.6,3.7,7.6,7.1,1.9,9.4-15.9,1.5-21.8-6-21.8C31.8,37.4,19.8,102,53.5,102c11.1,0,18.6-6.2,23.4-13-.5,3.8-.8,6.4-.9,6.9-.6,4,6.9,3.7,7.3.3.3-2.1,1.4-11,2.3-17.9.5-3.9,5.3-11.1,10.7-11.1a2.16,2.16,0,0,1,2,2.4c-.2,1.3-2.5,18.2-2.4,20.7.4,7.1,5.5,8.7,10.3,8.7a12.41,12.41,0,0,0,9.4-4.6,8.88,8.88,0,0,0,7.9,4.6c8.1,0,10.9-5.8,10.9-5.8s1,5.8,8,5.8c14.2,0,17.5-24.7,18.2-33,.8,0,5.8.3,6.7,3.1s-1.7,11.3-1.9,20.2c-.1,4.7,1.6,9.7,9,9.7A15.67,15.67,0,0,0,185,94.6a8.87,8.87,0,0,0,7.8,4.4,13.47,13.47,0,0,0,8.4-2.6c-.1.8-.2,1.5-.3,2.3v.1c0-.1-18.7,13.4-18.7,26.1,0,5,2.3,8.2,8.2,8.2,11.7,0,15.4-15.7,17.1-28.6a11.14,11.14,0,0,0,.2-1.7c1.8-1.4,3.5-2.7,5.2-4,2.4-1.9,4.8-3.7,7.5-5.7.1.2.3.4.4.6a12.73,12.73,0,0,0,10.7,5.2c8.5,0,16.4-6.5,22-12.9a21,21,0,0,0,4.4,8.5A14.18,14.18,0,0,0,268.5,99c8.1,0,13.7-6.5,16.7-14a21.75,21.75,0,0,0,7.3,1.8,16.27,16.27,0,0,0,3.2,6.9c2,2.4,5.7,5.3,12.2,5.3s12.9-3.5,17.2-6.4l.6.9c2,2.5,5.9,5.5,12.5,5.5,11.7,0,18.2-9.6,18.5-10A3.94,3.94,0,0,0,355.5,84ZM191.3,126a1.85,1.85,0,0,1-1.9-2.1c0-6.4,9.9-15.1,10-15.1C198.2,117.4,194.7,126,191.3,126Zm44.2-60c.9,0,1.1.7,1.3,1.1.4,1.4-1,6.7-11.7,14.1C225.7,74.2,230,66,235.5,66Zm34-25.3c3.1,0,.6,10.6-9.3,25.4C262.5,46.4,265.7,40.7,269.5,40.7ZM309.1,66c1.6,0,1.7,1.6,1.8,2.2.4,3-2.4,8.4-11.6,11.5C300.3,73.2,304.6,66,309.1,66Zm30,0c1.1,0,1.7.8,2,1.8.6,2.1-2.2,7.4-12,13.4C329.3,74.2,333.5,66,339.1,66Z" transform="translate(-33.35 -33.2)"/></g></svg>