<svg id="Layer_1" data-name="Layer 1" xmlns="http://www.w3.org/2000/svg" xmlns:xlink="http://www.w3.org/1999/xlink" viewBox="0 0 540.22 304.36"><defs><style>.cls-1{fill:url(#linear-gradient);}.cls-2{fill:#f7b519;}.cls-3{fill:#2f2f2f;}</style><linearGradient id="linear-gradient" x1="239.25" y1="78.02" x2="503.72" y2="342.5" gradientTransform="matrix(1, 0, 0, -1, 0, 306)" gradientUnits="userSpaceOnUse"><stop offset="0" stop-color="#378b36"/><stop offset="0.55" stop-color="#50b848"/><stop offset="1" stop-color="#a6ce39"/></linearGradient></defs><g id="Layer_2" data-name="Layer 2"><g id="Layer_1-2" data-name="Layer 1-2"><polygon class="cls-1" points="315.63 304.36 306.65 292.24 528.1 292.24 528.1 12.12 99.04 12.12 89.87 0 540.22 0 540.22 304.36 315.63 304.36"/><polygon class="cls-2" points="0 304.36 0 0 73.57 0 82.56 12.12 12.12 12.12 12.12 292.24 290.29 292.24 299.27 304.36 0 304.36"/><path class="cls-3" d="M84.27,99.42a32.34,32.34,0,0,1-15.7,3.9c-14.75,0-24.2-8.72-24.2-21.68,0-12.75,9-21.69,21.38-21.69,12.79,0,22.51,9.63,19.77,25H55.42c1.13,5.81,6.34,8.58,13.19,8.58A33,33,0,0,0,82.7,90.4Zm-8.72-21.9c-.31-4.64-3.82-8.2-9.54-8.2-5.94,0-9.93,3.47-10.41,8.2Z"/><path class="cls-3" d="M118.82,60.82h12.75L116.48,81.2l15.44,21.25H119.39L109.8,88.62l-9.5,13.83H87.81L103.12,81.2,87.94,60.82h12.8l9.06,12.84Z"/><path class="cls-3" d="M181.9,81.81c0,12.58-8.37,21.51-20.17,21.51-6.11,0-10.75-2.08-13.53-5.25V119.8H137.1v-59h10.71l.22,5c2.73-3.47,7-5.9,13.7-5.9C173.53,60,181.9,69.15,181.9,81.81ZM159.48,93.35c6.59,0,11.27-5,11.27-11.58s-4.64-11.84-11.27-11.84-11.32,5.2-11.32,11.84S152.93,93.35,159.48,93.35Z"/><path class="cls-3" d="M208.45,60c12.79,0,22.24,9.41,22.24,21.69s-9.45,21.68-22.24,21.68S186.2,94,186.2,81.64,195.7,60,208.45,60Zm0,33.31c6.54,0,11.18-4.94,11.18-11.62S215,70.06,208.45,70.06,197.26,75,197.26,81.64s4.68,11.62,11.19,11.62Z"/><path class="cls-3" d="M246.27,66.5A11.54,11.54,0,0,1,257.11,60a16.71,16.71,0,0,1,5.42,1l-.87,9.93a15.71,15.71,0,0,0-5.16-1c-4.9,0-10.06,2.65-10.06,11.24V102.5H235.29V60.82h10.76Z"/><path class="cls-3" d="M285.7,70.06V87.19c0,4.33,2.43,6.24,6.16,6.24a27.68,27.68,0,0,0,7.07-1l1,9.24a31,31,0,0,1-10.06,1.65c-9.16,0-15.31-4.73-15.31-14.53V70.06h-7V60.82h7.07V47.46h10.8V60.82H297.5v9.24Z"/><path class="cls-3" d="M61.54,149.22v32.4H50.39v-32.4H43.06V140h7.42v-4.07c0-9.11,5.73-16.22,17.18-16.22a22.84,22.84,0,0,1,7.89,1.47l-1.17,9.11a13.86,13.86,0,0,0-5.55-1c-4.34,0-7.59,2-7.59,7.33V140H73.12v9.24Z"/><path class="cls-3" d="M79.47,126.62A6.4,6.4,0,1,1,85.89,133h0a6.11,6.11,0,0,1-6.37-5.84A4.86,4.86,0,0,1,79.47,126.62Zm.82,55V140H91.44v41.64Z"/><path class="cls-3" d="M139.52,155.46v26.16H128.37V158.33c0-5.77-3.73-8.89-8.58-8.89s-9.24,3.12-9.24,8.89v23.29H99.44V140H110l.21,4.82c2.17-2.91,6.64-5.69,12.84-5.69C132.71,139.11,139.52,145.45,139.52,155.46Z"/><path class="cls-3" d="M145.24,160.71c0-12.62,8.63-21.6,20.08-21.6,6.46,0,10.84,2.48,13.57,5.9l.22-5H190v41.64H179.11l-.22-5c-2.73,3.47-7.11,5.89-13.57,5.89C153.87,182.48,145.24,173.33,145.24,160.71Zm22.24-11.66c-6.68,0-11.19,5-11.19,11.66s4.51,11.89,11.19,11.89,11.37-5.21,11.37-11.89-4.73-11.66-11.37-11.66Z"/><path class="cls-3" d="M238.25,155.46v26.16H227.1V158.33c0-5.77-3.73-8.89-8.58-8.89s-9.24,3.12-9.24,8.89v23.29h-11.1V140h10.58l.22,4.82c2.16-2.91,6.63-5.69,12.83-5.69C231.44,139.11,238.25,145.45,238.25,155.46Z"/><path class="cls-3" d="M266.9,139.11a32,32,0,0,1,13.1,2.78l-1,9.67a27.72,27.72,0,0,0-10.92-2.25c-7.59,0-13.41,3.9-13.41,11.4,0,7.12,5.51,11.54,13.06,11.54a26.17,26.17,0,0,0,11.45-2.73l1.3,9.88A31.3,31.3,0,0,1,267,182.48c-13.7,0-23.46-8.84-23.46-21.72C243.57,147.22,253.46,139.11,266.9,139.11Z"/><path class="cls-3" d="M323.44,178.58a32.34,32.34,0,0,1-15.7,3.9c-14.74,0-24.2-8.71-24.2-21.68,0-12.75,9-21.69,21.38-21.69,12.8,0,22.51,9.63,19.78,25H294.6c1.13,5.81,6.33,8.59,13.19,8.59a33,33,0,0,0,14.09-3.17Zm-8.71-21.9c-.31-4.64-3.82-8.2-9.55-8.2-5.94,0-9.93,3.47-10.4,8.2Z"/><path class="cls-3" d="M44.41,239.88c0-12.62,8.63-21.6,20.08-21.6,6.46,0,10.84,2.47,13.57,5.9l.22-5H89.17v41.63H78.28l-.22-5c-2.73,3.47-7.11,5.9-13.57,5.9C53,261.65,44.41,252.5,44.41,239.88Zm22.25-11.67c-6.68,0-11.19,5-11.19,11.67S60,251.76,66.66,251.76,78,246.55,78,239.88,73.29,228.21,66.66,228.21Z"/><path class="cls-3" d="M123.38,219.15h11.1v24.5c0,10.54-7.94,18-19.69,18s-19.47-7.38-19.47-17.74V219.15h11.14v23.37c0,5.29,3.43,8.89,8.33,8.89,5.16,0,8.59-3.6,8.59-8.89Z"/><path class="cls-3" d="M161.35,236.19c8.24,1.52,12.36,5.25,12.36,12.45,0,8.37-6.94,13-17.61,13-6.25,0-12.28-1.13-16-3l1.17-9.1a40,40,0,0,0,14,2.9c5.42,0,7.72-1.12,7.72-3.6,0-2.21-1.78-3.29-6.64-4.16l-5-1c-8-1.39-11.93-5.47-11.93-12.36,0-7.77,7.2-13.1,18.26-13.1a36.54,36.54,0,0,1,14.09,2.6l-1,9.06a37.78,37.78,0,0,0-12.58-2.34c-5.46,0-8.11,1.3-8.11,3.78,0,2,1.82,3.07,6.81,4Z"/><path class="cls-3" d="M194.84,228.38v17.13c0,4.34,2.43,6.25,6.16,6.25a28.13,28.13,0,0,0,7.07-1l1,9.24A31,31,0,0,1,199,261.65c-9.15,0-15.31-4.73-15.31-14.53V228.38h-7v-9.23h7.07V205.79h10.79v13.36h12.06v9.23Z"/><path class="cls-3" d="M225.09,224.83a11.54,11.54,0,0,1,10.84-6.55,16.93,16.93,0,0,1,5.42.95l-.87,9.93a15.65,15.65,0,0,0-5.16-.95c-4.9,0-10.06,2.65-10.06,11.23v21.34H214.11V219.15h10.76Z"/><path class="cls-3" d="M242.8,239.88c0-12.62,8.63-21.6,20.08-21.6,6.46,0,10.84,2.47,13.57,5.9l.22-5h10.89v41.63H276.67l-.22-5c-2.73,3.47-7.11,5.9-13.57,5.9C251.43,261.65,242.8,252.5,242.8,239.88Zm22.25-11.67c-6.68,0-11.19,5-11.19,11.67s4.51,11.88,11.19,11.88,11.36-5.21,11.36-11.88S271.68,228.21,265.05,228.21Z"/><path class="cls-3" d="M305.42,260.78h-11.1V199.72h11.1Z"/><path class="cls-3" d="M312.43,205.79a6.4,6.4,0,1,1,6.43,6.37h-.05a6.11,6.11,0,0,1-6.38-5.83A4.86,4.86,0,0,1,312.43,205.79Zm.82,55V219.15H324.4v41.63Z"/><path class="cls-3" d="M330,239.88c0-12.62,8.63-21.6,20.08-21.6,6.47,0,10.85,2.47,13.58,5.9l.22-5h10.88v41.63H363.85l-.22-5c-2.73,3.47-7.11,5.9-13.58,5.9C338.6,261.65,330,252.5,330,239.88Zm22.25-11.67c-6.68,0-11.19,5-11.19,11.67s4.51,11.88,11.19,11.88,11.37-5.21,11.37-11.88-4.76-11.67-11.4-11.67Z"/></g></g></svg>