
<svg width="170px" height="58px" viewBox="0 0 170 58" version="1.1" xmlns="http://www.w3.org/2000/svg" xmlns:xlink="http://www.w3.org/1999/xlink">
    <g id="Page-1" stroke="none" stroke-width="1" fill="none" fill-rule="evenodd">
        <path d="M65.4863,48.0736 C65.3203,48.0326 65.1443,48.0116 64.9583,48.0116 C63.9733,48.0116 63.2693,48.6646 63.2693,49.7526 L63.2693,50.0226 L62.9483,50.0226 C62.6263,50.0226 62.3673,50.2806 62.3673,50.6016 C62.3673,50.9136 62.6263,51.1726 62.9483,51.1726 L63.2693,51.1726 L63.2693,54.4356 C63.2693,54.7996 63.5693,55.0986 63.9323,55.0986 C64.2943,55.0986 64.5953,54.7996 64.5953,54.4356 L64.5953,51.1726 L65.1033,51.1726 C65.4243,51.1726 65.6833,50.9136 65.6833,50.6016 C65.6833,50.2806 65.4243,50.0226 65.1033,50.0226 L64.5953,50.0226 L64.5953,49.7736 C64.5953,49.2966 64.8443,49.0486 65.2173,49.0486 C65.2583,49.0486 65.3313,49.0576 65.3833,49.0576 C65.6943,49.0686 65.8903,48.8406 65.8903,48.5606 C65.8903,48.3126 65.7143,48.1256 65.4863,48.0736" id="Fill-1" fill="#57585F"></path>
        <path d="M70.397,49.9496 C70.034,49.9496 69.744,50.2506 69.744,50.6126 L69.744,53.4106 C69.516,53.7006 69.112,53.9806 68.604,53.9806 C68.044,53.9806 67.682,53.7526 67.682,53.0576 L67.682,50.6126 C67.682,50.2506 67.381,49.9496 67.029,49.9496 C66.656,49.9496 66.366,50.2506 66.366,50.6126 L66.366,53.5766 C66.366,54.5506 66.884,55.1516 67.982,55.1516 C68.801,55.1516 69.392,54.7786 69.734,54.4056 L69.734,54.4356 C69.734,54.8086 70.034,55.1096 70.407,55.1096 C70.77,55.1096 71.06,54.8086 71.06,54.4356 L71.06,50.6126 C71.06,50.2506 70.759,49.9496 70.397,49.9496" id="Fill-3" fill="#57585F"></path>
        <path d="M74.8301,49.9281 C74.7161,49.9281 74.6231,49.9601 74.4981,50.0111 C74.1981,50.1251 73.8971,50.4061 73.6791,50.7061 L73.6901,50.6131 C73.6901,50.2401 73.3891,49.9491 73.0161,49.9491 C72.6531,49.9491 72.3631,50.2501 72.3631,50.6231 L72.3631,54.4361 C72.3631,54.7991 72.6531,55.0991 73.0271,55.0991 C73.3791,55.0991 73.6791,54.7991 73.6791,54.4361 L73.6791,51.7211 C73.8971,51.4011 74.4151,51.2141 74.7571,51.1721 C75.1721,51.1111 75.3791,50.8401 75.3791,50.5191 C75.3791,50.1991 75.1821,49.9281 74.8301,49.9281" id="Fill-5" fill="#57585F"></path>
        <path d="M79.1592,49.8978 C78.3402,49.8978 77.7392,50.2918 77.4182,50.6538 L77.4182,50.6128 C77.4182,50.2398 77.1182,49.9388 76.7452,49.9388 C76.3822,49.9388 76.0922,50.2398 76.0922,50.6128 L76.0922,54.4368 C76.0922,54.7988 76.3822,55.0998 76.7552,55.0998 C77.1072,55.0998 77.4082,54.7988 77.4082,54.4368 L77.4082,51.6588 C77.6262,51.3588 78.0302,51.0688 78.5482,51.0688 C79.1072,51.0688 79.4702,51.3068 79.4702,52.0008 L79.4702,54.4368 C79.4702,54.7988 79.7712,55.0998 80.1232,55.0998 C80.4962,55.0998 80.7862,54.7988 80.7862,54.4368 L80.7862,51.4938 C80.7862,50.5198 80.2582,49.8978 79.1592,49.8978" id="Fill-7" fill="#57585F"></path>
        <path d="M82.7529,49.9496 C82.3799,49.9496 82.0899,50.2496 82.0899,50.6126 L82.0899,54.4366 C82.0899,54.7996 82.3799,55.0996 82.7419,55.0996 C83.1049,55.0996 83.4059,54.7996 83.4059,54.4366 L83.4059,50.6126 C83.4059,50.2496 83.1049,49.9496 82.7529,49.9496" id="Fill-9" fill="#57585F"></path>
        <path d="M82.7417,47.6273 C82.3177,47.6273 81.9547,47.9813 81.9547,48.4153 C81.9547,48.8513 82.3177,49.2033 82.7417,49.2033 C83.1767,49.2033 83.5297,48.8513 83.5297,48.4153 C83.5297,47.9813 83.1767,47.6273 82.7417,47.6273" id="Fill-11" fill="#57585F"></path>
        <path d="M86.958,53.9603 C86.896,53.9603 86.834,53.9803 86.741,53.9803 C86.45,53.9803 86.295,53.7413 86.295,53.4313 L86.295,51.1723 L86.813,51.1723 C87.124,51.1723 87.384,50.9123 87.384,50.6023 C87.384,50.2803 87.124,50.0223 86.813,50.0223 L86.295,50.0223 L86.295,49.2443 C86.295,48.8823 85.994,48.5823 85.643,48.5823 C85.27,48.5823 84.968,48.8823 84.968,49.2443 L84.968,50.0223 L84.647,50.0223 C84.326,50.0223 84.067,50.2803 84.067,50.6023 C84.067,50.9123 84.326,51.1723 84.647,51.1723 L84.968,51.1723 L84.968,53.7823 C84.968,54.6753 85.466,55.1513 86.389,55.1513 C86.668,55.1513 86.896,55.1093 87.072,55.0483 C87.301,54.9753 87.467,54.7873 87.467,54.5293 C87.467,54.2193 87.27,53.9803 86.958,53.9603" id="Fill-13" fill="#57585F"></path>
        <path d="M92.2422,49.9496 C91.8792,49.9496 91.5892,50.2506 91.5892,50.6126 L91.5892,53.4106 C91.3602,53.7006 90.9572,53.9806 90.4492,53.9806 C89.8882,53.9806 89.5262,53.7526 89.5262,53.0576 L89.5262,50.6126 C89.5262,50.2506 89.2252,49.9496 88.8742,49.9496 C88.5012,49.9496 88.2112,50.2506 88.2112,50.6126 L88.2112,53.5766 C88.2112,54.5506 88.7282,55.1516 89.8272,55.1516 C90.6452,55.1516 91.2362,54.7786 91.5792,54.4056 L91.5792,54.4356 C91.5792,54.8086 91.8792,55.1096 92.2522,55.1096 C92.6152,55.1096 92.9042,54.8086 92.9042,54.4356 L92.9042,50.6126 C92.9042,50.2506 92.6042,49.9496 92.2422,49.9496" id="Fill-15" fill="#57585F"></path>
        <path d="M96.6748,49.9281 C96.5608,49.9281 96.4678,49.9601 96.3428,50.0111 C96.0428,50.1251 95.7408,50.4061 95.5248,50.7061 L95.5338,50.6131 C95.5338,50.2401 95.2338,49.9491 94.8618,49.9491 C94.4978,49.9491 94.2088,50.2501 94.2088,50.6231 L94.2088,54.4361 C94.2088,54.7991 94.4978,55.0991 94.8708,55.0991 C95.2238,55.0991 95.5248,54.7991 95.5248,54.4361 L95.5248,51.7211 C95.7408,51.4011 96.2608,51.2141 96.6018,51.1721 C97.0168,51.1111 97.2238,50.8401 97.2238,50.5191 C97.2238,50.1991 97.0268,49.9281 96.6748,49.9281" id="Fill-17" fill="#57585F"></path>
        <path d="M98.9727,52.0531 C99.0347,51.5561 99.3877,50.9441 100.2057,50.9441 C101.0767,50.9441 101.4087,51.5761 101.4397,52.0531 L98.9727,52.0531 Z M100.2057,49.8981 C98.6837,49.8981 97.6157,51.0691 97.6157,52.5191 C97.6157,54.1241 98.7647,55.1521 100.2887,55.1521 C100.8687,55.1521 101.4507,55.0171 101.9367,54.7371 C102.0917,54.6441 102.2157,54.4781 102.2157,54.2811 C102.2157,54.0021 101.9787,53.7631 101.6987,53.7631 C101.6057,53.7631 101.5227,53.7831 101.4507,53.8241 C101.1387,54.0021 100.7657,54.1051 100.4337,54.1051 C99.5837,54.1051 99.0767,53.5751 98.9937,52.9451 L101.9257,52.9451 C102.4337,52.9451 102.7137,52.7581 102.7137,52.3221 C102.7137,51.0171 101.6987,49.8981 100.2057,49.8981 Z" id="Fill-19" fill="#57585F"></path>
        <path d="M111.2178,53.9603 C111.1548,53.9603 111.0928,53.9803 110.9988,53.9803 C110.7088,53.9803 110.5538,53.7413 110.5538,53.4313 L110.5538,51.1723 L111.0718,51.1723 C111.3828,51.1723 111.6418,50.9123 111.6418,50.6023 C111.6418,50.2803 111.3828,50.0223 111.0718,50.0223 L110.5538,50.0223 L110.5538,49.2443 C110.5538,48.8823 110.2538,48.5823 109.9018,48.5823 C109.5278,48.5823 109.2278,48.8823 109.2278,49.2443 L109.2278,50.0223 L108.9058,50.0223 C108.5838,50.0223 108.3248,50.2803 108.3248,50.6023 C108.3248,50.9123 108.5838,51.1723 108.9058,51.1723 L109.2278,51.1723 L109.2278,53.7823 C109.2278,54.6753 109.7248,55.1513 110.6468,55.1513 C110.9268,55.1513 111.1548,55.1093 111.3298,55.0483 C111.5598,54.9753 111.7248,54.7873 111.7248,54.5293 C111.7248,54.2193 111.5278,53.9803 111.2178,53.9603" id="Fill-21" fill="#57585F"></path>
        <path d="M114.791,53.9798 C113.972,53.9798 113.516,53.3068 113.516,52.5188 C113.516,51.7428 113.972,51.0678 114.791,51.0678 C115.608,51.0678 116.075,51.7428 116.075,52.5188 C116.075,53.3068 115.608,53.9798 114.791,53.9798 M114.791,49.8978 C113.143,49.8978 112.147,51.0998 112.147,52.5188 C112.147,53.9498 113.143,55.1508 114.791,55.1508 C116.449,55.1508 117.442,53.9498 117.442,52.5188 C117.442,51.0998 116.449,49.8978 114.791,49.8978" id="Fill-23" fill="#57585F"></path>
        <path d="M122.1865,49.9496 C121.9165,49.9496 121.6675,50.1056 121.5755,50.3536 L120.3835,53.5456 L119.1805,50.3536 C119.0985,50.1056 118.8495,49.9496 118.5795,49.9496 C118.2175,49.9496 117.9375,50.2396 117.9375,50.6016 C117.9375,50.6856 117.9485,50.7676 117.9785,50.8406 L119.6995,55.0986 L119.5125,55.5246 C119.3885,55.7946 119.1695,55.8766 118.8285,55.8866 C118.8085,55.8866 118.7875,55.8976 118.7665,55.8976 C118.4665,55.9076 118.2075,56.1366 118.2075,56.4576 C118.2075,56.7786 118.4455,57.0376 118.7975,57.0476 C118.8495,57.0576 118.9015,57.0576 118.9425,57.0576 C119.6885,57.0476 120.3835,56.7786 120.7565,55.8456 L122.7875,50.8516 C122.8185,50.7786 122.8395,50.6856 122.8395,50.6016 C122.8395,50.2396 122.5595,49.9496 122.1865,49.9496" id="Fill-25" fill="#57585F"></path>
        <path d="M125.6553,51.9086 C125.0953,51.7936 124.7013,51.6796 124.7013,51.3696 C124.7013,51.0786 125.0123,50.9026 125.4893,50.9026 C125.9153,50.9026 126.3073,51.0276 126.6303,51.2236 C126.6913,51.2646 126.7963,51.2866 126.8793,51.2866 C127.1573,51.2866 127.3853,51.0576 127.3853,50.7786 C127.3853,50.5916 127.2823,50.4266 127.1273,50.3436 C126.6713,50.0636 126.1213,49.8976 125.4793,49.8976 C124.1643,49.8976 123.4273,50.6336 123.4273,51.4716 C123.4273,52.6646 124.5353,52.8716 125.3953,53.0376 C125.9673,53.1516 126.4013,53.2766 126.4013,53.6286 C126.4013,53.9396 126.1333,54.1366 125.5613,54.1366 C125.1053,54.1366 124.6083,53.9596 124.2053,53.7106 C124.1213,53.6696 124.0283,53.6376 123.9253,53.6376 C123.6253,53.6376 123.3763,53.8876 123.3763,54.1876 C123.3763,54.3846 123.4893,54.5716 123.6553,54.6646 C124.1833,54.9856 124.8263,55.1516 125.5003,55.1516 C126.8883,55.1516 127.6663,54.4676 127.6663,53.5456 C127.6663,52.3016 126.5153,52.0736 125.6553,51.9086" id="Fill-27" fill="#57585F"></path>
        <path d="M136.334,51.0687 C136.635,51.0687 136.895,51.1517 137.122,51.3277 C137.215,51.3997 137.329,51.4417 137.464,51.4417 C137.785,51.4417 138.055,51.1727 138.055,50.8507 C138.055,50.6537 137.951,50.4677 137.795,50.3637 C137.422,50.0837 136.936,49.8977 136.272,49.8977 C134.729,49.8977 133.619,50.9857 133.619,52.5187 C133.619,54.0627 134.729,55.1517 136.272,55.1517 C136.936,55.1517 137.422,54.9647 137.795,54.6847 C137.951,54.5817 138.055,54.3947 138.055,54.1977 C138.055,53.8667 137.785,53.6077 137.453,53.6077 C137.329,53.6077 137.205,53.6487 137.112,53.7207 C136.895,53.8977 136.635,53.9807 136.334,53.9807 C135.536,53.9807 134.977,53.3897 134.977,52.5187 C134.977,51.6487 135.536,51.0687 136.334,51.0687" id="Fill-29" fill="#57585F"></path>
        <path d="M143.0791,49.9496 C142.7161,49.9496 142.4261,50.2506 142.4261,50.6126 L142.4261,53.4106 C142.1981,53.7006 141.7931,53.9806 141.2861,53.9806 C140.7261,53.9806 140.3641,53.7526 140.3641,53.0576 L140.3641,50.6126 C140.3641,50.2506 140.0631,49.9496 139.7111,49.9496 C139.3381,49.9496 139.0481,50.2506 139.0481,50.6126 L139.0481,53.5766 C139.0481,54.5506 139.5661,55.1516 140.6641,55.1516 C141.4831,55.1516 142.0731,54.7786 142.4161,54.4056 L142.4161,54.4356 C142.4161,54.8086 142.7161,55.1096 143.0891,55.1096 C143.4521,55.1096 143.7421,54.8086 143.7421,54.4356 L143.7421,50.6126 C143.7421,50.2506 143.4411,49.9496 143.0791,49.9496" id="Fill-31" fill="#57585F"></path>
        <path d="M147.4902,53.9808 C147.0652,53.9808 146.5782,53.7428 146.3612,53.4208 L146.3612,51.6488 C146.5782,51.3178 147.0652,51.0688 147.4902,51.0688 C148.2572,51.0688 148.7652,51.6598 148.7652,52.5298 C148.7652,53.3998 148.2572,53.9808 147.4902,53.9808 M147.9052,49.8978 C147.3142,49.8978 146.7552,50.1468 146.3612,50.6648 L146.3612,48.7068 C146.3612,48.3428 146.0602,48.0428 145.7082,48.0428 C145.3352,48.0428 145.0452,48.3428 145.0452,48.7068 L145.0452,54.4368 C145.0452,54.7988 145.3352,55.0998 145.7082,55.0998 C146.0502,55.0998 146.3712,54.8198 146.3712,54.4568 L146.3712,54.4058 C146.7752,54.8928 147.3142,55.1518 147.9052,55.1518 C149.1692,55.1518 150.1222,54.1978 150.1222,52.5298 C150.1222,50.8928 149.1792,49.8978 147.9052,49.8978" id="Fill-33" fill="#57585F"></path>
        <path d="M153.5596,53.9808 C153.1346,53.9808 152.6476,53.7428 152.4306,53.4208 L152.4306,51.6488 C152.6476,51.3178 153.1346,51.0688 153.5596,51.0688 C154.3276,51.0688 154.8346,51.6598 154.8346,52.5298 C154.8346,53.3998 154.3276,53.9808 153.5596,53.9808 M153.9746,49.8978 C153.3836,49.8978 152.8256,50.1468 152.4306,50.6648 L152.4306,48.7068 C152.4306,48.3428 152.1296,48.0428 151.7776,48.0428 C151.4046,48.0428 151.1156,48.3428 151.1156,48.7068 L151.1156,54.4368 C151.1156,54.7988 151.4046,55.0998 151.7776,55.0998 C152.1206,55.0998 152.4406,54.8198 152.4406,54.4568 L152.4406,54.4058 C152.8446,54.8928 153.3836,55.1518 153.9746,55.1518 C155.2396,55.1518 156.1916,54.1978 156.1916,52.5298 C156.1916,50.8928 155.2486,49.8978 153.9746,49.8978" id="Fill-35" fill="#57585F"></path>
        <path d="M157.8379,47.6273 C157.4109,47.6273 157.0499,47.9813 157.0499,48.4153 C157.0499,48.8513 157.4109,49.2033 157.8379,49.2033 C158.2719,49.2033 158.6249,48.8513 158.6249,48.4153 C158.6249,47.9813 158.2719,47.6273 157.8379,47.6273" id="Fill-37" fill="#57585F"></path>
        <path d="M157.8477,49.9496 C157.4747,49.9496 157.1847,50.2496 157.1847,50.6126 L157.1847,54.4366 C157.1847,54.7996 157.4747,55.0996 157.8377,55.0996 C158.1997,55.0996 158.4997,54.7996 158.4997,54.4366 L158.4997,50.6126 C158.4997,50.2496 158.1997,49.9496 157.8477,49.9496" id="Fill-39" fill="#57585F"></path>
        <path d="M160.8408,52.0531 C160.9028,51.5561 161.2558,50.9441 162.0738,50.9441 C162.9448,50.9441 163.2768,51.5761 163.3078,52.0531 L160.8408,52.0531 Z M162.0738,49.8981 C160.5508,49.8981 159.4838,51.0691 159.4838,52.5191 C159.4838,54.1241 160.6328,55.1521 162.1568,55.1521 C162.7368,55.1521 163.3188,55.0171 163.8048,54.7371 C163.9598,54.6441 164.0838,54.4781 164.0838,54.2811 C164.0838,54.0021 163.8458,53.7631 163.5678,53.7631 C163.4738,53.7631 163.3908,53.7831 163.3188,53.8241 C163.0068,54.0021 162.6338,54.1051 162.3018,54.1051 C161.4518,54.1051 160.9448,53.5751 160.8618,52.9451 L163.7938,52.9451 C164.3018,52.9451 164.5818,52.7581 164.5818,52.3221 C164.5818,51.0171 163.5678,49.8981 162.0738,49.8981 Z" id="Fill-41" fill="#57585F"></path>
        <path d="M167.4902,51.9086 C166.9312,51.7936 166.5372,51.6796 166.5372,51.3696 C166.5372,51.0786 166.8482,50.9026 167.3252,50.9026 C167.7502,50.9026 168.1432,51.0276 168.4662,51.2236 C168.5272,51.2646 168.6322,51.2866 168.7152,51.2866 C168.9932,51.2866 169.2212,51.0576 169.2212,50.7786 C169.2212,50.5916 169.1182,50.4266 168.9632,50.3436 C168.5072,50.0636 167.9572,49.8976 167.3152,49.8976 C166.0002,49.8976 165.2632,50.6336 165.2632,51.4716 C165.2632,52.6646 166.3712,52.8716 167.2312,53.0376 C167.8022,53.1516 168.2372,53.2766 168.2372,53.6286 C168.2372,53.9396 167.9692,54.1366 167.3972,54.1366 C166.9412,54.1366 166.4442,53.9596 166.0412,53.7106 C165.9572,53.6696 165.8642,53.6376 165.7612,53.6376 C165.4612,53.6376 165.2122,53.8876 165.2122,54.1876 C165.2122,54.3846 165.3252,54.5716 165.4912,54.6646 C166.0192,54.9856 166.6622,55.1516 167.3362,55.1516 C168.7242,55.1516 169.5022,54.4676 169.5022,53.5456 C169.5022,52.3016 168.3512,52.0736 167.4902,51.9086" id="Fill-43" fill="#57585F"></path>
        <path d="M98.1602,32.5834 L91.2342,26.8554 L96.3892,22.4814 C97.6732,21.4054 98.3162,20.4684 98.3162,19.6694 C98.3162,18.8704 97.7512,17.7684 96.6242,16.3624 C95.4952,14.9564 94.4972,14.2534 93.6292,14.2534 C92.7612,14.2534 91.7202,14.7214 90.5052,15.6594 L89.8802,16.0754 C89.2552,16.5964 88.3082,17.4824 87.0422,18.7314 C85.7742,19.9814 84.8292,20.8664 84.2042,21.3874 L84.2042,4.8794 C84.2042,4.2204 84.1862,3.7344 84.1522,3.4214 C84.1172,2.3804 83.8042,1.6164 83.2142,1.1304 C82.5192,0.5404 81.3392,0.2454 79.6732,0.2454 C77.4512,0.2454 76.0972,0.7134 75.6112,1.6514 C75.3682,2.1714 75.2212,2.6324 75.1692,3.0314 C75.1172,3.4304 75.0912,4.0294 75.0912,4.8274 L75.0912,36.0204 C75.0912,36.8184 75.1172,37.4184 75.1692,37.8164 C75.2212,38.2164 75.3682,38.6764 75.6112,39.1974 C76.0972,40.1344 77.4342,40.6034 79.6212,40.6034 C81.8432,40.6034 83.1792,40.1524 83.6312,39.2494 C83.9082,38.7284 84.0732,38.2684 84.1262,37.8694 C84.1772,37.4704 84.2042,36.8714 84.2042,36.0724 L84.2042,32.0624 C85.0712,32.7584 86.3392,33.9294 88.0052,35.5784 C89.6722,37.2274 90.9032,38.3814 91.7022,39.0414 L92.2232,39.4054 C93.5772,40.4134 94.6362,40.9154 95.4002,40.9154 C96.3022,40.9154 97.3442,40.1864 98.5242,38.7284 C99.5992,37.3054 100.1382,36.1774 100.1382,35.3434 C100.1382,34.9974 100.0252,34.6324 99.8002,34.2494 C99.5742,33.8684 99.0272,33.3124 98.1602,32.5834" id="Fill-46" fill="#858381"></path>
        <path d="M111.2559,14.097 C110.5609,13.507 109.3809,13.211 107.7129,13.211 C105.4909,13.211 104.1379,13.663 103.6519,14.566 C103.4079,15.086 103.2619,15.547 103.2089,15.945 C103.1569,16.345 103.1319,16.944 103.1319,17.742 L103.1319,36.02 C103.1319,36.854 103.1569,37.461 103.2089,37.843 C103.2619,38.226 103.4079,38.677 103.6519,39.197 C104.1379,40.135 105.4749,40.603 107.6609,40.603 C109.8839,40.603 111.2209,40.152 111.6719,39.248 C111.9489,38.728 112.1139,38.269 112.1659,37.868 C112.2189,37.471 112.2439,36.871 112.2439,36.073 L112.2439,17.846 C112.2439,17.187 112.2269,16.683 112.1929,16.336 C112.1569,15.329 111.8459,14.584 111.2559,14.097" id="Fill-48" fill="#858381"></path>
        <path d="M132.7109,30.0316 C131.8589,30.9686 130.7929,31.4376 129.5089,31.4376 C128.2239,31.4376 127.1299,30.9686 126.2279,30.0316 C125.3249,29.0946 124.8739,28.0526 124.8739,26.9066 C124.8739,25.7616 125.2909,24.7126 126.1239,23.7576 C126.9569,22.8026 128.0669,22.3246 129.4559,22.3246 C130.8449,22.3246 131.9469,22.8106 132.7629,23.7826 C133.5789,24.7556 133.9859,25.8046 133.9859,26.9326 C133.9859,28.0616 133.5609,29.0946 132.7109,30.0316 M142.7099,1.7556 C142.4489,1.2346 141.9889,0.8696 141.3299,0.6616 C140.6699,0.4526 139.7939,0.3486 138.6999,0.3486 C137.6059,0.3486 136.7289,0.4526 136.0699,0.6616 C135.4099,0.8696 134.9509,1.2256 134.6899,1.7286 C134.4299,2.2336 134.2729,2.6836 134.2219,3.0836 C134.1689,3.4836 134.1429,4.0806 134.1429,4.8806 L134.1429,15.8156 C132.7189,14.0796 130.7229,13.2116 128.1539,13.2116 C125.0639,13.2116 122.2259,14.5836 119.6409,17.3246 C117.0539,20.0686 115.7609,23.2546 115.7609,26.8816 C115.7609,30.5096 117.0449,33.6856 119.6149,36.4116 C122.1829,39.1356 125.0289,40.4996 128.1539,40.4996 C130.7589,40.4996 132.7889,39.6666 134.2469,37.9996 C134.5239,39.7016 135.8699,40.5516 138.2829,40.5516 C140.6949,40.5516 142.1629,40.0826 142.6829,39.1446 C142.9609,38.6596 143.1259,38.2166 143.1779,37.8166 C143.2309,37.4186 143.2569,36.8186 143.2569,36.0196 L143.2569,4.9306 C143.2569,4.1336 143.2309,3.5336 143.1779,3.1356 C143.1259,2.7366 142.9699,2.2766 142.7099,1.7556" id="Fill-50" fill="#858381"></path>
        <path d="M168.4863,27.5057 C167.8093,26.3087 166.9673,25.4667 165.9603,24.9807 C163.8073,23.9047 161.5863,23.2447 159.2953,23.0017 C156.9333,22.6887 155.7543,22.0127 155.7543,20.9707 C155.7543,20.2077 156.7773,19.8247 158.8263,19.8247 C160.1453,19.8247 161.3683,20.0857 162.4973,20.6067 C163.6253,21.1267 164.3983,21.3877 164.8153,21.3877 C165.6133,21.3877 166.3943,20.7807 167.1583,19.5647 C167.9223,18.3497 168.3043,17.3257 168.3043,16.4917 C168.3043,15.6587 167.6963,14.9647 166.4813,14.4097 C163.8773,13.2297 161.3433,12.6387 158.8793,12.6387 C151.3443,12.6387 147.5783,15.3817 147.5783,20.8667 C147.5783,22.7067 147.9073,24.2957 148.5673,25.6317 C149.2263,26.9677 150.0603,27.9487 151.0673,28.5737 C153.2193,29.8937 155.3893,30.7087 157.5763,31.0217 C159.9023,31.3337 161.0653,31.8207 161.0653,32.4797 C161.0653,33.3127 160.0073,33.7297 157.8893,33.7297 C156.7083,33.7297 155.3893,33.3047 153.9313,32.4527 C152.4733,31.6027 151.3183,31.1777 150.4683,31.1777 C149.6173,31.1777 149.0013,31.4727 148.6193,32.0627 C147.2993,33.9037 146.6403,35.2737 146.6403,36.1767 C146.6403,37.0797 146.9703,37.7387 147.6313,38.1557 C150.7193,40.1007 153.9393,41.0717 157.2903,41.0717 C160.6403,41.0717 163.4263,40.5337 165.6483,39.4577 C166.8633,38.8327 167.8093,37.8867 168.4863,36.6197 C169.1633,35.3527 169.5013,33.8167 169.5013,32.0107 C169.5013,30.2057 169.1633,28.7037 168.4863,27.5057" id="Fill-52" fill="#858381"></path>
        <path d="M107.6875,-0.0001 C104.9925,-0.0001 102.8065,2.1859 102.8065,4.8819 C102.8065,7.5779 104.9925,9.7629 107.6875,9.7629 C110.3835,9.7629 112.5695,7.5779 112.5695,4.8819 C112.5695,2.1859 110.3835,-0.0001 107.6875,-0.0001" id="Fill-54" fill="#858381"></path>
        <path d="M15.2061,13.264 C12.8791,13.264 10.8491,14.323 9.1131,16.44 L9.1131,4.932 C9.1131,4.134 9.0871,3.535 9.0351,3.135 C8.9831,2.737 8.8181,2.276 8.5401,1.755 C8.0891,0.818 6.7691,0.349 4.5821,0.349 C2.3601,0.349 1.0061,0.818 0.5211,1.755 C0.2771,2.242 0.1301,2.684 0.0781,3.083 C0.0261,3.483 0.0001,4.081 0.0001,4.88 L0.0001,36.02 C0.0001,36.854 0.0261,37.461 0.0781,37.843 C0.1301,38.226 0.2771,38.677 0.5211,39.197 C1.0061,40.135 2.3431,40.603 4.5301,40.603 C6.7521,40.603 8.0891,40.152 8.5401,39.248 C8.8181,38.728 8.9831,38.269 9.0351,37.868 C9.0871,37.471 9.1131,36.871 9.1131,36.073 L9.1131,25.97 C9.2521,25.033 9.7901,24.191 10.7271,23.445 C11.6651,22.699 12.7491,22.325 13.9821,22.325 C15.2141,22.325 16.2291,22.724 17.0281,23.522 C17.8261,24.321 18.2261,25.432 18.2261,26.855 L18.2261,35.969 C18.2261,36.802 18.2521,37.427 18.3041,37.843 C18.3571,38.26 18.5211,38.728 18.7991,39.248 C19.3201,40.152 20.6391,40.603 22.7571,40.603 C24.9781,40.603 26.3151,40.152 26.7671,39.248 C27.0441,38.728 27.2091,38.269 27.2611,37.868 C27.3131,37.471 27.3391,36.871 27.3391,36.073 L27.3391,26.908 C27.3391,23.089 26.1851,19.86 23.8761,17.221 C21.5671,14.584 18.6771,13.264 15.2061,13.264" id="Fill-57" fill="#66C4DB"></path>
        <path d="M39.5483,14.097 C38.8533,13.507 37.6733,13.211 36.0063,13.211 C33.7843,13.211 32.4303,13.663 31.9453,14.566 C31.7013,15.086 31.5543,15.547 31.5023,15.945 C31.4503,16.345 31.4243,16.944 31.4243,17.742 L31.4243,36.02 C31.4243,36.854 31.4503,37.461 31.5023,37.843 C31.5543,38.226 31.7013,38.677 31.9453,39.197 C32.4303,40.135 33.7673,40.603 35.9553,40.603 C38.1763,40.603 39.5133,40.152 39.9643,39.248 C40.2423,38.728 40.4073,38.269 40.4593,37.868 C40.5113,37.471 40.5373,36.871 40.5373,36.073 L40.5373,17.846 C40.5373,17.187 40.5193,16.683 40.4853,16.336 C40.4503,15.329 40.1383,14.584 39.5483,14.097" id="Fill-59" fill="#66C4DB"></path>
        <path d="M61.4736,29.6683 C60.5886,30.5703 59.5116,31.0223 58.2446,31.0223 C56.9776,31.0223 55.9356,30.5623 55.1206,29.6423 C54.3046,28.7223 53.8966,27.7073 53.8966,26.5953 C53.8966,25.4833 54.2956,24.4603 55.0946,23.5223 C55.8926,22.5853 56.9606,22.1163 58.2976,22.1163 C59.6336,22.1163 60.7186,22.5773 61.5516,23.4973 C62.3846,24.4173 62.8016,25.4493 62.8016,26.5953 C62.8016,27.7393 62.3586,28.7653 61.4736,29.6683 M67.9046,17.2213 C65.3706,14.5483 62.6886,13.2113 59.8586,13.2113 C57.0296,13.2113 54.9556,14.1143 53.6366,15.9193 C53.5326,15.0183 53.1586,14.3313 52.5166,13.8623 C51.8736,13.3943 50.6326,13.1603 48.7936,13.1603 C46.9526,13.1603 45.7896,13.6273 45.3046,14.5653 C45.0606,15.0513 44.9136,15.4853 44.8616,15.8663 C44.8096,16.2503 44.7836,16.8393 44.7836,17.6383 L44.7836,51.3293 C44.7836,52.1273 44.8096,52.7183 44.8616,53.1013 C44.9136,53.4813 45.0696,53.9153 45.3306,54.4013 C45.5906,54.8883 46.0416,55.2353 46.6846,55.4433 C47.3266,55.6513 48.1856,55.7563 49.2616,55.7563 C50.3376,55.7563 51.1886,55.6513 51.8136,55.4433 C52.4386,55.2353 52.8816,54.8793 53.1416,54.3753 C53.4016,53.8723 53.5576,53.4303 53.6106,53.0483 C53.6626,52.6653 53.6886,52.0753 53.6886,51.2773 L53.6886,37.4793 C54.9726,39.0753 57.0376,39.8733 59.8856,39.8733 C62.7316,39.8733 65.4136,38.5373 67.9306,35.8633 C70.4476,33.1913 71.7066,30.0833 71.7066,26.5433 C71.7066,23.0013 70.4386,19.8953 67.9046,17.2213" id="Fill-61" fill="#66C4DB"></path>
        <path d="M35.981,-0.0001 C33.285,-0.0001 31.1,2.1859 31.1,4.8819 C31.1,7.5779 33.285,9.7629 35.981,9.7629 C38.677,9.7629 40.862,7.5779 40.862,4.8819 C40.862,2.1859 38.677,-0.0001 35.981,-0.0001" id="Fill-63" fill="#66C4DB"></path>
    </g>
</svg>