<svg id="Layer_1" data-name="Layer 1" xmlns="http://www.w3.org/2000/svg" viewBox="0 0 446.94 205.31"><defs><style>.cls-1{fill:#fff;}</style></defs><g id="Layer_2" data-name="Layer 2"><g id="Logo"><path class="cls-1" d="M429.7,145c3.29,0,7.36-.35,10.31-2.46,4.48-3.15,6.17-6.73,6.17-11.15,0-5.4-2.53-10-10.66-14.44l-2.53-1.4c-5.53-3.09-6.52-5.19-6.52-7.86,0-4.06,4-6.38,8.42-6.38,4,0,6,1.68,6.87,2.81a6.68,6.68,0,0,1,1.61,3.92c0,.71.21,1.06.63,1.06s.77-.63.77-1.9c0-4.69.21-6.38.21-7.15,0-.42-.28-.63-.84-.77a36.91,36.91,0,0,0-8.76-1c-8.56,0-15.57,4.69-15.57,12,0,5.26,2.39,9.26,9.68,13.53l3.57,2.1c5.47,3.23,6.11,5.82,6.11,8.42,0,4.2-3.23,7.57-8.56,7.57-3.86,0-8.48-1.47-9.82-5.89a11.16,11.16,0,0,1-.56-3.08c0-.42-.07-1-.63-1s-.77.63-.77,1.55-.35,4.7-.35,7.92c0,1.33.21,1.61,1.19,2,2.67,1.2,6.45,1.55,10,1.55M406.56,98.64a25.2,25.2,0,0,1-2.73,10.93,2.53,2.53,0,0,0-.36.92.41.41,0,0,0,.4.42h0a1.45,1.45,0,0,0,1.12-.56c3.15-3.23,7.71-10.73,7.71-15,0-1-.28-1.54-2-2A28.06,28.06,0,0,0,404.88,92c-.35,0-.77.35-.77.56s.07.56.77,1.26a7.54,7.54,0,0,1,1.68,4.84m-40.53,35c0,1,0,3.43-.21,6-.14,1.75-.63,2.87-1.89,3.15a9.86,9.86,0,0,1-2.17.21c-.71,0-1,.35-1,.63,0,.5.49.63,1.33.63,2.32,0,6.46-.21,8-.21s5.82.21,9.67.21c.85,0,1.34-.21,1.34-.63s-.35-.63-1.05-.63a22.81,22.81,0,0,1-3.09-.21c-1.82-.28-2.38-1.4-2.53-3.15-.13-2.53-.13-5-.13-6v-4.77a13.77,13.77,0,0,1,.77-6,206.65,206.65,0,0,1,12-19.07,8.32,8.32,0,0,1,3.22-2.81,7.49,7.49,0,0,1,2.67-.7c.7,0,1.19-.28,1.19-.7s-.42-.49-1.12-.49c-1.19,0-5.26.14-6.59.14-1.83,0-4-.14-6-.14-.7,0-1.05.14-1.05.56s.56.56,1.12.7c1,.21,1.33.77,1.33,1.33a7.94,7.94,0,0,1-.91,3.16c-.91,1.82-8.42,14.58-9.19,16-1-1.69-9.11-15.64-10.24-17.46a4.67,4.67,0,0,1-.77-2c0-.49.35-.77.84-.91,1-.28,1.41-.28,1.41-.77s-.35-.56-.91-.56c-2.81,0-5.68.14-7,.14-2,0-6.66-.14-7.71-.14-.77,0-1.19.14-1.19.56s.42.63.91.63a6.08,6.08,0,0,1,2.59.77c1.2.63,2.46,2,4,4.21,2.17,3.16,10.59,16.27,11,17.18a11.88,11.88,0,0,1,1.4,6.24Zm-85.68,4.62c-.28,2-.84,4.35-2.53,4.56a10.86,10.86,0,0,1-1.89.14c-.63,0-1,.28-1,.57,0,.56.49.69,1.12.69,2,0,4.91-.21,6.1-.21s3.93.21,6.52.21c.91,0,1.48-.13,1.48-.69,0-.29-.43-.57-1-.57a10.57,10.57,0,0,1-2.17-.28c-1.05-.21-1.89-.63-1.89-1.75a18.75,18.75,0,0,1,.21-2.8l2.94-23h.21c2,4.13,5.68,11.36,6.17,12.48.7,1.68,5.61,10.8,7.08,13.53,1,1.82,1.69,3,2.46,3s1-.57,2.45-3.37l13.25-26.36h.22l3.43,25.73c.21,1.68.07,2.38-.28,2.52s-.7.35-.7.63.35.63,1.82.7c2.46.15,11.22.36,12.76.36.92,0,1.62-.21,1.62-.71,0-.35-.42-.56-1-.56a12,12,0,0,1-3.51-.56c-1.89-.56-2.45-2.17-3-5.89L325.64,100c-.21-1.26-.91-1.89-1.4-1.89s-1.12.49-1.61,1.47L306.08,133l-16.55-33c-.84-1.61-1.26-1.89-1.89-1.89s-1.05.56-1.19,1.54Zm-50.63-12.4c-.21,0-.35-.15-.21-.43l6-14.86c.07-.21.14-.56.35-.56s.21.35.28.56L242,125.52c.07.21,0,.36-.28.36ZM243,129.12a.57.57,0,0,1,.63.42l4.77,12.06a1,1,0,0,1-.41,1.27l-.16.06c-.63.07-.77.28-.77.63s.7.42,1.83.5c5.19.13,9.67.13,11.85.13s2.66-.13,2.66-.63-.28-.63-.84-.63a15,15,0,0,1-2.32-.21c-1.12-.21-2.87-1-5.25-6.38-3.93-9-14.24-33.16-15.71-36.46-.63-1.33-.91-1.89-1.83-1.89-.63,0-1.12.7-1.82,2.38L219.48,137.6c-1.26,3-2.31,4.84-5.11,5.26-.57,0-1.27.07-1.83.07a.61.61,0,0,0-.69.51.49.49,0,0,0,0,.12c0,.5.35.63,1.12.63,3.23,0,6.52-.21,7.16-.21,2,0,4.84.21,6.87.21.63,0,1-.13,1-.63,0-.35-.14-.63-.91-.63h-.91c-1.9,0-2.46-.63-2.46-1.68a11,11,0,0,1,.91-3.65l3.3-8.06c.14-.35.21-.42.56-.42Zm-59.53-12.76c0-9,0-10.73.13-12.62.15-2.11.64-2.95,2.32-3.23a13.59,13.59,0,0,1,2.38-.21c.78,0,1.13-.21,1.13-.63s-.43-.56-1.34-.56c-2.38,0-7.43.14-8.9.14-1.68,0-5.61-.14-8.49-.14-.91,0-1.33.14-1.33.56s.35.63,1,.63a8.45,8.45,0,0,1,2,.21c2,.56,2.52,1.19,2.66,3.23s.07,3.57.07,12.62v10.51c0,5.48,0,10.17-.28,12.7-.21,1.75-.56,2.87-1.82,3.15a8.91,8.91,0,0,1-2.18.21c-.77,0-1,.35-1,.63s.42.63,1.2.63c1.26,0,2.8-.06,4.27-.13s2.81-.08,3.51-.08c2.52,0,5.12.08,8.2.15s6.66.21,11.08.21c3.23,0,3.51-.28,3.93-1.62a45.35,45.35,0,0,0,.91-6.87c0-.7-.14-1.33-.56-1.33s-.63.35-.7.91A7.21,7.21,0,0,1,200.2,139c-1.54,1.61-3.92,1.68-7.22,1.68-4.77,0-7.15-.35-8.2-1.26-1.33-1.12-1.33-4.91-1.33-12.56Zm-51.33,0c0-9,0-10.73.14-12.62.14-2.11.63-2.95,2.31-3.23a13.7,13.7,0,0,1,2.39-.21c.77,0,1.12-.21,1.12-.63s-.42-.56-1.33-.56c-2.39,0-7.43.14-8.91.14-1.68,0-5.61-.14-8.48-.14-.91,0-1.34.14-1.34.56s.35.63,1.06.63a8.45,8.45,0,0,1,2,.21c2,.56,2.53,1.19,2.66,3.23s.08,3.57.08,12.62v10.51c0,5.48,0,10.17-.28,12.7-.22,1.75-.56,2.87-1.83,3.15a8.78,8.78,0,0,1-2.17.21c-.77,0-1,.35-1,.63s.42.63,1.19.63c1.26,0,2.8-.06,4.27-.13s2.81-.08,3.51-.08c2.53,0,5.12.08,8.2.15s6.67.21,11.08.21c3.23,0,3.51-.28,3.93-1.62a45.35,45.35,0,0,0,.91-6.87c0-.7-.14-1.33-.56-1.33s-.63.35-.7.91a7.29,7.29,0,0,1-1.54,3.58c-1.54,1.61-3.93,1.68-7.22,1.68-4.77,0-7.16-.35-8.21-1.26-1.33-1.12-1.33-4.91-1.33-12.56Zm-59.9,10.51c0,5.48,0,10.17-.28,12.7-.21,1.75-.57,2.87-1.83,3.15a8.78,8.78,0,0,1-2.17.21c-.77,0-1,.35-1,.63s.42.63,1.19.63c1.26,0,2.81-.06,4.28-.13s2.8-.08,3.5-.08c1.83,0,4.14.08,7.16.15s6.73.21,11.35.21c2.32,0,2.88,0,3.3-1.55a40.55,40.55,0,0,0,.84-6.59c0-.63-.07-1.4-.56-1.4s-.56.28-.7.91c-.42,2.46-1.12,3.72-2.66,4.42a16.64,16.64,0,0,1-5.82.77c-6.31,0-8.21-.91-8.35-5-.07-1.75,0-6.8,0-8.83V122.3c0-.35.07-.63.35-.63,1.54,0,8.56.14,9.68.28,2.31.21,3.08,1.12,3.44,2.31.13.77.13,1.55.2,2.18,0,.28.15.49.56.49.57,0,.64-.84.64-1.34s.14-2.8.28-4c.35-3,.49-4,.49-4.35a.56.56,0,0,0-.49-.63c-.28,0-.49.35-1,.77a4.94,4.94,0,0,1-3,.91c-1.4.14-9.39.14-10.8.14-.35,0-.42-.28-.42-.63V103.11c0-.35.14-.57.42-.57,1.26,0,8.63.14,9.68.29,3.09.28,3.57,1.12,4.07,2.17a5.59,5.59,0,0,1,.42,2.17c0,.49.07.77.49.77s.63-.7.7-1c.14-.7.28-3.29.35-3.92A26.28,26.28,0,0,1,97,99.16c0-.28-.07-.56-.42-.56a7.08,7.08,0,0,0-1,.28,25.36,25.36,0,0,1-2.6.35c-1.19.07-14.86,0-16.82,0-1.76,0-5.68-.14-8.91-.14-.91,0-1.4.14-1.4.56s.42.63,1,.63a11.22,11.22,0,0,1,2.45.21c2,.56,2.53,1.19,2.67,3.23s.07,3.57.07,12.62ZM36.6,130.4c0,8.46-6.18,10.41-9.84,10.41a14.7,14.7,0,0,1-5.94-1c-2.6-1-2.82-2.41-2.82-7.81V112.75c0-.4.16-.57.48-.57,1.22,0,2,0,3.5.08,3.17.17,5.05.74,6.75,2,6.18,4.31,7.89,11.14,7.89,16.18M18,87.62c0-.9.16-1.22.73-1.39a13.36,13.36,0,0,1,2.68-.16c7,0,10.17,7.16,10.17,12.61,0,4-1.22,6.91-3.33,8.62-1.39,1.22-3.18,1.55-5.86,1.55a19.53,19.53,0,0,1-3.82-.25c-.33-.08-.57-.24-.57-.89Zm-9.76,33c0,7.48,0,13.91-.41,17.33-.32,2.36-.73,4.15-2.36,4.47a13.1,13.1,0,0,1-2.93.33c-1,0-1.3.24-1.3.65,0,.56.57.81,1.63.81,1.62,0,3.74-.16,5.61-.16S12.2,144,13.1,144c1.22,0,3.66.09,6.1.25s4.71.24,5.69.24c15,0,21.72-9,21.72-17.73,0-9.52-8.14-15.29-14.81-17.57,4.48-3.58,8.3-7.56,8.3-14.23,0-4.31-2.6-12.2-17.33-12.2-2.76,0-5.93.24-9.92.24-1.63,0-6.75-.24-11.06-.24-1.22,0-1.79.16-1.79.73s.49.73,1.38.73a16.12,16.12,0,0,1,3.18.25c2.68.56,3.33,1.87,3.49,4.63s.17,4.88.17,17.25Z" transform="translate(0)"/><path class="cls-1" d="M385.63,205.27c3.42,0,7.44-.3,9.54-1.14.9-.36,1.15-.6,1.38-1.49a45.85,45.85,0,0,0,1.15-6.79c0-.42-.25-.9-.61-.9s-.54.24-.66,1a8.28,8.28,0,0,1-1.79,3.42c-2.11,2.34-4.69,2.7-9.37,2.7-7.08,0-16.44-5.76-16.44-17.88,0-5,1-9.9,4.86-13.26,2.4-2,5.34-2.88,10-2.88,4.87,0,8.4,1.26,10.2,3a7.14,7.14,0,0,1,2,4.74c0,.66.12,1.08.54,1.08s.66-.54.73-1.26c0-1,0-3.84.18-5.52s.23-2.4.23-2.82-.18-.54-.77-.6c-1.57-.18-3.31-.54-5.29-.84a54.77,54.77,0,0,0-7.68-.54c-7.86,0-12.9,2-16.74,5.4a19,19,0,0,0-6.18,14c0,4.92,1.38,10.68,6.6,15.07,4.8,4,10.92,5.51,18.12,5.51m-53.58-15.48c0,4.92,0,9-.24,11.1-.18,1.5-.48,2.22-1.56,2.46a7.25,7.25,0,0,1-1.86.18c-.66,0-.84.3-.84.54s.36.54,1,.54c2.1,0,5.7-.18,6.9-.18,1.44,0,5,.18,8.52.18.6,0,1-.18,1-.54s-.24-.54-.84-.54a17.42,17.42,0,0,1-2.7-.18c-1.56-.24-1.92-1-2.1-2.4-.24-2.16-.24-6.24-.24-11.16v-9c0-7.74,0-9.18.12-10.8.12-1.8.54-2.52,2-2.76a6.85,6.85,0,0,1,1.56-.18c.54,0,.84-.12.84-.6,0-.3-.42-.42-1.08-.42-2,0-5.46.12-6.78.12-1.5,0-5.1-.12-7.08-.12-.84,0-1.26.12-1.26.42,0,.48.3.6.84.6a6.93,6.93,0,0,1,1.92.24c1.14.36,1.68,1,1.8,2.7s.06,3.06.06,10.8Zm-58.57-13h.18c1,.9,6.6,7.08,12.36,12.6,5.53,5.34,12.13,11.64,15.43,14.7a3.06,3.06,0,0,0,2.16,1.08c.42,0,.84-.48.84-1.62l.6-32.16c.06-2.88.48-3.78,1.92-4.2a5.52,5.52,0,0,1,1.62-.18c.6,0,.9-.24.9-.54s-.48-.48-1.2-.48c-2.58,0-4.56.12-5.16.12-1.14,0-4-.12-6.72-.12-.78,0-1.32.06-1.32.48s.18.54.84.54a8.87,8.87,0,0,1,2.76.3c1.26.48,1.74,1.38,1.8,4.5l.54,22.68h-.24c-.78-.72-7.8-7.92-11.4-11.46-7.68-7.5-15.61-15.6-16.27-16.26-.89-.9-1.62-1.68-2.27-1.68s-.91.72-.91,1.74l-.48,30.24c-.06,4.44-.24,5.82-1.62,6.18a10.65,10.65,0,0,1-2.39.24c-.49,0-.85.24-.85.54,0,.48.48.54,1.2.54,2.71,0,5.23-.18,5.7-.18,1,0,3.43.18,6.85.18.71,0,1.19-.11,1.19-.54s-.3-.54-.89-.54a8.65,8.65,0,0,1-2.77-.36c-1-.36-1.68-1.55-1.79-5.52Zm-48.06,12.06c-.18,0-.3-.12-.18-.36l5.1-12.72c.06-.18.12-.48.3-.48s.18.3.24.48l5,12.78c.06.18,0,.3-.24.3Zm11.34,2.82a.5.5,0,0,1,.54.36l4.08,10.32a.8.8,0,0,1-.33,1.08l-.15.06c-.54.06-.66.24-.66.54s.6.36,1.56.43c4.44.11,8.28.11,10.14.11s2.28-.11,2.28-.54-.24-.54-.72-.54a11.19,11.19,0,0,1-2-.18c-1-.18-2.46-.84-4.5-5.46-3.36-7.74-12.18-28.38-13.44-31.2-.54-1.14-.78-1.62-1.56-1.62-.54,0-1,.6-1.56,2l-13.78,32c-1.08,2.58-2,4.14-4.38,4.51-.48,0-1.08.05-1.56.05a.52.52,0,0,0-.59.43.41.41,0,0,0,0,.11c0,.43.3.54,1,.54,2.76,0,5.58-.18,6.12-.18,1.68,0,4.14.18,5.88.18.54,0,.84-.11.84-.54s-.12-.54-.78-.54h-.78c-1.62,0-2.1-.54-2.1-1.44A9.31,9.31,0,0,1,221,199l2.82-6.9c.12-.3.18-.36.48-.36Zm-40.26,3.84c0-2.52,0-4.56.06-6.12.06-1.8.6-2.52,2-2.76a7,7,0,0,1,1.44-.18.61.61,0,0,0,.66-.54c0-.42-.36-.48-1.08-.48-1.74,0-4.5.12-6.18.12s-5.34-.12-8.1-.12c-.72,0-1.14.06-1.14.48s.36.54.84.54a9.6,9.6,0,0,1,2,.18c1.68.48,2.22,1,2.28,2.76.06,1.56.06,3.48.06,6v4.68a1.69,1.69,0,0,1-1,1.8,8.6,8.6,0,0,1-3.72.54c-11.28,0-18.36-8-18.36-19,0-6.24,1.92-10,4.86-12.42,3.66-2.94,7.32-3,10.2-3,5.94,0,9.9,2.28,11.46,3.9a6.78,6.78,0,0,1,1.8,4.2c.06.42.18.66.54.66s.72-.36.72-1.14a69.34,69.34,0,0,1,.36-8.4c0-.36-.12-.54-.72-.6a42.3,42.3,0,0,1-4.2-.54,61.1,61.1,0,0,0-9.36-.84c-4.44,0-9.18.36-14.22,3.3a18.87,18.87,0,0,0-9.24,16.68c0,14.1,11.46,20,24.42,20,4.14,0,9.36-.54,12.9-2.28.66-.35.66-.42.66-1.8Zm-77.17-26c0-.42.12-.6.48-.72a18.09,18.09,0,0,1,3.12-.18c3.12,0,8,1.86,8,9.06,0,4.2-1.8,6.42-3.42,7.56-.9.66-1.62.84-3.72.84a14.19,14.19,0,0,1-4-.48c-.36-.18-.48-.36-.48-.9Zm-6.72,20.22c0,4.68,0,8.7-.24,10.86-.18,1.5-.48,2.46-1.56,2.7a7.25,7.25,0,0,1-1.86.18c-.66,0-.84.3-.84.54s.36.54,1,.54c2.1,0,5.46-.18,6.48-.18.78,0,5.16.18,8.22.18.66,0,1.08-.18,1.08-.54a.61.61,0,0,0-.66-.54,18.54,18.54,0,0,1-2.58-.18c-1.62-.24-1.86-1.2-2-2.7-.24-2.16-.3-6.12-.3-10.86V189a.38.38,0,0,1,.34-.42h.08l4.74.12a1.21,1.21,0,0,1,1,.36c.66.78,2.88,4.2,5,7,2.94,4,4.92,6.36,7.21,7.5,1.38.72,2.81,1,5.76,1h5c.65,0,1-.11,1-.54a.62.62,0,0,0-.66-.54,5.42,5.42,0,0,1-1.27-.12c-.84-.18-2.7-.42-5.63-3.36-3.19-3.18-6.91-7.8-11.59-13.56,5.16-4.14,7.33-7.5,7.33-11.28a8.9,8.9,0,0,0-3.72-7c-2.83-1.86-6.67-2.16-10-2.16-1.62,0-6.42.12-8.22.12-1.08,0-4.44-.12-7.2-.12-.78,0-1.2.12-1.2.48s.36.54.9.54a9.27,9.27,0,0,1,2.1.18c1.68.48,2.16,1,2.28,2.76s.06,3.06.06,10.8ZM72,202.51c-10,0-16-8.28-16-18.78C56,171.13,62.9,168,68.78,168c8.52,0,15.3,7,15.3,18.24,0,14.53-8.4,16.26-12.12,16.26m-2.16,2.76c13.62,0,22.14-9.18,22.14-20.88s-8.28-19.08-21.6-19.08c-16,0-22.14,11.28-22.14,20,0,9.06,6.24,20,21.6,20" transform="translate(0)"/><path class="cls-1" d="M225.52,58.84a8.81,8.81,0,0,1-3.52-.58c-1.55-.63-1.69-1.45-1.69-4.64V42.17c0-.24.09-.34.29-.34.72,0,1.2,0,2.07.05a6.93,6.93,0,0,1,4,1.16,11.49,11.49,0,0,1,4.69,9.62c0,5-3.67,6.18-5.85,6.18m-5.21-31.6c0-.53.09-.72.43-.82a7.68,7.68,0,0,1,1.59-.1c4.16,0,6,4.26,6,7.49,0,2.37-.72,4.11-2,5.13a4.91,4.91,0,0,1-3.48.91,12.31,12.31,0,0,1-2.27-.14c-.19-.05-.33-.15-.33-.54Zm8.21,12.81c2.66-2.13,4.93-4.5,4.93-8.46,0-2.56-1.55-7.25-10.29-7.25-1.65,0-3.53.15-5.9.15-1,0-3.26-.15-5.82-.15-.73,0-1.06.1-1.06.44s.29.43.82.43a3.09,3.09,0,0,1,1.13.15c1.59.33,2,1.11,2.08,2.75s.1,2.9.1,10.24v8.51c0,4.44,0,8.26-.24,10.29-.2,1.4-.44,2.47-1.4,2.66-.44.09-.27.19-1,.19-.57,0-.77.15-.77.39s.34.48,1,.48c1,0,1.47-.1,2.58-.1h2.76c.72,0,2.17,0,3.62.14s2.8.14,3.38.14c8.89,0,12.9-5.36,12.9-10.53,0-5.65-4.83-9.08-8.79-10.43" transform="translate(0)"/><path class="cls-1" d="M224.61,3a4.57,4.57,0,0,1-1.52,3,4.59,4.59,0,0,1-1.53-3,4.59,4.59,0,0,1,1.53-3,4.57,4.57,0,0,1,1.52,3" transform="translate(0)"/><path class="cls-1" d="M223.09,85.46a4.58,4.58,0,0,1-1.53-2.95,4.59,4.59,0,0,1,1.53-3,4.57,4.57,0,0,1,1.52,3" transform="translate(0)"/><path class="cls-1" d="M224.61,82.51a4.57,4.57,0,0,1-1.52,2.95" transform="translate(0)"/><path class="cls-1" d="M214.27,3.92a4.61,4.61,0,0,1-.71,3.25,4.57,4.57,0,0,1-2.24-2.46A4.55,4.55,0,0,1,212,1.46a4.57,4.57,0,0,1,2.24,2.46" transform="translate(0)"/><path class="cls-1" d="M234.15,84a4.56,4.56,0,0,1-2.24-2.47,4.61,4.61,0,0,1,.71-3.25,4.56,4.56,0,0,1,2.24,2.47" transform="translate(0)"/><path class="cls-1" d="M234.86,80.76a4.61,4.61,0,0,1-.71,3.25" transform="translate(0)"/><path class="cls-1" d="M204.52,7.52a4.56,4.56,0,0,1,.16,3.33,4.62,4.62,0,0,1-2.8-1.8,4.54,4.54,0,0,1-.16-3.32,4.51,4.51,0,0,1,2.8,1.79" transform="translate(0)"/><path class="cls-1" d="M244.3,76.41a4.56,4.56,0,0,1,.16,3.33,4.59,4.59,0,0,1-2.8-1.8,4.54,4.54,0,0,1-.16-3.32,4.61,4.61,0,0,1,2.8,1.79" transform="translate(0)"/><path class="cls-1" d="M196,13.53a4.54,4.54,0,0,1,1,3.17,4.55,4.55,0,0,1-3.17-1,4.57,4.57,0,0,1-1-3.16,4.54,4.54,0,0,1,3.17,1" transform="translate(0)"/><path class="cls-1" d="M252.29,69.78a4.54,4.54,0,0,1,1,3.17,3.63,3.63,0,0,1-4.18-3,3.45,3.45,0,0,1,0-1.2,4.54,4.54,0,0,1,3.17,1" transform="translate(0)"/><path class="cls-1" d="M196,13.53a4.54,4.54,0,0,1,1,3.17,4.53,4.53,0,0,1-3.16-1,4.53,4.53,0,0,1-1-3.16,4.54,4.54,0,0,1,3.17,1" transform="translate(0)"/><path class="cls-1" d="M252.29,69.78a4.54,4.54,0,0,1,1,3.17,3.64,3.64,0,0,1-4.18-3,3.89,3.89,0,0,1,0-1.18,4.54,4.54,0,0,1,3.17,1" transform="translate(0)"/><path class="cls-1" d="M189.41,21.52a4.61,4.61,0,0,1,1.79,2.8,4.59,4.59,0,0,1-3.32-.15,4.62,4.62,0,0,1-1.8-2.8,4.61,4.61,0,0,1,3.33.15" transform="translate(0)"/><path class="cls-1" d="M258.3,61.3a4.61,4.61,0,0,1,1.79,2.8,3.62,3.62,0,0,1-5.12-3,4.56,4.56,0,0,1,3.33.16" transform="translate(0)"/><path class="cls-1" d="M185.06,31a4.63,4.63,0,0,1,2.47,2.24,3.64,3.64,0,0,1-5.12-.5,3.56,3.56,0,0,1-.6-1,4.61,4.61,0,0,1,3.25-.71" transform="translate(0)"/><path class="cls-1" d="M261.9,51.55a4.57,4.57,0,0,1,2.46,2.24,3.62,3.62,0,0,1-5.71-1.53,4.61,4.61,0,0,1,3.25-.71" transform="translate(0)"/><path class="cls-1" d="M183.31,41.21a4.57,4.57,0,0,1,3,1.52,3.62,3.62,0,0,1-5.05.86,3.7,3.7,0,0,1-.86-.86,4.57,4.57,0,0,1,2.95-1.52" transform="translate(0)"/><path class="cls-1" d="M262.86,41.21a4.57,4.57,0,0,1,3,1.52,3.62,3.62,0,0,1-5.05.86,3.7,3.7,0,0,1-.86-.86,4.57,4.57,0,0,1,2.95-1.52" transform="translate(0)"/><path class="cls-1" d="M189.41,21.52a4.61,4.61,0,0,1,1.79,2.8,4.59,4.59,0,0,1-3.32-.15,4.62,4.62,0,0,1-1.8-2.8,4.61,4.61,0,0,1,3.33.15" transform="translate(0)"/><path class="cls-1" d="M258.3,61.3a4.61,4.61,0,0,1,1.79,2.8,3.62,3.62,0,0,1-5.12-3,4.56,4.56,0,0,1,3.33.16" transform="translate(0)"/><path class="cls-1" d="M185.06,31a4.63,4.63,0,0,1,2.47,2.24,3.64,3.64,0,0,1-5.12-.5,3.56,3.56,0,0,1-.6-1,4.61,4.61,0,0,1,3.25-.71" transform="translate(0)"/><path class="cls-1" d="M261.9,51.55a4.57,4.57,0,0,1,2.46,2.24,3.62,3.62,0,0,1-5.71-1.53,4.61,4.61,0,0,1,3.25-.71" transform="translate(0)"/><path class="cls-1" d="M183.31,41.21a4.57,4.57,0,0,1,3,1.52,3.62,3.62,0,0,1-5.05.86,3.7,3.7,0,0,1-.86-.86,4.57,4.57,0,0,1,2.95-1.52" transform="translate(0)"/><path class="cls-1" d="M262.86,41.21a4.57,4.57,0,0,1,3,1.52,3.62,3.62,0,0,1-5.05.86,3.7,3.7,0,0,1-.86-.86,4.57,4.57,0,0,1,2.95-1.52" transform="translate(0)"/><path class="cls-1" d="M184.27,51.55a4.58,4.58,0,0,1,3.26.71,3.65,3.65,0,0,1-4.69,2.13,3.8,3.8,0,0,1-1-.6,4.57,4.57,0,0,1,2.46-2.24" transform="translate(0)"/><path class="cls-1" d="M261.11,31a4.56,4.56,0,0,1,3.25.71,3.62,3.62,0,0,1-5.71,1.53A4.61,4.61,0,0,1,261.11,31" transform="translate(0)"/><path class="cls-1" d="M184.27,51.55a4.58,4.58,0,0,1,3.26.71,3.65,3.65,0,0,1-4.69,2.13,3.8,3.8,0,0,1-1-.6,4.57,4.57,0,0,1,2.46-2.24" transform="translate(0)"/><path class="cls-1" d="M261.11,31a4.56,4.56,0,0,1,3.25.71,3.62,3.62,0,0,1-5.71,1.53A4.61,4.61,0,0,1,261.11,31" transform="translate(0)"/><path class="cls-1" d="M187.88,61.3a4.54,4.54,0,0,1,3.32-.16,3.62,3.62,0,0,1-3.92,3.31,3.55,3.55,0,0,1-1.2-.31,4.62,4.62,0,0,1,1.8-2.8" transform="translate(0)"/><path class="cls-1" d="M256.77,21.52a4.61,4.61,0,0,1,3.33-.15,4.62,4.62,0,0,1-1.8,2.8,4.59,4.59,0,0,1-3.32.15,4.61,4.61,0,0,1,1.79-2.8" transform="translate(0)"/><path class="cls-1" d="M193.89,69.78a4.53,4.53,0,0,1,3.16-1,4.54,4.54,0,0,1-1,3.17,4.6,4.6,0,0,1-3.17,1,4.55,4.55,0,0,1,1-3.17" transform="translate(0)"/><path class="cls-1" d="M250.13,13.53a4.54,4.54,0,0,1,3.17-1,4.54,4.54,0,0,1-1,3.17,4.6,4.6,0,0,1-3.17,1,4.6,4.6,0,0,1,1-3.17" transform="translate(0)"/><path class="cls-1" d="M201.88,76.41a4.61,4.61,0,0,1,2.8-1.79,4.54,4.54,0,0,1-.16,3.32,4.59,4.59,0,0,1-2.8,1.8,4.56,4.56,0,0,1,.16-3.33" transform="translate(0)"/><path class="cls-1" d="M241.65,7.52a4.61,4.61,0,0,1,2.8-1.79,4.59,4.59,0,0,1-.15,3.32,4.62,4.62,0,0,1-2.8,1.8,4.61,4.61,0,0,1,.15-3.33" transform="translate(0)"/><path class="cls-1" d="M212,84a4.61,4.61,0,0,1-.71-3.25" transform="translate(0)"/><path class="cls-1" d="M211.32,80.76a4.56,4.56,0,0,1,2.24-2.47,4.61,4.61,0,0,1,.71,3.25A4.59,4.59,0,0,1,212,84" transform="translate(0)"/><path class="cls-1" d="M231.91,3.92a4.57,4.57,0,0,1,2.24-2.46,4.56,4.56,0,0,1,.71,3.25,4.57,4.57,0,0,1-2.24,2.46,4.61,4.61,0,0,1-.71-3.25" transform="translate(0)"/><path class="cls-1" d="M221,12.51a5.76,5.76,0,0,1-1.41,3.94A5.71,5.71,0,0,1,217.25,13a5.76,5.76,0,0,1,1.41-3.94A5.78,5.78,0,0,1,221,12.51" transform="translate(0)"/><path class="cls-1" d="M228.93,72.46a5.76,5.76,0,0,1-1.41,3.94,5.79,5.79,0,0,1-2.38-3.4,5.75,5.75,0,0,1,1.41-4,5.74,5.74,0,0,1,2.38,3.45" transform="translate(0)"/><path class="cls-1" d="M213.29,14.07a5.79,5.79,0,0,1-.34,4.17,5.78,5.78,0,0,1-3.2-2.71,5.79,5.79,0,0,1,.34-4.17,5.78,5.78,0,0,1,3.2,2.71" transform="translate(0)"/><path class="cls-1" d="M236.43,69.93a5.79,5.79,0,0,1-.34,4.17,5.78,5.78,0,0,1-3.2-2.71,5.79,5.79,0,0,1,.34-4.17,5.78,5.78,0,0,1,3.2,2.71" transform="translate(0)"/><path class="cls-1" d="M206.2,17.58a5.78,5.78,0,0,1,.8,4.12,5.74,5.74,0,0,1-3.78-1.79,5.73,5.73,0,0,1-.75-4.12,5.74,5.74,0,0,1,3.78,1.79" transform="translate(0)"/><path class="cls-1" d="M243,65.55a5.78,5.78,0,0,1,.75,4.12A5.76,5.76,0,0,1,240,67.88a5.78,5.78,0,0,1-.76-4.12A5.81,5.81,0,0,1,243,65.55" transform="translate(0)"/><path class="cls-1" d="M200.27,22.81a5.77,5.77,0,0,1,1.79,3.79,5.78,5.78,0,0,1-4.12-.76,5.74,5.74,0,0,1-1.79-3.78,5.78,5.78,0,0,1,4.12.75" transform="translate(0)"/><path class="cls-1" d="M248.24,59.62A5.76,5.76,0,0,1,250,63.41a5.78,5.78,0,0,1-4.12-.76,5.74,5.74,0,0,1-1.79-3.78,5.78,5.78,0,0,1,4.12.75" transform="translate(0)"/><path class="cls-1" d="M195.89,29.39a5.78,5.78,0,0,1,2.71,3.2,5.79,5.79,0,0,1-4.17.34,5.73,5.73,0,0,1-2.71-3.19,5.79,5.79,0,0,1,4.17-.35" transform="translate(0)"/><path class="cls-1" d="M251.75,52.53a5.78,5.78,0,0,1,2.71,3.2,4.58,4.58,0,0,1-6.31-1.47,4.69,4.69,0,0,1-.57-1.39,5.79,5.79,0,0,1,4.17-.34" transform="translate(0)"/><path class="cls-1" d="M193.36,36.89a5.74,5.74,0,0,1,3.45,2.38,4.59,4.59,0,0,1-6.49.18,4.51,4.51,0,0,1-.9-1.18,5.76,5.76,0,0,1,3.94-1.41" transform="translate(0)"/><path class="cls-1" d="M253.31,44.78a5.8,5.8,0,0,1,3.45,2.39,5.82,5.82,0,0,1-3.95,1.4,5.72,5.72,0,0,1-3.44-2.38,5.76,5.76,0,0,1,3.94-1.41" transform="translate(0)"/><path class="cls-1" d="M192.87,44.78a5.76,5.76,0,0,1,3.94,1.41,4.61,4.61,0,0,1-6.23,1.89,4.54,4.54,0,0,1-1.16-.89,5.8,5.8,0,0,1,3.45-2.39" transform="translate(0)"/><path class="cls-1" d="M252.81,36.89a5.76,5.76,0,0,1,3.95,1.41,4.59,4.59,0,0,1-6.21,1.9,4.51,4.51,0,0,1-1.18-.9,5.75,5.75,0,0,1,3.44-2.38" transform="translate(0)"/><path class="cls-1" d="M194.43,52.53a5.79,5.79,0,0,1,4.17.34,4.58,4.58,0,0,1-5.49,3.43,4.44,4.44,0,0,1-1.39-.57,5.78,5.78,0,0,1,2.71-3.2" transform="translate(0)"/><path class="cls-1" d="M250.29,29.39a5.79,5.79,0,0,1,4.17.35,5.79,5.79,0,0,1-2.71,3.19,5.79,5.79,0,0,1-4.17-.34,5.78,5.78,0,0,1,2.71-3.2" transform="translate(0)"/><path class="cls-1" d="M197.94,59.62a5.78,5.78,0,0,1,4.12-.75,5.74,5.74,0,0,1-1.79,3.78,5.78,5.78,0,0,1-4.12.76,5.77,5.77,0,0,1,1.79-3.79" transform="translate(0)"/><path class="cls-1" d="M245.91,22.81a5.78,5.78,0,0,1,4.12-.75,5.74,5.74,0,0,1-1.79,3.78,5.78,5.78,0,0,1-4.12.76,5.77,5.77,0,0,1,1.79-3.79" transform="translate(0)"/><path class="cls-1" d="M203.17,65.55A5.75,5.75,0,0,1,207,63.76a5.73,5.73,0,0,1-.75,4.12,5.74,5.74,0,0,1-3.78,1.79,5.73,5.73,0,0,1,.75-4.12" transform="translate(0)"/><path class="cls-1" d="M240,17.58a5.74,5.74,0,0,1,3.78-1.79,5.78,5.78,0,0,1-.75,4.12,5.74,5.74,0,0,1-3.78,1.79,5.73,5.73,0,0,1,.75-4.12" transform="translate(0)"/><path class="cls-1" d="M209.75,69.93a5.79,5.79,0,0,1,3.19-2.71,5.79,5.79,0,0,1,.35,4.17,5.78,5.78,0,0,1-3.2,2.71,5.79,5.79,0,0,1-.34-4.17" transform="translate(0)"/><path class="cls-1" d="M232.89,14.07a5.79,5.79,0,0,1,3.19-2.71,5.79,5.79,0,0,1,.35,4.17,5.78,5.78,0,0,1-3.2,2.71,5.79,5.79,0,0,1-.34-4.17" transform="translate(0)"/><path class="cls-1" d="M217.25,72.46A5.76,5.76,0,0,1,219.63,69,5.73,5.73,0,0,1,221,73a5.78,5.78,0,0,1-2.38,3.45,5.76,5.76,0,0,1-1.41-3.94" transform="translate(0)"/><path class="cls-1" d="M225.14,12.51a5.75,5.75,0,0,1,2.38-3.44A5.73,5.73,0,0,1,228.93,13a5.75,5.75,0,0,1-2.38,3.44,5.76,5.76,0,0,1-1.41-3.94" transform="translate(0)"/><path class="cls-1" d="M446.94,48.5c-.23.14-.46.27-.67.37a3.91,3.91,0,0,1-.81.29,3.76,3.76,0,0,1-1,.13,2.59,2.59,0,0,1-1.19-.27,2.11,2.11,0,0,1-.83-.74,1.88,1.88,0,0,1-.29-1,1.81,1.81,0,0,1,.34-1.1,2.12,2.12,0,0,1,.89-.73,2.78,2.78,0,0,1,1.2-.25,3.19,3.19,0,0,1,1.26.22,8,8,0,0,1,1.08.57V44a8.39,8.39,0,0,0-2.84-.56,5.77,5.77,0,0,0-1.6.22,4,4,0,0,0-1.34.7,3.11,3.11,0,0,0-.93,1.19,4.09,4.09,0,0,0-.32,1.66,4.17,4.17,0,0,0,.27,1.52A3.4,3.4,0,0,0,441,50a3.75,3.75,0,0,0,1.32.78A5.28,5.28,0,0,0,444,51a8.39,8.39,0,0,0,1-.06,5.74,5.74,0,0,0,1-.21,4.51,4.51,0,0,0,.94-.38Zm-11.48-4.94h-2.22v7.35h2.22Zm-7.12,0h-2.22v4.07l-3.8-4.07h-2v7.35h2.2V46.82l3.81,4.09h2Zm-17.55,4.58,1.08-2.68L413,48.14Zm2.3-4.58h-2.45l-3.26,7.35h2.28l.61-1.49h3.19l.6,1.49h2.27Zm-9.47,3.3h-2.93v1.48h1v.86a3.5,3.5,0,0,1-.91.12,2.66,2.66,0,0,1-1.27-.29,1.88,1.88,0,0,1-.78-.75,2,2,0,0,1-.26-1,2.43,2.43,0,0,1,.22-1,2,2,0,0,1,.8-.86,2.85,2.85,0,0,1,1.54-.36,4.36,4.36,0,0,1,1.39.19,6,6,0,0,1,1.06.49V44c-.5-.16-1-.29-1.39-.39a8.85,8.85,0,0,0-2.68-.07,4.35,4.35,0,0,0-1,.27,4.18,4.18,0,0,0-1,.59,2.79,2.79,0,0,0-.9,1.24,4.56,4.56,0,0,0-.29,1.59,3.75,3.75,0,0,0,.57,2.11,3.42,3.42,0,0,0,1.52,1.27,5.07,5.07,0,0,0,2.07.41,9.42,9.42,0,0,0,1.06-.06,8.37,8.37,0,0,0,1-.18l.46-.12.32-.11.41-.15Zm-14.3-.3a2.34,2.34,0,0,1-1.11.18h-.48V45h.47a2.4,2.4,0,0,1,1.09.2.77.77,0,0,1,.33.71.7.7,0,0,1-.3.68m2.57,2.76a5.15,5.15,0,0,0-.63-1.15,2.14,2.14,0,0,0-.58-.5,2.93,2.93,0,0,0,.53-.33,1.67,1.67,0,0,0,.46-.56,1.91,1.91,0,0,0,.21-.94,2.31,2.31,0,0,0-1.1-1.91,2.78,2.78,0,0,0-1.49-.37h-3.78v7.35h2.22V48H388a1.64,1.64,0,0,1,.62.09,1.38,1.38,0,0,1,.5.43,5,5,0,0,1,.57,1l.58,1.3h2.39Zm-13.28-1.11a1.61,1.61,0,0,1-.65.67,2.17,2.17,0,0,1-1,.24,1.86,1.86,0,0,1-1.4-.52,1.88,1.88,0,0,1-.52-1.37A1.79,1.79,0,0,1,377,45.38a2.08,2.08,0,0,1,.82.14,1.73,1.73,0,0,1,.6.39,1.59,1.59,0,0,1,.37.59,2.42,2.42,0,0,1,.12.76,2,2,0,0,1-.22,1m2.22-2.42a3.45,3.45,0,0,0-.78-1.21,3.5,3.5,0,0,0-1.32-.82,5.06,5.06,0,0,0-1.81-.3,4.54,4.54,0,0,0-2.31.53,3.37,3.37,0,0,0-1.41,1.39,4,4,0,0,0,0,3.7,3.58,3.58,0,0,0,1.41,1.4,5.35,5.35,0,0,0,4.59,0,3.47,3.47,0,0,0,1.42-1.37,4,4,0,0,0,.47-1.9,4.17,4.17,0,0,0-.26-1.44M359.65,49a2.7,2.7,0,0,1-1.51.42h-.94V45h.94a3.09,3.09,0,0,1,1,.17,1.66,1.66,0,0,1,.82.68,2.35,2.35,0,0,1,.35,1.39,1.89,1.89,0,0,1-.64,1.7m2.72-2.8a3.61,3.61,0,0,0-.45-1,3.83,3.83,0,0,0-.66-.73,3.3,3.3,0,0,0-.49-.34,4,4,0,0,0-.67-.3,5.34,5.34,0,0,0-.88-.2,7.79,7.79,0,0,0-1.18-.07H355v7.35h4a3.46,3.46,0,0,0,2.21-.62,3.93,3.93,0,0,0,1-1.11,3.45,3.45,0,0,0,.41-1.81,3.75,3.75,0,0,0-.17-1.2m-11.92,3.26h-3.32V47.86h3.08V46.38h-3.08V45h3.23V43.56H345v7.35h5.54ZM340,43.56h-2.22v7.35H340Zm-6.77,2.89h-3.05V45h3.05V43.56H328v7.35h2.21v-3h3.05Zm-10.16-2.89h-2.22v7.35h2.22Zm-6.57,0h-7.6v1.79h2.69v5.56h2.21V45.35h2.7Zm-13.95,3a2.34,2.34,0,0,1-1.11.18H301V45h.47a2.4,2.4,0,0,1,1.09.2.77.77,0,0,1,.33.71.7.7,0,0,1-.3.68m2.57,2.76a5.15,5.15,0,0,0-.63-1.15,2.14,2.14,0,0,0-.58-.5,2.62,2.62,0,0,0,.53-.33,1.67,1.67,0,0,0,.46-.56,1.91,1.91,0,0,0,.21-.94,2.31,2.31,0,0,0-1.1-1.91,2.69,2.69,0,0,0-1.49-.37h-3.78v7.35H301V48h.25a1.69,1.69,0,0,1,.63.09,1.35,1.35,0,0,1,.49.43,5,5,0,0,1,.57,1l.58,1.3h2.39Zm-10.9.11H290.9v-1.6H294V46.38h-3.1V45h3.24V43.56h-5.46v7.35h5.55Zm-10.08-.93a6.42,6.42,0,0,1-.68.37,4.36,4.36,0,0,1-1.81.42,2.59,2.59,0,0,1-1.19-.27,2.11,2.11,0,0,1-.83-.74,1.93,1.93,0,0,1,0-2.1,2.21,2.21,0,0,1,.9-.73,2.78,2.78,0,0,1,1.2-.25,3.19,3.19,0,0,1,1.26.22,8,8,0,0,1,1.08.57V44a8.39,8.39,0,0,0-2.84-.56,5.77,5.77,0,0,0-1.6.22,4,4,0,0,0-1.34.7,3,3,0,0,0-.92,1.19,3.8,3.8,0,0,0-.34,1.66,4.14,4.14,0,0,0,.28,1.52A3.41,3.41,0,0,0,278.2,50a3.61,3.61,0,0,0,1.32.78,5,5,0,0,0,1.72.27,8.39,8.39,0,0,0,1-.06,5.74,5.74,0,0,0,1-.21,4.51,4.51,0,0,0,.94-.38Z" transform="translate(0)"/><path class="cls-1" d="M167.48,49.43h-3.32V47.86h3.09V46.38h-3.09V45h3.23V43.56h-5.45v7.35h5.54ZM154.64,49a2.7,2.7,0,0,1-1.51.42h-.94V45h.94a3.09,3.09,0,0,1,1,.17,1.66,1.66,0,0,1,.82.68,2.42,2.42,0,0,1,.34,1.39,1.91,1.91,0,0,1-.63,1.7m2.72-2.8a3.61,3.61,0,0,0-.45-1,3.83,3.83,0,0,0-.66-.73,3.36,3.36,0,0,0-.49-.35,5.65,5.65,0,0,0-.67-.29,5.45,5.45,0,0,0-.89-.2A7.79,7.79,0,0,0,153,43.5h-3v7.35h4a3.48,3.48,0,0,0,2.21-.62,3.93,3.93,0,0,0,1-1.11,3.47,3.47,0,0,0,.41-1.81,4.4,4.4,0,0,0-.17-1.2m-17,2,1.09-2.68,1.08,2.68Zm2.31-4.58H140.3L137,50.91h2.27l.61-1.49h3.2l.6,1.49H146Zm-9.74,0h-2l-2.27,2.76-2.26-2.76h-2v7.35h2.15V46.65l2,2.47h.17l2-2.47v4.26H133Zm-19.71,0H111.1V47.6l-3.81-4.07h-2v7.35h2.2V46.82l3.82,4.09h2Zm-17.6,4.61,1.09-2.68,1.08,2.68ZM98,43.56H95.56l-3.25,7.35h2.27l.61-1.49h3.19L99,50.91h2.26Zm-9.73,0H86.06v7.35h2.22Zm-6.56,5.59H78.35V43.56H76.13v7.35h5.59Zm-15.15-1,1.09-2.68,1.07,2.68Zm2.3-4.58H66.42l-3.25,7.35h2.27l.61-1.49h3.19l.6,1.49h2.27Zm-12.2,3a2.34,2.34,0,0,1-1.11.18h-.48V45h.47a2.28,2.28,0,0,1,1.09.2.77.77,0,0,1,.33.71.73.73,0,0,1-.3.68m2.57,2.76a6.38,6.38,0,0,0-.62-1.15,1.86,1.86,0,0,0-.59-.49,3.67,3.67,0,0,0,.53-.34,1.67,1.67,0,0,0,.46-.56,1.91,1.91,0,0,0,.21-.94,2.31,2.31,0,0,0-.25-1,2.27,2.27,0,0,0-.84-.9,2.7,2.7,0,0,0-1.5-.37H52.87V51h2.21V48h.25a1.69,1.69,0,0,1,.63.09,1.35,1.35,0,0,1,.49.43,5.54,5.54,0,0,1,.58,1l.58,1.3H60Zm-10.7-5.79h-7.6v1.79h2.69v5.56h2.21V45.35h2.7ZM36.64,47.74a2.69,2.69,0,0,0-.8-.74,13.49,13.49,0,0,0-1.36-.71,4.4,4.4,0,0,1-.66-.39.47.47,0,0,1-.19-.38.49.49,0,0,1,.19-.39.91.91,0,0,1,.6-.16,2.54,2.54,0,0,1,1.18.26,6.15,6.15,0,0,1,1,.57V44.08a4.16,4.16,0,0,0-.47-.24,5.31,5.31,0,0,0-.86-.26,5.45,5.45,0,0,0-1.14-.12,3.21,3.21,0,0,0-1.46.29,2,2,0,0,0-.9.76,2.16,2.16,0,0,0-.29,1.08,2.09,2.09,0,0,0,.29,1.06,2.44,2.44,0,0,0,.75.75,6.33,6.33,0,0,0,1.06.56,3.81,3.81,0,0,1,.83.42.57.57,0,0,1,.29.5.53.53,0,0,1-.17.35c-.11.13-.35.19-.73.19a3.08,3.08,0,0,1-1.16-.23,7.53,7.53,0,0,1-1.09-.57v1.81a7.66,7.66,0,0,0,1.14.39,6.49,6.49,0,0,0,.88.16h.56a3.59,3.59,0,0,0,1.45-.27,2.37,2.37,0,0,0,1-.77,2,2,0,0,0,.35-1.2,1.88,1.88,0,0,0-.29-1M27,43.56H24.79v3.5a3,3,0,0,1-.21,1.19A1.49,1.49,0,0,1,24,49a1.78,1.78,0,0,1-.87.21,1.69,1.69,0,0,1-.88-.22,1.5,1.5,0,0,1-.58-.69,3,3,0,0,1-.22-1.3V43.56H19.23v4.06a3.07,3.07,0,0,0,2.08,3.08,5.31,5.31,0,0,0,1.81.32,5.53,5.53,0,0,0,1.34-.17,4.45,4.45,0,0,0,1.26-.56,2.94,2.94,0,0,0,.93-1A3.36,3.36,0,0,0,27,47.62ZM10.09,48.14l1.09-2.68,1.07,2.68Zm2.3-4.58H9.94L6.69,50.91H9l.61-1.49H12.8l.6,1.49h2.27Z" transform="translate(0)"/></g></g></svg>