<?xml version="1.0" encoding="utf-8"?>
<!-- Generator: Adobe Illustrator 25.4.1, SVG Export Plug-In . SVG Version: 6.00 Build 0)  -->
<svg version="1.1" id="Layer_1" xmlns="http://www.w3.org/2000/svg" xmlns:xlink="http://www.w3.org/1999/xlink" x="0px" y="0px"
	 viewBox="0 0 174.6 44.1" style="enable-background:new 0 0 174.6 44.1;" xml:space="preserve">
<style type="text/css">
	.st0{fill:#FFFFFF;}
</style>
<path class="st0" d="M77.4,9.2c-0.2-0.8-1-1.4-1.9-1.3h-0.8C73.9,7.9,73.2,8.3,73,9l-4.5,11.8c-0.2,0.4-0.3,0.9-0.3,1.3
	c0,0.8,0.6,1.5,1.4,1.5c0.1,0,0.1,0,0.2,0c0.7,0.1,1.3-0.3,1.5-0.9l0.9-2.5h5.6l0.9,2.5c0.2,0.6,0.9,1,1.6,0.9
	c0.9,0,1.6-0.6,1.6-1.5c-0.1-0.5-0.2-0.9-0.3-1.3L77.4,9.2z M73,17.8l2.1-6.1l0,0l2,6.1H73z"/>
<path class="st0" d="M86.7,23.6c1.5,0,2.9-0.7,3.8-1.9l0,0v0.4c0,0.9,0.4,1.5,1.4,1.5s1.4-0.6,1.4-1.5v-8.5c0.1-0.7-0.4-1.4-1.2-1.5
	c-0.1,0-0.3,0-0.4,0c-0.7-0.1-1.4,0.4-1.5,1.2c0,0.1,0,0.3,0,0.4v5.1c0,1.3-1,2.4-2.4,2.4c-1,0.1-1.9-0.7-2-1.7c0-0.1,0-0.3,0-0.4
	v-5.4c0.1-0.7-0.4-1.4-1.2-1.5c-0.1,0-0.3,0-0.4,0c-0.7-0.1-1.4,0.4-1.5,1.2c0,0.1,0,0.3,0,0.4v6C82.7,22.8,84.7,23.6,86.7,23.6"/>
<path class="st0" d="M99.7,21.5c-2.3,0-2.4-1.9-3.8-1.9c-0.7,0-1.2,0.5-1.3,1.1c0,0.1,0,0.1,0,0.2c0,1.5,2.3,2.8,5.1,2.8
	c2.3,0,4.8-1.1,4.8-3.6c0-2.1-2.1-2.9-3.9-3.3l-1.3-0.3c-1-0.2-1.7-0.4-1.7-1.1s0.7-0.9,1.8-0.9c2,0,2,1.4,3.2,1.4
	c0.7,0,1.3-0.6,1.3-1.3c0,0,0-0.1,0-0.1c0-1.4-2.4-2.3-4.7-2.3c-2.1,0-4.6,0.9-4.6,3.4c0,2.1,1.4,2.8,3.2,3.2l1.8,0.4
	c1.1,0.3,1.8,0.4,1.8,1.2S100.8,21.5,99.7,21.5"/>
<path class="st0" d="M110.6,21.5c-2.3,0-2.4-1.9-3.8-1.9c-0.7,0-1.2,0.5-1.3,1.1c0,0.1,0,0.1,0,0.2c0,1.5,2.3,2.8,5.1,2.8
	c2.3,0,4.8-1.1,4.8-3.6c0-2.1-2.1-2.9-3.9-3.3l-1.3-0.3c-1-0.2-1.7-0.4-1.7-1.1s0.7-0.9,1.8-0.9c2,0,2,1.4,3.2,1.4
	c0.7,0,1.3-0.6,1.3-1.3c0,0,0-0.1,0-0.1c0-1.4-2.4-2.3-4.7-2.3c-2.1,0-4.6,0.9-4.6,3.4c0,2.1,1.4,2.8,3.2,3.2l1.8,0.4
	c1.1,0.3,1.8,0.4,1.8,1.2S111.7,21.5,110.6,21.5"/>
<path class="st0" d="M118.7,11.1c0.9,0,1.6-0.7,1.6-1.6c0,0,0,0,0,0c0-0.9-0.7-1.6-1.6-1.6c0,0,0,0,0,0c-0.9,0-1.6,0.7-1.6,1.6
	c0,0,0,0,0,0C117,10.4,117.8,11.1,118.7,11.1C118.7,11.1,118.7,11.1,118.7,11.1"/>
<path class="st0" d="M117.1,13.6v8.5c-0.1,0.8,0.4,1.4,1.2,1.5c0.1,0,0.2,0,0.4,0c0.7,0.1,1.4-0.4,1.5-1.2c0-0.1,0-0.3,0-0.4v-8.5
	c0.1-0.7-0.4-1.4-1.2-1.5c-0.1,0-0.3,0-0.4,0c-0.7-0.1-1.4,0.4-1.5,1.2C117.1,13.4,117.1,13.5,117.1,13.6"/>
<path class="st0" d="M127.8,23.6c1.9,0,4.9-0.9,4.9-2.7c0-0.7-0.6-1.2-1.3-1.2c-1.3,0-1.3,1.5-3.6,1.5c-1.5,0.1-2.7-1-2.9-2.4
	c0-0.1,0-0.2,0-0.4h7c1,0,1.4-0.3,1.4-1.3c0-2.5-2-5-5.6-5s-5.9,2.4-5.9,6C121.8,20.8,123.5,23.7,127.8,23.6 M127.8,14.3
	c1.4,0,2.5,1.1,2.6,2.4H125C125.2,15.3,126.4,14.3,127.8,14.3"/>
<path class="st0" d="M78.2,33.3L78.2,33.3c1.3-0.5,2.2-1.7,2.1-3.1c0-3.3-3-3.9-5.6-3.9h-4.6c-1.2,0-2,0.5-2,2v11.1c0,1.5,0.8,2,2,2
	h5.1c3,0,5.6-1.3,5.6-4.5C81,35.3,79.9,33.7,78.2,33.3 M71.6,28.8h2.8c1.3,0,2.5,0.4,2.5,1.9c0,1.2-0.8,1.8-2.4,1.8h-2.9V28.8z
	 M74.5,38.8h-2.9v-4.1h2.5c1.7,0,3.3,0.2,3.3,2.1S75.9,38.8,74.5,38.8"/>
<path class="st0" d="M88,30.2c-1.5,0-2.2,1.3-2.6,2.6l0,0v-1.2c0.1-0.7-0.5-1.4-1.2-1.4c-0.1,0-0.1,0-0.2,0c-0.7,0-1.4,0.5-1.4,1.3
	c0,0.1,0,0.1,0,0.2v8.6c-0.1,0.8,0.4,1.4,1.2,1.5c0.1,0,0.2,0,0.4,0c0.7,0.1,1.4-0.4,1.5-1.2c0-0.1,0-0.3,0-0.4v-3.6
	c0-2.5,0.7-3.4,1.9-3.4h0.6c0.8,0.1,1.5-0.5,1.5-1.3c0-0.1,0-0.2,0-0.3c0-0.9-0.7-1.5-1.6-1.5C88.1,30.2,88.1,30.2,88,30.2"/>
<path class="st0" d="M95.4,30.2c-3.7,0-5.7,2.5-5.7,5.8c0,3.1,1.5,5.8,5.7,5.8s5.7-2.7,5.7-5.8c0.2-3-2-5.5-5-5.8
	C95.9,30.2,95.7,30.2,95.4,30.2 M95.4,39.4c-1.8,0-2.6-1.6-2.6-3.5s0.8-3.5,2.6-3.5s2.6,1.5,2.6,3.5S97.3,39.4,95.4,39.4"/>
<path class="st0" d="M112.8,33.3c0-2.2-2.1-3.1-5-3.1c-3.2,0-4.9,1.6-4.9,2.8c0,0.7,0.6,1.2,1.3,1.2c0,0,0,0,0,0
	c1.2,0,1.3-1.7,3.6-1.7c1,0,2,0.4,2,1.3s-0.6,1.1-1.3,1.1l-1.9,0.2c-2.4,0.3-4.3,1-4.3,3.5c0.1,1.8,1.6,3.2,3.5,3.1c0,0,0,0,0,0
	c1.6,0.1,3.2-0.6,4.2-1.8c-0.1,0.9,0.6,1.7,1.5,1.8c0.1,0,0.2,0,0.3,0c0.7,0.1,1.3-0.5,1.4-1.2c0,0,0,0,0,0c-0.2-0.7-0.3-1.3-0.4-2
	V33.3z M109.7,37.5c-0.1,1.4-1.3,2.4-2.7,2.2c0,0,0,0,0,0c-1.1,0-1.7-0.6-1.7-1.3c0-0.9,0.7-1.3,2-1.5l1.1-0.2
	c0.5,0,0.9-0.2,1.3-0.5L109.7,37.5z"/>
<path class="st0" d="M123.8,26c-0.8-0.1-1.5,0.5-1.5,1.3c0,0.1,0,0.2,0,0.3v4.2l0,0c-0.7-1-1.8-1.6-3-1.6c-3.3,0-4.8,2.8-4.8,5.7
	c0,4,2.3,5.8,4.9,5.8c1.4,0.1,2.7-0.7,3.3-1.9l0,0v0.5c-0.1,0.7,0.4,1.3,1.1,1.4c0.1,0,0.2,0,0.3,0c0.9,0,1.4-0.5,1.4-1.4V27.6
	c0.1-0.8-0.5-1.5-1.3-1.5C124,26,123.9,26,123.8,26 M119.9,39.3c-1.6-0.1-2.5-1.5-2.5-3.3c0-1.4,0.5-3.4,2.5-3.4s2.5,1.8,2.5,3.4
	C122.4,37.7,121.7,39.3,119.9,39.3"/>
<path class="st0" d="M133.4,30.2c-1.2-0.1-2.4,0.5-3.1,1.6l0,0v-4.2c0.1-0.8-0.5-1.5-1.3-1.5c-0.1,0-0.2,0-0.3,0
	c-0.8-0.1-1.5,0.5-1.5,1.2c0,0.1,0,0.2,0,0.3v12.7c0,0.9,0.4,1.4,1.4,1.4c0.7,0.1,1.3-0.4,1.4-1.1c0-0.1,0-0.2,0-0.3v-0.5l0,0
	c0.6,1.3,1.9,2.1,3.3,1.9c2.6,0,4.9-1.9,4.9-5.8C138.1,32.9,136.6,30.2,133.4,30.2 M132.6,39.3c-1.8,0-2.5-1.6-2.5-3.3
	c0-1.6,0.6-3.4,2.5-3.4s2.5,2,2.5,3.4C135,37.8,134.2,39.3,132.6,39.3"/>
<path class="st0" d="M149.8,33.3c0-2.2-2.1-3.1-5-3.1c-3.2,0-4.9,1.6-4.9,2.8c0,0.7,0.6,1.2,1.3,1.2c0,0,0,0,0,0
	c1.2,0,1.3-1.7,3.6-1.7c1,0,1.9,0.4,1.9,1.3s-0.6,1.1-1.3,1.1l-1.9,0.2c-2.4,0.3-4.3,1-4.3,3.5c0.1,1.8,1.6,3.2,3.5,3.1c0,0,0,0,0,0
	c1.6,0.1,3.2-0.6,4.2-1.8c-0.1,0.9,0.6,1.7,1.5,1.8c0.1,0,0.2,0,0.3,0c0.7,0.1,1.3-0.5,1.4-1.2c0,0,0,0,0,0c-0.2-0.7-0.3-1.3-0.4-2
	V33.3z M146.7,37.5c-0.1,1.4-1.3,2.4-2.7,2.2c0,0,0,0,0,0c-1.1,0-1.7-0.6-1.7-1.3c0-0.9,0.7-1.3,2-1.5l1.1-0.2
	c0.5,0,0.9-0.2,1.3-0.5L146.7,37.5z"/>
<path class="st0" d="M158.4,30.2c-1.5,0-2.9,0.7-3.8,1.9l0,0v-0.4c0-0.9-0.4-1.5-1.4-1.5s-1.4,0.6-1.4,1.5v8.5
	c-0.1,0.8,0.4,1.4,1.2,1.5c0.1,0,0.2,0,0.4,0c0.7,0.1,1.4-0.4,1.5-1.2c0-0.1,0-0.2,0-0.4v-5.1c0-1.3,1-2.4,2.4-2.4
	c1-0.1,1.9,0.7,2,1.7c0,0.1,0,0.3,0,0.4v5.4c-0.1,0.8,0.4,1.4,1.2,1.5c0.1,0,0.2,0,0.3,0c0.7,0.1,1.4-0.4,1.5-1.2c0-0.1,0-0.2,0-0.4
	v-6C162.3,31.1,160.3,30.2,158.4,30.2"/>
<path class="st0" d="M173.1,26c-0.8-0.1-1.5,0.5-1.5,1.3c0,0.1,0,0.2,0,0.3v4.2l0,0c-0.7-1-1.8-1.6-3.1-1.6c-3.3,0-4.8,2.8-4.8,5.7
	c0,4,2.3,5.8,4.9,5.8c1.4,0.1,2.7-0.7,3.3-1.9l0,0v0.5c-0.1,0.7,0.4,1.3,1.1,1.4c0.1,0,0.2,0,0.3,0c0.9,0,1.4-0.5,1.4-1.4V27.6
	c0.1-0.8-0.5-1.5-1.3-1.5C173.3,26,173.2,26,173.1,26 M169.2,39.3c-1.7-0.1-2.5-1.5-2.5-3.3c0-1.4,0.5-3.4,2.5-3.4s2.5,1.8,2.5,3.4
	C171.7,37.7,171,39.3,169.2,39.3"/>
<path class="st0" d="M9.4,8.4C8.6,7.8,7.4,7.9,6.8,8.6c0,0,0,0,0,0c-2.6,3-4.8,6.4-6.6,9.9c-0.5,0.9-0.1,2,0.8,2.5
	c0.3,0.1,0.5,0.2,0.8,0.2c0.7,0,1.3-0.4,1.7-1c1.7-3.3,3.7-6.4,6.1-9.2C10.3,10.3,10.2,9.1,9.4,8.4"/>
<path class="st0" d="M39.7,29.8c1.9-1,3.9-1.5,6-1.4c1.1,0,2.2,0.1,3.2,0.4c1.8,0.4,3.7-0.1,5-1.5c1.3-1.4,1.8-3.3,1.3-5.1
	c-0.5-1.8-1.9-3.2-3.8-3.6c-1.9-0.5-3.8-0.7-5.7-0.7c-6.4,0-12.6,2.6-17,7.3c-0.5,0.5-1.3,0.6-1.9,0.2c-0.4-0.2-0.6-0.7-0.7-1.1
	c-0.1-0.5,0.1-1,0.5-1.3c4.4-4.5,10.2-7.3,16.4-8c2.7-0.3,4.7-2.5,4.7-5.2c0-1.5-0.6-2.9-1.8-3.9c-1.1-1-2.6-1.5-4.1-1.3
	C29.1,5.7,17.9,13.5,12.3,25c-0.4,0.7-1.3,1-2,0.7c-0.4-0.2-0.7-0.5-0.8-0.9c-0.1-0.4-0.1-0.8,0.1-1.1C14.1,14.4,22,7.2,31.7,3.6
	c1-0.3,1.5-1.4,1.1-2.4c0,0,0,0,0,0c-0.3-1-1.4-1.5-2.4-1.1c0,0,0,0,0,0C19.8,4,11.1,11.9,6.2,22c-0.6,1.2-0.7,2.7-0.2,4
	c0.5,1.3,1.5,2.4,2.8,3c2.6,1.2,5.6,0.1,6.9-2.4C20.7,16.2,30.7,9.2,42.2,8c0.4-0.1,0.9,0.1,1.2,0.4c0.3,0.3,0.5,0.7,0.5,1.1
	c0,0.8-0.6,1.4-1.3,1.5c-7.1,0.8-13.7,4-18.7,9.1c-1.1,1.1-1.7,2.7-1.5,4.3c0.2,1.6,1.1,3,2.4,3.8c2.1,1.4,4.9,1,6.6-0.8
	c3.7-3.9,8.9-6.1,14.3-6.1c1.6,0,3.2,0.2,4.8,0.6c0.5,0.1,0.9,0.5,1.1,1c0.2,0.5,0,1.1-0.4,1.5c-0.4,0.4-0.9,0.5-1.4,0.4
	c-4-0.9-8.2-0.4-11.8,1.4c-1.4,0.7-2.5,2.1-2.8,3.7c-0.3,1.6,0.2,3.3,1.3,4.5c1,1.1,2.4,1.7,3.9,1.7c0.8,0,1.7-0.2,2.4-0.6
	c1.7-0.8,3.6-0.9,5.4-0.1c0.9,0.4,2,0,2.4-0.9c0,0,0,0,0,0c0.4-0.9,0-2-0.9-2.4c0,0,0,0,0,0c-2.7-1.2-5.9-1.1-8.5,0.2
	c-0.6,0.3-1.4,0.2-1.9-0.3c-0.3-0.4-0.5-0.9-0.4-1.3C39,30.4,39.3,30,39.7,29.8"/>
<path class="st0" d="M45.7,38.9c-1.4,0-2.6,1.2-2.6,2.6c0,1.4,1.2,2.6,2.6,2.6c1.4,0,2.6-1.2,2.6-2.6C48.3,40.1,47.1,38.9,45.7,38.9
	"/>
</svg>
