<?xml version="1.0" encoding="utf-8"?>
<!-- Generator: Adobe Illustrator 25.4.1, SVG Export Plug-In . SVG Version: 6.00 Build 0)  -->
<svg version="1.1" id="Layer_1" xmlns="http://www.w3.org/2000/svg" xmlns:xlink="http://www.w3.org/1999/xlink" x="0px" y="0px"
	 viewBox="0 0 374.6 75.6" style="enable-background:new 0 0 374.6 75.6;" xml:space="preserve">
<style type="text/css">
	.st0{fill:#FFFFFF;}
</style>
<path class="st0" d="M82.9,58.6L82.9,58.6H82c-2.2,0-4-1.7-4.2-3.8V0H84c2.2,0.1,4,1.9,4,4.2v45.6h16.3v4.7c0,2.2-1.7,4-3.9,4.1
	H82.9z M121.8,3.9c-0.2-2.2-2-3.8-4.2-3.8h-6v55.5c0,6.9-3.6,10.9-9.8,11.1h-3.5v8.9h3.5c9.6-0.2,20-6.4,20-19.5L121.8,3.9
	L121.8,3.9z M218.1,48.6c2.6-2.6,2.8-6.8,2.8-11.3s-0.2-8.6-2.8-11.2c-1.5-1.5-3.6-2.3-5.7-2.2c-2.1-0.1-4.2,0.7-5.6,2.2
	c-2.6,2.6-2.8,6.8-2.8,11.2s0.2,8.7,2.8,11.3c1.5,1.5,3.5,2.3,5.6,2.2C214.5,50.9,216.6,50.1,218.1,48.6 M230.2,37.3
	c0,7.4-0.8,12.5-4.8,16.6c-1.8,1.9-5.9,5.1-13.1,5.1c-6.8,0-10.8-2.8-13-5.2c-4-4.1-4.8-9.2-4.8-16.6s0.8-12.4,4.8-16.5
	c2.2-2.4,6.3-5.1,13-5.1c7.1,0,11.3,3.2,13.1,5.1C229.5,25,230.2,30,230.2,37.3 M258.9,48.6c2.6-2.6,2.8-6.8,2.8-11.3
	s-0.2-8.6-2.8-11.2c-1.5-1.5-3.6-2.3-5.7-2.2c-2.1-0.1-4.1,0.7-5.6,2.2c-2.6,2.5-2.8,6.8-2.8,11.2s0.2,8.7,2.8,11.3
	c1.5,1.5,3.5,2.3,5.6,2.2C255.3,50.9,257.4,50.1,258.9,48.6 M266.3,20.8c4,4.2,4.8,9.2,4.8,16.5s-0.8,12.4-4.8,16.6
	c-2.2,2.4-6.3,5.1-13.1,5.1s-10.8-2.8-13-5.2c-4-4.1-4.8-9.2-4.8-16.6s0.8-12.4,4.8-16.5c2.2-2.4,6.3-5.1,13-5.1
	S264.1,18.5,266.3,20.8 M302.5,58.6h10.9L297,33l14.9-16.9h-11.1L285,35.1V4.2c0-2.2-1.8-4.1-4-4.2h-5.3v54.4c0,2.3,1.8,4.1,4.1,4.1
	h5.2V46l6-6.7L302.5,58.6z M184,58.6h0.9l0,0h5V4.2c0-2.2-1.8-4.1-4-4.2h-6.1v24.6h-20V4.2c0-2.2-1.8-4.1-4-4.2h-6.1v54.5
	c0.1,2.2,1.9,4,4.2,4h0.9l0,0h5V33.4h20v21.2C179.9,56.8,181.8,58.6,184,58.6 M370,25.3h4.6v-9.1H370c-8.6,0-15.7,7-15.7,15.7v26.7
	h5c2.3,0,4.1-1.9,4.1-4.2v-1.6l0,0V31.9C363.5,28.3,366.4,25.3,370,25.3 M340.2,34.1v-0.9c0-1.7-0.4-3.4-1.1-5
	c-2.2-4.5-7.6-6.3-12-4.2c-1.8,0.9-3.3,2.3-4.2,4.2c-0.7,1.6-1.1,3.3-1.1,5v0.9H340.2z M349.4,39.1l-0.8,0.9h-26.7v0.8
	c0,6.4,4.1,10.6,10.4,10.6c4.9,0,7.4-1.4,10-3.8l5.5,5.4c-3.9,3.8-8,6.1-15.6,6.1c-13,0-19.5-7.3-19.5-21.7c0-13.4,7-21.7,18.4-21.7
	s18.4,7.9,18.4,20.2L349.4,39.1z"/>
<path class="st0" d="M0,0.5v53.6c-0.2,2.3,1.5,4.3,3.8,4.5c0.2,0,0.4,0,0.7,0h15V0.5H0z"/>
<rect x="19.5" y="0.5" class="st0" width="19.5" height="58.1"/>
<rect x="38.9" y="0.5" class="st0" width="19.5" height="58.1"/>
</svg>
