<svg id="layer" xmlns="http://www.w3.org/2000/svg" viewBox="0 0 599.9 237.3"><path d="M-241,545.4a1.42,1.42,0,0,0,1.3,1.4h0a1.37,1.37,0,0,0,1.4-1.4,1.37,1.37,0,0,0-1.4-1.4,1.49,1.49,0,0,0-1.3,1.4h0" transform="translate(578.8 -503.4)"/><path d="M-244.1,555.1a1.37,1.37,0,0,0,1.4,1.4,1.37,1.37,0,0,0,1.4-1.4,1.37,1.37,0,0,0-1.4-1.4,1.43,1.43,0,0,0-1.4,1.4h0" transform="translate(578.8 -503.4)"/><path d="M-242.4,550.3a1.37,1.37,0,0,0,1.4,1.4,1.37,1.37,0,0,0,1.4-1.4,1.37,1.37,0,0,0-1.4-1.4,1.37,1.37,0,0,0-1.4,1.4h0" transform="translate(578.8 -503.4)"/><path d="M-238.3,539.2a1.35,1.35,0,0,0-1.4,1.3,1.35,1.35,0,0,0,1.3,1.4,1.35,1.35,0,0,0,1.4-1.3h0a1.35,1.35,0,0,0-1.3-1.4" transform="translate(578.8 -503.4)"/><path d="M-232.1,539.1a1.22,1.22,0,0,0-1.2,1.2,1.29,1.29,0,0,0,1.2,1.2,1.22,1.22,0,0,0,1.2-1.2,1.16,1.16,0,0,0-1.2-1.2" transform="translate(578.8 -503.4)"/><path d="M-241.8,559.7a1.37,1.37,0,0,0,1.4-1.4,1.37,1.37,0,0,0-1.4-1.4,1.37,1.37,0,0,0-1.4,1.4h0a1.5,1.5,0,0,0,1.4,1.4" transform="translate(578.8 -503.4)"/><path d="M-229.5,537.4a1.11,1.11,0,0,0-1.1,1.1,1.11,1.11,0,0,0,1.1,1.1,1.11,1.11,0,0,0,1.1-1.1,1.18,1.18,0,0,0-1.1-1.1" transform="translate(578.8 -503.4)"/><path d="M-231.9,543.6a1.11,1.11,0,0,0,1.1,1.1,1.11,1.11,0,0,0,1.1-1.1,1.11,1.11,0,0,0-1.1-1.1,1.11,1.11,0,0,0-1.1,1.1h0" transform="translate(578.8 -503.4)"/><path d="M-235.9,537.5a1.32,1.32,0,0,0-1.3,1.3,1.32,1.32,0,0,0,1.3,1.3,1.32,1.32,0,0,0,1.3-1.3h0a1.21,1.21,0,0,0-1.3-1.3" transform="translate(578.8 -503.4)"/><path d="M-233.4,535.7a1.31,1.31,0,0,0-.8,1.6c.1.4.4.6.8.8a1.31,1.31,0,0,0,1.6-.8,1.31,1.31,0,0,0-.8-1.6,1.1,1.1,0,0,0-.8,0" transform="translate(578.8 -503.4)"/><path d="M-244,582.5a1.24,1.24,0,0,0,1.3-1.2,1.24,1.24,0,0,0-1.2-1.3,1.24,1.24,0,0,0-1.3,1.2h0a1.31,1.31,0,0,0,1.2,1.3" transform="translate(578.8 -503.4)"/><path d="M-245.8,595.6a1.11,1.11,0,0,0-1.1-1.1,1.11,1.11,0,0,0-1.1,1.1h0a1.11,1.11,0,0,0,1.1,1.1,1.11,1.11,0,0,0,1.1-1.1" transform="translate(578.8 -503.4)"/><path d="M-246.7,587.8a1.16,1.16,0,0,0-1.2,1.2,1.16,1.16,0,0,0,1.2,1.2,1.16,1.16,0,0,0,1.2-1.2,1.1,1.1,0,0,0-1.2-1.2h0" transform="translate(578.8 -503.4)"/><path d="M-246.7,591.1a1.22,1.22,0,0,0-1.2,1.2,1.22,1.22,0,0,0,1.2,1.2,1.16,1.16,0,0,0,1.2-1.2,1.29,1.29,0,0,0-1.2-1.2" transform="translate(578.8 -503.4)"/><path d="M-244.1,579.1a1.32,1.32,0,0,0,1.3-1.3h0a1.32,1.32,0,0,0-1.3-1.3,1.32,1.32,0,0,0-1.3,1.3h0a1.26,1.26,0,0,0,1.3,1.3h0" transform="translate(578.8 -503.4)"/><path d="M-246.7,584.4a1.32,1.32,0,0,0-1.3,1.3,1.32,1.32,0,0,0,1.3,1.3,1.32,1.32,0,0,0,1.3-1.3,1.32,1.32,0,0,0-1.3-1.3" transform="translate(578.8 -503.4)"/><path d="M-245,563.2a1.38,1.38,0,0,0,1.6,1.2,1.49,1.49,0,0,0,1.2-1.2,1.38,1.38,0,0,0-1.2-1.6,1.38,1.38,0,0,0-1.6,1.2v.4" transform="translate(578.8 -503.4)"/><path d="M-249.2,572.5a1.37,1.37,0,0,0,1.4,1.4,1.37,1.37,0,0,0,1.4-1.4,1.37,1.37,0,0,0-1.4-1.4,1.31,1.31,0,0,0-1.4,1.4h0" transform="translate(578.8 -503.4)"/><path d="M-247,567.9a1.37,1.37,0,0,0,1.4,1.4,1.37,1.37,0,0,0,1.4-1.4,1.37,1.37,0,0,0-1.4-1.4,1.37,1.37,0,0,0-1.4,1.4h0" transform="translate(578.8 -503.4)"/><path d="M-247.4,577.1a1.37,1.37,0,0,0,1.4-1.4h0a1.38,1.38,0,0,0-1.6-1.2,1.49,1.49,0,0,0-1.2,1.2,1.43,1.43,0,0,0,1.4,1.4h0" transform="translate(578.8 -503.4)"/><path d="M-247.1,599.9a1,1,0,0,0,1-1h0a1,1,0,0,0-1-1.1,1,1,0,0,0-1.1,1,1,1,0,0,0,1.1,1.1h0" transform="translate(578.8 -503.4)"/><path d="M-223.5,543.8a.82.82,0,0,0-1-.7.84.84,0,0,0-.7.7.82.82,0,0,0,1,.7.84.84,0,0,0,.7-.7" transform="translate(578.8 -503.4)"/><path d="M-232.6,553.8a1.11,1.11,0,0,0-1.1-1.1h0a1.22,1.22,0,0,0-1.2,1.2,1.16,1.16,0,0,0,1.2,1.2,1.3,1.3,0,0,0,1.1-1.3h0" transform="translate(578.8 -503.4)"/><path d="M-243.8,585.8a1.16,1.16,0,0,0,1.2-1.2,1.16,1.16,0,0,0-1.2-1.2,1.16,1.16,0,0,0-1.2,1.2h0a1.22,1.22,0,0,0,1.2,1.2" transform="translate(578.8 -503.4)"/><path d="M-232.8,558.4a1.11,1.11,0,0,0,1.1-1.1,1.11,1.11,0,0,0-1.1-1.1,1.11,1.11,0,0,0-1.1,1.1,1.11,1.11,0,0,0,1.1,1.1h0" transform="translate(578.8 -503.4)"/><path d="M-237.4,564.9a1.16,1.16,0,0,0,1.2-1.2,1.16,1.16,0,0,0-1.2-1.2,1.16,1.16,0,0,0-1.2,1.2h0a1.16,1.16,0,0,0,1.2,1.2" transform="translate(578.8 -503.4)"/><path d="M-234.3,558.8a1.2,1.2,0,0,0-1.1-1.2h0a1.16,1.16,0,0,0-.9,1.4,1.18,1.18,0,0,0,.9.9,1.18,1.18,0,0,0,1.1-1.1" transform="translate(578.8 -503.4)"/><path d="M-226,545.5a1,1,0,0,0-1-1h0a1,1,0,0,0-1,1,1,1,0,0,0,1,1,1.17,1.17,0,0,0,1-1h0" transform="translate(578.8 -503.4)"/><path d="M-239.4,569.7a1.24,1.24,0,0,0,1.4-1.1,1.24,1.24,0,0,0-1.1-1.4h-.3a1.32,1.32,0,0,0-1.1,1.4,1.18,1.18,0,0,0,1.1,1.1" transform="translate(578.8 -503.4)"/><path d="M-230,552.3a1.11,1.11,0,0,0-1.1-1.1,1.11,1.11,0,0,0-1.1,1.1h0a1.11,1.11,0,0,0,1.1,1.1,1.27,1.27,0,0,0,1.1-1.1" transform="translate(578.8 -503.4)"/><path d="M-225.8,549.9a.9.9,0,0,0,.9-.9.9.9,0,0,0-.9-.9.9.9,0,0,0-.9.9h0a.9.9,0,0,0,.9.9" transform="translate(578.8 -503.4)"/><path d="M-228.5,547.1a1,1,0,0,0-1-1,1,1,0,0,0-1,1,1.08,1.08,0,0,0,1,1h0a1,1,0,0,0,1-1h0" transform="translate(578.8 -503.4)"/><path d="M-228.5,551.7a1,1,0,0,0,.8-1.1c-.1-.4-.4-.8-.8-.8a1,1,0,0,0-.8,1.1,1.09,1.09,0,0,0,.8.8" transform="translate(578.8 -503.4)"/><path d="M-229.2,541.9a1,1,0,0,0,1,1,1.11,1.11,0,0,0,.9-1.2,1.18,1.18,0,0,0-.9-.9,1.09,1.09,0,0,0-1,1.1h0" transform="translate(578.8 -503.4)"/><path d="M-224.6,534a.9.9,0,0,0-.9.9h0a.9.9,0,0,0,.9.9.9.9,0,0,0,.9-.9.9.9,0,0,0-.9-.9" transform="translate(578.8 -503.4)"/><path d="M-223.2,548.4a.86.86,0,0,0,.8-.8h0a.86.86,0,0,0-.8-.8.86.86,0,0,0-.8.8.86.86,0,0,0,.8.8h0" transform="translate(578.8 -503.4)"/><path d="M-223.2,537.6a.82.82,0,0,0-.8.9.82.82,0,0,0,1,.7.85.85,0,0,0,.7-.7.9.9,0,0,0-.9-.9" transform="translate(578.8 -503.4)"/><path d="M-227.1,535.7a1,1,0,0,0-.8,1.1c.1.4.4.8.8.8a.94.94,0,0,0,1.1-.8.94.94,0,0,0-.8-1.1h-.3" transform="translate(578.8 -503.4)"/><path d="M-226.6,540.2a.9.9,0,0,0,.9.9.9.9,0,0,0,.9-.9.9.9,0,0,0-.9-.9h0a.9.9,0,0,0-.9.9" transform="translate(578.8 -503.4)"/><path d="M-238.9,565.1a1.32,1.32,0,0,0-1.3-1.3h0a1.24,1.24,0,0,0-1.1,1.4,1.27,1.27,0,0,0,1.1,1.1,1.18,1.18,0,0,0,1.3-1.2" transform="translate(578.8 -503.4)"/><path d="M-242.3,571.1a1.26,1.26,0,0,0,1.3-1.3h0a1.32,1.32,0,0,0-1.3-1.3,1.32,1.32,0,0,0-1.3,1.3h0a1.32,1.32,0,0,0,1.3,1.3h0" transform="translate(578.8 -503.4)"/><path d="M-242.2,561.7a1.34,1.34,0,0,0,1.1,1.5,1.34,1.34,0,0,0,1.5-1.1v-.4a1.34,1.34,0,0,0-1.5-1.1,1.27,1.27,0,0,0-1.1,1.1" transform="translate(578.8 -503.4)"/><path d="M-246.4,571.1a1.35,1.35,0,0,0,1.3,1.4,1.35,1.35,0,0,0,1.4-1.3,1.35,1.35,0,0,0-1.3-1.4h0a1.35,1.35,0,0,0-1.4,1.3h0" transform="translate(578.8 -503.4)"/><path d="M-244.1,566.5a1.32,1.32,0,0,0,1.3,1.3h0a1.34,1.34,0,0,0,1.5-1.2,1.34,1.34,0,0,0-1.2-1.5h-.4a1.34,1.34,0,0,0-1.2,1.4h0" transform="translate(578.8 -503.4)"/><path d="M-226.5,559a.9.9,0,0,0,.9-.9.9.9,0,0,0-.9-.9.9.9,0,0,0-.9.9.9.9,0,0,0,.9.9" transform="translate(578.8 -503.4)"/><path d="M-215.7,532.5a.65.65,0,0,0-.6.6.65.65,0,0,0,.6.6.65.65,0,0,0,.6-.6.65.65,0,0,0-.6-.6" transform="translate(578.8 -503.4)"/><path d="M-215.4,542.1a.65.65,0,0,0-.6.6.58.58,0,0,0,.6.6.65.65,0,0,0,.6-.6.65.65,0,0,0-.6-.6" transform="translate(578.8 -503.4)"/><path d="M-216.7,538.1a.65.65,0,0,0-.6.6h0a.58.58,0,0,0,.6.6h0a.58.58,0,0,0,.6-.6h0a.65.65,0,0,0-.6-.6h0" transform="translate(578.8 -503.4)"/><path d="M-217.2,528.7a.62.62,0,0,0-.5.8c.1.3.3.5.5.5a.62.62,0,0,0,.5-.8c-.1-.3-.3-.5-.5-.5" transform="translate(578.8 -503.4)"/><path d="M-215.7,553a.63.63,0,0,0,.6-.5h0a.57.57,0,0,0-.4-.7.57.57,0,0,0-.7.4v.2a.56.56,0,0,0,.5.6" transform="translate(578.8 -503.4)"/><path d="M-216.2,548.3a.65.65,0,0,0-.6-.6.65.65,0,0,0-.6.6.65.65,0,0,0,.6.6.58.58,0,0,0,.6-.6" transform="translate(578.8 -503.4)"/><path d="M-221.1,556a.68.68,0,0,0,.7-.7h0a.68.68,0,0,0-.7-.7h0a.68.68,0,0,0-.7.7h0a.68.68,0,0,0,.7.7" transform="translate(578.8 -503.4)"/><path d="M-218.7,549.9a.68.68,0,0,0-.7-.7.68.68,0,0,0-.7.7.68.68,0,0,0,.7.7h0a.68.68,0,0,0,.7-.7" transform="translate(578.8 -503.4)"/><path d="M-217.4,558.5a.65.65,0,0,0,.6-.6.65.65,0,0,0-.6-.6.65.65,0,0,0-.6.6.58.58,0,0,0,.6.6" transform="translate(578.8 -503.4)"/><path d="M-218.4,554.6a.58.58,0,0,0,.6-.6h0a.58.58,0,0,0-.6-.6h0a.65.65,0,0,0-.6.6.65.65,0,0,0,.6.6h0" transform="translate(578.8 -503.4)"/><path d="M-218.8,534.9a.68.68,0,0,0,.7.7.68.68,0,0,0,.7-.7.68.68,0,0,0-.7-.7h0a.68.68,0,0,0-.7.7" transform="translate(578.8 -503.4)"/><path d="M-220.2,560a.69.69,0,0,0,.8-.5.75.75,0,0,0-.5-.8h-.2a.62.62,0,0,0-.5.8.66.66,0,0,0,.4.5" transform="translate(578.8 -503.4)"/><path d="M-227,531.3a1,1,0,0,0,1,1,1,1,0,0,0,1-1,1,1,0,0,0-1-1,1.07,1.07,0,0,0-1,1" transform="translate(578.8 -503.4)"/><path d="M-243.8,590.4a1.11,1.11,0,0,0-1.1,1.1,1.11,1.11,0,0,0,1.1,1.1,1.11,1.11,0,0,0,1.1-1.1,1,1,0,0,0-1.1-1.1h0" transform="translate(578.8 -503.4)"/><path d="M-229.5,533.3a1.11,1.11,0,0,0,1.1,1.1,1.11,1.11,0,0,0,1.1-1.1,1.11,1.11,0,0,0-1.1-1.1,1,1,0,0,0-1.1,1.1h0" transform="translate(578.8 -503.4)"/><path d="M-227.6,527a1,1,0,0,0-1,1,1,1,0,0,0,1,1,1,1,0,0,0,1-1h0a.94.94,0,0,0-1-1" transform="translate(578.8 -503.4)"/><path d="M-223.6,528.6a.9.9,0,0,0-.9.9.9.9,0,0,0,.9.9.9.9,0,0,0,.9-.9h0a1.06,1.06,0,0,0-.9-.9h0" transform="translate(578.8 -503.4)"/><path d="M-222.9,533a.82.82,0,0,0,.7,1,.82.82,0,0,0,1-.7V533a.82.82,0,0,0-1-.7.84.84,0,0,0-.7.7" transform="translate(578.8 -503.4)"/><path d="M-218.8,525a.68.68,0,0,0-.7.7h0a.78.78,0,0,0,.9.6.9.9,0,0,0,.6-.6.85.85,0,0,0-.8-.7h0" transform="translate(578.8 -503.4)"/><path d="M-221.4,536.7a.77.77,0,0,0,.7.8h0a.77.77,0,0,0,.8-.7.77.77,0,0,0-.7-.8.66.66,0,0,0-.8.7h0" transform="translate(578.8 -503.4)"/><path d="M-220.4,531.2a.68.68,0,0,0,.7.7h0a.68.68,0,0,0,.7-.7.68.68,0,0,0-.7-.7.68.68,0,0,0-.7.7h0" transform="translate(578.8 -503.4)"/><path d="M-221.2,526.8a1,1,0,0,0-.7.9,1,1,0,0,0,.7.7.74.74,0,0,0,.9-.7.74.74,0,0,0-.7-.9h-.2" transform="translate(578.8 -503.4)"/><path d="M-225.2,525.1a1,1,0,0,0-1,1,1,1,0,0,0,1,1,1,1,0,0,0,1-1,1.17,1.17,0,0,0-1-1" transform="translate(578.8 -503.4)"/><path d="M-234,567a1.11,1.11,0,0,0,1.1-1.1,1,1,0,0,0-1.2-.9c-.5.1-.9.4-.9.9a1,1,0,0,0,1,1.1" transform="translate(578.8 -503.4)"/><path d="M-240.9,584.8a1.11,1.11,0,0,0,1.1-1.1h0a1.11,1.11,0,0,0-1.1-1.1h0a1.11,1.11,0,0,0-1.1,1.1,1.11,1.11,0,0,0,1.1,1.1" transform="translate(578.8 -503.4)"/><path d="M-234.7,563.4a1.22,1.22,0,0,0,1.2-1.2,1.22,1.22,0,0,0-1.2-1.2,1.22,1.22,0,0,0-1.2,1.2,1.29,1.29,0,0,0,1.2,1.2h0" transform="translate(578.8 -503.4)"/><path d="M-221.3,551.4a.79.79,0,0,0-.8-.8h0a.68.68,0,0,0-.7.7h0a.77.77,0,0,0,.7.8h0a.77.77,0,0,0,.8-.7h0" transform="translate(578.8 -503.4)"/><path d="M-241.1,581.3a1.22,1.22,0,0,0,1.2-1.2,1.29,1.29,0,0,0-1.2-1.2,1.22,1.22,0,0,0-1.2,1.2,1.29,1.29,0,0,0,1.2,1.2" transform="translate(578.8 -503.4)"/><path d="M-237.8,572a1.22,1.22,0,0,0-1.2-1.2,1.16,1.16,0,0,0-.9,1.4,1.18,1.18,0,0,0,.9.9,1.08,1.08,0,0,0,1.2-1.1" transform="translate(578.8 -503.4)"/><path d="M-243.7,586.9a1.11,1.11,0,0,0-1.1,1.1,1.11,1.11,0,0,0,1.1,1.1,1.11,1.11,0,0,0,1.1-1.1,1.11,1.11,0,0,0-1.1-1.1h0" transform="translate(578.8 -503.4)"/><path d="M-243.9,593.8a1,1,0,0,0-1,1h0a1,1,0,0,0,1,1,1.08,1.08,0,0,0,1-1,1,1,0,0,0-1-1h0" transform="translate(578.8 -503.4)"/><path d="M-241.4,577.8a1.16,1.16,0,0,0,1.2-1.2,1.16,1.16,0,0,0-1.2-1.2,1.16,1.16,0,0,0-1.2,1.2,1.22,1.22,0,0,0,1.2,1.2h0" transform="translate(578.8 -503.4)"/><path d="M-240.5,573.2a1.32,1.32,0,0,0-1.3-1.3,1.32,1.32,0,0,0-1.3,1.3,1.32,1.32,0,0,0,1.3,1.3h0a1.4,1.4,0,0,0,1.3-1.3h0" transform="translate(578.8 -503.4)"/><path d="M-235.6,567.2a1.22,1.22,0,0,0-1.2-1.2,1.16,1.16,0,0,0-1.2,1.2,1.22,1.22,0,0,0,1.2,1.2,1.16,1.16,0,0,0,1.2-1.2h0" transform="translate(578.8 -503.4)"/><path d="M-225.7,562.8a.82.82,0,0,0,.7-1,.85.85,0,0,0-.7-.7.82.82,0,0,0-1,.7.82.82,0,0,0,.7,1h.3" transform="translate(578.8 -503.4)"/><path d="M-223.9,552.9c0-.5-.4-.8-.9-.9a.82.82,0,0,0-.8.9.79.79,0,0,0,.8.8h0a.82.82,0,0,0,.9-.8" transform="translate(578.8 -503.4)"/><path d="M-232,562a1,1,0,0,0,1-1,1,1,0,0,0-1-1h0a1,1,0,0,0-1,1,1.08,1.08,0,0,0,1,1" transform="translate(578.8 -503.4)"/><path d="M-222.9,561.4a.68.68,0,0,0,.7-.7.68.68,0,0,0-.7-.7h0a.68.68,0,0,0-.7.7h0a.68.68,0,0,0,.7.7h0" transform="translate(578.8 -503.4)"/><path d="M-223.8,557.5a.86.86,0,0,0,.8-.8.86.86,0,0,0-.8-.8.86.86,0,0,0-.8.8h0a.79.79,0,0,0,.8.8" transform="translate(578.8 -503.4)"/><path d="M-239.1,558.1a1.34,1.34,0,0,0,1.5-1.1,1.34,1.34,0,0,0-1.1-1.5h-.3a1.34,1.34,0,0,0-1.1,1.5,1.1,1.1,0,0,0,1,1.1" transform="translate(578.8 -503.4)"/><path d="M-229.1,555.9a1,1,0,0,0-.9-1.2,1,1,0,0,0-1.2.9v.3a1.11,1.11,0,0,0,1.2.9,1.18,1.18,0,0,0,.9-.9" transform="translate(578.8 -503.4)"/><path d="M-229.2,560.5a1,1,0,0,0,1-1h0a1,1,0,0,0-.9-1h0a1,1,0,0,0-1,1,.83.83,0,0,0,.9,1h0" transform="translate(578.8 -503.4)"/><path d="M-228.4,564.2a.9.9,0,0,0,.9-.9.9.9,0,0,0-.9-.9.9.9,0,0,0-.9.9h0c-.1.5.4.9.9.9" transform="translate(578.8 -503.4)"/><path d="M-226.5,554.4a.9.9,0,0,0-.9-.9.9.9,0,0,0-.9.9.9.9,0,0,0,.9.9h0a.9.9,0,0,0,.9-.9" transform="translate(578.8 -503.4)"/><path d="M-235.3,577a1,1,0,0,0-1,1h0a1,1,0,0,0,1,1,1.08,1.08,0,0,0,1-1,1.08,1.08,0,0,0-1-1h0" transform="translate(578.8 -503.4)"/><path d="M-262.6,609.9a1.28,1.28,0,0,0-1.1-1.2,1.28,1.28,0,0,0-1.2,1.1,1.28,1.28,0,0,0,1.1,1.2h0a1.13,1.13,0,0,0,1.2-1.1" transform="translate(578.8 -503.4)"/><path d="M-264.3,607.4a1.3,1.3,0,0,0,1.2,1.3,1.3,1.3,0,0,0,1.3-1.2,1.3,1.3,0,0,0-1.2-1.3h0a1.13,1.13,0,0,0-1.3,1.2" transform="translate(578.8 -503.4)"/><path d="M-267.3,614.8a.9.9,0,0,0-.9-.9.9.9,0,0,0-.9.9.9.9,0,0,0,.9.9h0c.5,0,.8-.4.9-.9" transform="translate(578.8 -503.4)"/><path d="M-261.3,604.8a1.32,1.32,0,0,0-1.3-1.3,1.32,1.32,0,0,0-1.3,1.3,1.32,1.32,0,0,0,1.3,1.3h0a1.4,1.4,0,0,0,1.3-1.3" transform="translate(578.8 -503.4)"/><path d="M-263.4,612.4a.94.94,0,0,0-.8-1.1.94.94,0,0,0-1.1.8v.3a.94.94,0,0,0,.8,1.1.94.94,0,0,0,1.1-.8v-.3" transform="translate(578.8 -503.4)"/><path d="M-262.7,617.5a.47.47,0,0,0,.5-.5.47.47,0,0,0-.5-.5.47.47,0,0,0-.5.5.47.47,0,0,0,.5.5" transform="translate(578.8 -503.4)"/><path d="M-266.4,612.5a1.11,1.11,0,0,0-1.1-1.1,1.11,1.11,0,0,0-1.1,1.1,1.11,1.11,0,0,0,1.1,1.1,1,1,0,0,0,1.1-1.1" transform="translate(578.8 -503.4)"/><path d="M-241.3,553.5a1.32,1.32,0,0,0,1.3,1.3h0a1.32,1.32,0,0,0,1.3-1.3h0a1.32,1.32,0,0,0-1.3-1.3h0a1.32,1.32,0,0,0-1.3,1.3h0" transform="translate(578.8 -503.4)"/><path d="M-265.8,617.6a.68.68,0,0,0,.7-.7.68.68,0,0,0-.7-.7.68.68,0,0,0-.7.7h0a.68.68,0,0,0,.7.7" transform="translate(578.8 -503.4)"/><path d="M-265.6,610.2a1.16,1.16,0,0,0-1.2-1.2,1.16,1.16,0,0,0-1.2,1.2,1.16,1.16,0,0,0,1.2,1.2h0a1.16,1.16,0,0,0,1.2-1.2" transform="translate(578.8 -503.4)"/><path d="M-264.3,614.7a.79.79,0,0,0-.8-.8h0a.79.79,0,0,0-.8.8.79.79,0,0,0,.8.8.86.86,0,0,0,.8-.8h0" transform="translate(578.8 -503.4)"/><path d="M-261.3,614.7a.68.68,0,0,0-.7-.7.62.62,0,0,0-.5.8c.1.3.3.5.5.5a.86.86,0,0,0,.7-.6" transform="translate(578.8 -503.4)"/><path d="M-214.1,546.3a.47.47,0,0,0-.5.5.47.47,0,0,0,.5.5.47.47,0,0,0,.5-.5.47.47,0,0,0-.5-.5h0" transform="translate(578.8 -503.4)"/><path d="M-215.2,556.6c-.1.3.1.5.4.6s.5-.1.6-.4v-.2c-.1-.3-.3-.5-.6-.4s-.3.2-.4.4" transform="translate(578.8 -503.4)"/><path d="M-232.2,579.9a.9.9,0,0,0-.9.9.9.9,0,0,0,.9.9.9.9,0,0,0,.9-.9.84.84,0,0,0-.9-.9h0" transform="translate(578.8 -503.4)"/><path d="M-229.8,583.6a.68.68,0,0,0,.7.7.68.68,0,0,0,.7-.7.68.68,0,0,0-.7-.7.68.68,0,0,0-.7.7h0" transform="translate(578.8 -503.4)"/><path d="M-229.2,579a.74.74,0,0,0-.9.7.74.74,0,0,0,.7.9h.3a1,1,0,0,0,.7-.9c-.2-.4-.5-.7-.8-.7" transform="translate(578.8 -503.4)"/><path d="M-259.6,609.6a1.11,1.11,0,0,0-1.1-1.1h0a1,1,0,0,0-.9,1.2,1.06,1.06,0,0,0,.9.9,1,1,0,0,0,1.1-1" transform="translate(578.8 -503.4)"/><path d="M-260.4,612.2a.9.9,0,0,0-.9-.9.9.9,0,0,0-.9.9.9.9,0,0,0,.9.9h0a.9.9,0,0,0,.9-.9h0" transform="translate(578.8 -503.4)"/><path d="M-212.3,541a.47.47,0,0,0-.5-.5c-.3-.1-.5.1-.6.4s.1.5.4.6h.2a.47.47,0,0,0,.5-.5h0" transform="translate(578.8 -503.4)"/><path d="M-213.2,530.8a.47.47,0,0,0-.5.5.47.47,0,0,0,.5.5.47.47,0,0,0,.5-.5.54.54,0,0,0-.5-.5" transform="translate(578.8 -503.4)"/><path d="M-213.4,550.9a.47.47,0,0,0,.5.5.47.47,0,0,0,.5-.5.47.47,0,0,0-.5-.5h0c-.3.1-.5.3-.5.5" transform="translate(578.8 -503.4)"/><path d="M-214.2,536.5a.47.47,0,0,0-.5.5.47.47,0,0,0,.5.5.47.47,0,0,0,.5-.5.47.47,0,0,0-.5-.5" transform="translate(578.8 -503.4)"/><path d="M-209.7,568.5a.22.22,0,0,0,.2.2h0c.1,0,.2-.1.3-.2h0a.32.32,0,0,0-.3-.3h0c-.1.1-.2.2-.2.3h0" transform="translate(578.8 -503.4)"/><path d="M-208.2,558a.22.22,0,0,0-.2.2c0,.1.1.2.2.3a.32.32,0,0,0,.3-.3h0c-.1-.1-.2-.2-.3-.2" transform="translate(578.8 -503.4)"/><path d="M-207.5,537.6a.22.22,0,0,0-.2-.2.22.22,0,0,0-.2.2.22.22,0,0,0,.2.2h0a.22.22,0,0,0,.2-.2h0" transform="translate(578.8 -503.4)"/><path d="M-220.1,584.8a.43.43,0,0,0-.4.4.43.43,0,0,0,.4.4h0c.2,0,.5-.2.5-.4h0a.46.46,0,0,0-.5-.4" transform="translate(578.8 -503.4)"/><path d="M-208.4,527.7c.1,0,.3-.1.3-.2h0a.27.27,0,0,0-.3-.3.32.32,0,0,0-.3.3h0c0,.1.1.2.3.2h0" transform="translate(578.8 -503.4)"/><path d="M-207.8,521.7c.1,0,.2-.1.3-.2h0a.32.32,0,0,0-.3-.3h0c-.1,0-.2.1-.2.3s0,.2.2.2h0" transform="translate(578.8 -503.4)"/><path d="M-207.2,509.2a.32.32,0,0,0-.3.3h0a.32.32,0,0,0,.3.3.32.32,0,0,0,.3-.3q-.15-.3-.3-.3h0" transform="translate(578.8 -503.4)"/><path d="M-207.3,503.9c.1,0,.2-.1.3-.2a.32.32,0,0,0-.3-.3.32.32,0,0,0-.3.3c.1.1.2.2.3.2" transform="translate(578.8 -503.4)"/><path d="M-207.4,515.7c.1,0,.2-.1.3-.2h0a.32.32,0,0,0-.3-.3h0c-.1,0-.2.1-.2.3s0,.2.2.2h0" transform="translate(578.8 -503.4)"/><path d="M-207.6,548.1a.22.22,0,0,0,.2-.2h0a.22.22,0,0,0-.2-.2.22.22,0,0,0-.2.2c-.1.1,0,.2.2.2h0" transform="translate(578.8 -503.4)"/><path d="M-208.9,553.8a.27.27,0,0,0-.3-.3.27.27,0,0,0-.3.3h0a.27.27,0,0,0,.3.3.27.27,0,0,0,.3-.3" transform="translate(578.8 -503.4)"/><path d="M-217.1,584.1a.32.32,0,0,0-.3.3.32.32,0,0,0,.3.3.32.32,0,0,0,.3-.3c.1-.2-.1-.3-.3-.3h0" transform="translate(578.8 -503.4)"/><path d="M-217,588.4a.22.22,0,0,0-.2.2h0a.22.22,0,0,0,.2.2.22.22,0,0,0,.2-.2.22.22,0,0,0-.2-.2h0" transform="translate(578.8 -503.4)"/><path d="M-220.4,593.5a.32.32,0,0,0,.3.3.32.32,0,0,0,.3-.3.27.27,0,0,0-.3-.3.32.32,0,0,0-.3.3" transform="translate(578.8 -503.4)"/><path d="M-219.6,589.5a.43.43,0,0,0-.4-.4.43.43,0,0,0-.4.4.43.43,0,0,0,.4.4h0a.78.78,0,0,0,.4-.4" transform="translate(578.8 -503.4)"/><path d="M-210.1,523.9a.43.43,0,0,0,.4-.4.43.43,0,0,0-.4-.4.43.43,0,0,0-.4.4h0a.43.43,0,0,0,.4.4h0" transform="translate(578.8 -503.4)"/><path d="M-209.2,533.7a.27.27,0,0,0,.3-.3.27.27,0,0,0-.3-.3.27.27,0,0,0-.3.3h0a.32.32,0,0,0,.3.3h0" transform="translate(578.8 -503.4)"/><path d="M-209.2,506.2a.27.27,0,0,0,.3-.3.32.32,0,0,0-.3-.3.32.32,0,0,0-.3.3c-.1.1.1.3.3.3" transform="translate(578.8 -503.4)"/><path d="M-208.6,543.6a.27.27,0,0,0-.3-.3h0a.27.27,0,0,0-.3.3.27.27,0,0,0,.3.3.32.32,0,0,0,.3-.3h0" transform="translate(578.8 -503.4)"/><path d="M-209.2,512a.27.27,0,0,0,.3-.3h0a.27.27,0,0,0-.3-.3.32.32,0,0,0-.3.3q-.15.3.3.3h0" transform="translate(578.8 -503.4)"/><path d="M-209.6,518a.43.43,0,0,0,.4-.4h0c0-.2-.2-.3-.4-.3a.32.32,0,0,0-.3.3c-.1.2.1.4.3.4" transform="translate(578.8 -503.4)"/><path d="M-269.7,616.9a.77.77,0,0,0,.7.8h0a.79.79,0,0,0,.8-.8h0a.68.68,0,0,0-.7-.7h0a.77.77,0,0,0-.8.7h0" transform="translate(578.8 -503.4)"/><path d="M-220.6,545.3a.68.68,0,0,0-.7.7.68.68,0,0,0,.7.7.68.68,0,0,0,.7-.7h0c.1-.4-.3-.7-.7-.7" transform="translate(578.8 -503.4)"/><path d="M-218,545a.65.65,0,0,0,.6-.6h0a.69.69,0,0,0-.5-.8.69.69,0,0,0-.8.5v.2a.84.84,0,0,0,.7.7h0" transform="translate(578.8 -503.4)"/><path d="M-243.3,574.5a1.32,1.32,0,0,0-1.3-1.3h0a1.32,1.32,0,0,0-1.3,1.3h0a1.32,1.32,0,0,0,1.3,1.3,1.32,1.32,0,0,0,1.3-1.3h0" transform="translate(578.8 -503.4)"/><path d="M-248.7,596.4a1.08,1.08,0,0,0-1.2-1.1,1.08,1.08,0,0,0-1.1,1.2,1.13,1.13,0,0,0,1.2,1.1,1.2,1.2,0,0,0,1.1-1.2h0" transform="translate(578.8 -503.4)"/><path d="M-221.8,541.4a.86.86,0,0,0-.8.8.86.86,0,0,0,.8.8.86.86,0,0,0,.8-.8h0a.79.79,0,0,0-.8-.8" transform="translate(578.8 -503.4)"/><path d="M-249.6,585.3a1.32,1.32,0,0,0-1.3,1.3h0a1.32,1.32,0,0,0,1.3,1.3,1.32,1.32,0,0,0,1.3-1.3h0c.1-.7-.5-1.2-1.3-1.3h0" transform="translate(578.8 -503.4)"/><path d="M-249.7,591.9a1.22,1.22,0,0,0-1.2,1.2,1.22,1.22,0,0,0,1.2,1.2,1.29,1.29,0,0,0,1.2-1.2h0a1.15,1.15,0,0,0-1.2-1.2h0" transform="translate(578.8 -503.4)"/><path d="M-247,580.4a1.32,1.32,0,0,0,1.3-1.3,1.32,1.32,0,0,0-1.3-1.3,1.32,1.32,0,0,0-1.3,1.3,1.21,1.21,0,0,0,1.3,1.3h0" transform="translate(578.8 -503.4)"/><path d="M-249.7,584.8a1.37,1.37,0,0,0,1.4-1.4,1.37,1.37,0,0,0-1.4-1.4,1.37,1.37,0,0,0-1.4,1.4,1.37,1.37,0,0,0,1.4,1.4h0" transform="translate(578.8 -503.4)"/><path d="M-249.6,588.6a1.32,1.32,0,0,0-1.3,1.3,1.32,1.32,0,0,0,1.3,1.3h0a1.32,1.32,0,0,0,1.3-1.3,1.32,1.32,0,0,0-1.3-1.3" transform="translate(578.8 -503.4)"/><path d="M-246.8,581a1.32,1.32,0,0,0-1.3,1.3,1.32,1.32,0,0,0,1.3,1.3,1.32,1.32,0,0,0,1.3-1.3h0a1.32,1.32,0,0,0-1.3-1.3" transform="translate(578.8 -503.4)"/><path d="M-219.3,539.8a.68.68,0,0,0-.7.7h0a.68.68,0,0,0,.7.7h0a.68.68,0,0,0,.7-.7.68.68,0,0,0-.7-.7h0" transform="translate(578.8 -503.4)"/><path d="M-233.3,544.1a1.22,1.22,0,0,0-1.2,1.2h0a1.22,1.22,0,0,0,1.2,1.2,1.2,1.2,0,0,0,1.2-1.1h0a1.31,1.31,0,0,0-1.2-1.3" transform="translate(578.8 -503.4)"/><path d="M-233.6,550.3a1.16,1.16,0,0,0-1.2-1.2,1.24,1.24,0,0,0-.8,1.5,1.09,1.09,0,0,0,.8.8,1.08,1.08,0,0,0,1.2-1.1h0" transform="translate(578.8 -503.4)"/><path d="M-234.6,540.6a1.16,1.16,0,0,0-1.2,1.2h0a1.31,1.31,0,0,0,.8,1.6,1.31,1.31,0,0,0,1.6-.8,1.1,1.1,0,0,0,0-.8,1.22,1.22,0,0,0-1.2-1.2" transform="translate(578.8 -503.4)"/><path d="M-237.1,542.4a1.32,1.32,0,0,0-1.3,1.3,1.32,1.32,0,0,0,1.3,1.3,1.32,1.32,0,0,0,1.3-1.3h0a1.32,1.32,0,0,0-1.3-1.3" transform="translate(578.8 -503.4)"/><path d="M-239.8,548.7a1.32,1.32,0,0,0,1.3,1.3h0a1.32,1.32,0,0,0,1.3-1.3,1.32,1.32,0,0,0-1.3-1.3,1.21,1.21,0,0,0-1.3,1.3h0" transform="translate(578.8 -503.4)"/><path d="M-234.6,547a1.32,1.32,0,0,0-1.3-1.3,1.32,1.32,0,0,0-1.3,1.3,1.32,1.32,0,0,0,1.3,1.3h0a1.4,1.4,0,0,0,1.3-1.3" transform="translate(578.8 -503.4)"/><path d="M-233.3,548.7a1.11,1.11,0,0,0,1.1,1.1,1.11,1.11,0,0,0,1.1-1.1,1.11,1.11,0,0,0-1.1-1.1h0a1.11,1.11,0,0,0-1.1,1.1h0" transform="translate(578.8 -503.4)"/><path d="M-238.7,551.9a1.32,1.32,0,0,0,1.3,1.3h0a1.24,1.24,0,0,0,1.1-1.4,1.27,1.27,0,0,0-1.1-1.1,1.3,1.3,0,0,0-1.3,1.2" transform="translate(578.8 -503.4)"/><path d="M-235.2,555.3a1.16,1.16,0,0,0-1.2-1.2h0a1.24,1.24,0,0,0-1.5.8,1.24,1.24,0,0,0,.8,1.5.85.85,0,0,0,.7,0,1.08,1.08,0,0,0,1.2-1.1h0" transform="translate(578.8 -503.4)"/><path d="M-238.2,559a1.32,1.32,0,0,0-1.3,1.3,1.32,1.32,0,0,0,1.3,1.3,1.32,1.32,0,0,0,1.3-1.3h0a1.32,1.32,0,0,0-1.3-1.3" transform="translate(578.8 -503.4)"/><path d="M-238.5,574.4a1.11,1.11,0,0,0-1.1,1.1,1.22,1.22,0,0,0,1.2,1.2,1.22,1.22,0,0,0,1.2-1.2,1.48,1.48,0,0,0-1.3-1.1" transform="translate(578.8 -503.4)"/><path d="M-255.4,603.7a1.22,1.22,0,0,0-1.2-1.2h0a1.22,1.22,0,0,0-1.2,1.2,1.2,1.2,0,0,0,1.1,1.2h0a1.24,1.24,0,0,0,1.3-1.2" transform="translate(578.8 -503.4)"/><path d="M-232.8,584.5a.79.79,0,0,0,.8.8.79.79,0,0,0,.8-.8.79.79,0,0,0-.8-.8h0a.74.74,0,0,0-.8.8" transform="translate(578.8 -503.4)"/><path d="M-240.8,586.1a1.11,1.11,0,0,0-1.1,1.1,1.11,1.11,0,0,0,1.1,1.1,1.11,1.11,0,0,0,1.1-1.1,1.11,1.11,0,0,0-1.1-1.1" transform="translate(578.8 -503.4)"/><path d="M-240.8,589.6a1,1,0,0,0-1,1,1.08,1.08,0,0,0,1,1,1,1,0,0,0,1-1,1.07,1.07,0,0,0-1-1h0" transform="translate(578.8 -503.4)"/><path d="M-238.2,578a1.11,1.11,0,0,0-1.1,1.1,1.11,1.11,0,0,0,1.1,1.1,1.11,1.11,0,0,0,1.1-1.1,1.11,1.11,0,0,0-1.1-1.1" transform="translate(578.8 -503.4)"/><path d="M-239,582.7a1,1,0,0,0,1,1.1,1,1,0,0,0,1.1-1,1,1,0,0,0-1-1.1h0a.93.93,0,0,0-1.1,1" transform="translate(578.8 -503.4)"/><path d="M-230.1,564.6a.94.94,0,0,0-1-1,.94.94,0,0,0-1,1,.94.94,0,0,0,1,1,1.17,1.17,0,0,0,1-1" transform="translate(578.8 -503.4)"/><path d="M-236.1,581.7a1,1,0,0,0,1,1,1,1,0,0,0,1-1,.94.94,0,0,0-1-1h0a1.07,1.07,0,0,0-1,1h0" transform="translate(578.8 -503.4)"/><path d="M-232.5,576a.9.9,0,0,0-.9.9,1,1,0,0,0,.8,1.1,1,1,0,0,0,1.1-.8v-.3a1,1,0,0,0-1-.9h0" transform="translate(578.8 -503.4)"/><path d="M-230,528.8a1.11,1.11,0,0,0-1.1,1.1h0a1.22,1.22,0,0,0,1.2,1.2,1.22,1.22,0,0,0,1.2-1.2,1.3,1.3,0,0,0-1.3-1.1" transform="translate(578.8 -503.4)"/><path d="M-252.6,592.7a1.26,1.26,0,0,0-1.3,1.3h0a1.34,1.34,0,0,0,1.1,1.5,1.34,1.34,0,0,0,1.5-1.1v-.3a1.35,1.35,0,0,0-1.3-1.4h0" transform="translate(578.8 -503.4)"/><path d="M-252.5,586.3a1.37,1.37,0,0,0-1.4,1.4h0a1.37,1.37,0,0,0,1.4,1.4,1.37,1.37,0,0,0,1.4-1.4,1.37,1.37,0,0,0-1.4-1.4h0" transform="translate(578.8 -503.4)"/><path d="M-249,599.5a1.11,1.11,0,0,0-1.1-1.1,1.22,1.22,0,0,0-1.2,1.2,1.22,1.22,0,0,0,1.2,1.2,1.3,1.3,0,0,0,1.1-1.3" transform="translate(578.8 -503.4)"/><path d="M-250.5,603.6a1,1,0,0,0,1-1h0a1,1,0,0,0-1-1.1,1,1,0,0,0-1.1,1,1.11,1.11,0,0,0,1.1,1.1h0" transform="translate(578.8 -503.4)"/><path d="M-251.6,597.1a1.24,1.24,0,0,0-1.1-1.4,1.24,1.24,0,0,0-1.4,1.1v.3a1.24,1.24,0,0,0,1.4,1.1,1.39,1.39,0,0,0,1.1-1.1" transform="translate(578.8 -503.4)"/><path d="M-258,606.5a1.11,1.11,0,0,0,1.1,1.1,1.11,1.11,0,0,0,1.1-1.1,1.11,1.11,0,0,0-1.1-1.1h0a1.11,1.11,0,0,0-1.1,1.1" transform="translate(578.8 -503.4)"/><path d="M-252.5,589.5a1.32,1.32,0,0,0-1.3,1.3,1.32,1.32,0,0,0,1.3,1.3,1.32,1.32,0,0,0,1.3-1.3h0a1.26,1.26,0,0,0-1.3-1.3" transform="translate(578.8 -503.4)"/><path d="M-254.5,597.8a1.32,1.32,0,0,0-1.3-1.3,1.32,1.32,0,0,0-1.3,1.3,1.32,1.32,0,0,0,1.3,1.3h0a1.32,1.32,0,0,0,1.3-1.3" transform="translate(578.8 -503.4)"/><path d="M-254.9,600.8a1.22,1.22,0,0,0-1.2-1.2,1.24,1.24,0,0,0-1.4,1.1,1.24,1.24,0,0,0,1.1,1.4h.3a1.39,1.39,0,0,0,1.2-1.3h0" transform="translate(578.8 -503.4)"/><path d="M-253.5,604.3a1.11,1.11,0,0,0,1.1-1.1,1.11,1.11,0,0,0-1.1-1.1,1.11,1.11,0,0,0-1.1,1.1h0a1.18,1.18,0,0,0,1.1,1.1" transform="translate(578.8 -503.4)"/><path d="M-252,600.1a1.24,1.24,0,0,0-.9-1.4,1.24,1.24,0,0,0-1.4.9v.5a1.16,1.16,0,0,0,1.4.9.9.9,0,0,0,.9-.9" transform="translate(578.8 -503.4)"/><path d="M-261.3,606.9a1.22,1.22,0,0,0,1.2,1.2,1.22,1.22,0,0,0,1.2-1.2,1.16,1.16,0,0,0-1.2-1.2,1.38,1.38,0,0,0-1.2,1.2" transform="translate(578.8 -503.4)"/><path d="M-218.5,568.1a.65.65,0,0,0,.6-.6.65.65,0,0,0-.6-.6.65.65,0,0,0-.6.6.65.65,0,0,0,.6.6" transform="translate(578.8 -503.4)"/><path d="M-220.8,573.4a.65.65,0,0,0,.6-.6.65.65,0,0,0-.6-.6.65.65,0,0,0-.6.6h0c-.1.3.2.6.6.6" transform="translate(578.8 -503.4)"/><path d="M-218.7,563.4a.65.65,0,0,0-.6-.6c-.3.1-.6.4-.5.7s.2.4.5.5a.65.65,0,0,0,.6-.6h0" transform="translate(578.8 -503.4)"/><path d="M-221.5,569.3a.68.68,0,0,0,.7-.7.68.68,0,0,0-.7-.7.68.68,0,0,0-.7.7h0c.1.4.3.7.7.7h0" transform="translate(578.8 -503.4)"/><path d="M-220.2,581.5c.3.1.5-.1.6-.4s-.1-.5-.4-.6h-.2a.47.47,0,0,0-.5.5h0a.47.47,0,0,0,.5.5h0" transform="translate(578.8 -503.4)"/><path d="M-220.5,577.4a.65.65,0,0,0,.6-.6.58.58,0,0,0-.6-.6.65.65,0,0,0-.6.6.58.58,0,0,0,.6.6" transform="translate(578.8 -503.4)"/><path d="M-221.4,564.6c-.1-.4-.4-.7-.8-.6a.9.9,0,0,0-.6.6c.1.4.4.7.8.6s.5-.3.6-.6" transform="translate(578.8 -503.4)"/><path d="M-222.5,590a.47.47,0,0,0-.5-.5.47.47,0,0,0-.5.5.47.47,0,0,0,.5.5.54.54,0,0,0,.5-.5" transform="translate(578.8 -503.4)"/><path d="M-223.3,597.8a.22.22,0,0,0-.2.2.22.22,0,0,0,.2.2h0a.22.22,0,0,0,.2-.2.22.22,0,0,0-.2-.2" transform="translate(578.8 -503.4)"/><path d="M-223,585.4a.44.44,0,0,0-.6.4.44.44,0,0,0,.4.6h.2a.44.44,0,0,0,.6-.4.44.44,0,0,0-.4-.6h-.2" transform="translate(578.8 -503.4)"/><path d="M-214.7,575.3a.43.43,0,0,0,.4-.4h0c0-.2-.1-.4-.3-.4h0a.43.43,0,0,0-.4.4c-.1.3.1.4.3.4" transform="translate(578.8 -503.4)"/><path d="M-222.7,594.1a.43.43,0,0,0-.4-.4h0c-.2,0-.4.1-.4.3h0a.43.43,0,0,0,.4.4c.2.1.4-.1.4-.3" transform="translate(578.8 -503.4)"/><path d="M-213,565.6a.43.43,0,0,0,.4-.4.43.43,0,0,0-.4-.4.43.43,0,0,0-.4.4.43.43,0,0,0,.4.4" transform="translate(578.8 -503.4)"/><path d="M-213.3,560.8a.43.43,0,0,0-.4-.4.43.43,0,0,0-.4.4.43.43,0,0,0,.4.4.37.37,0,0,0,.4-.4" transform="translate(578.8 -503.4)"/><path d="M-215.2,571.1a.43.43,0,0,0,.4-.4.43.43,0,0,0-.4-.4h0a.43.43,0,0,0-.4.4h0a.43.43,0,0,0,.4.4h0" transform="translate(578.8 -503.4)"/><path d="M-214.1,583.9a.32.32,0,0,0,.3-.3h0a.32.32,0,0,0-.3-.3h0c-.1,0-.3.1-.3.2h0c0,.3.1.4.3.4" transform="translate(578.8 -503.4)"/><path d="M-218.1,572.2a.47.47,0,0,0,.5-.5.47.47,0,0,0-.5-.5h0a.47.47,0,0,0-.5.5h0a.47.47,0,0,0,.5.5" transform="translate(578.8 -503.4)"/><path d="M-217.3,580.6a.43.43,0,0,0,.4-.4.43.43,0,0,0-.4-.4.43.43,0,0,0-.4.4h0a.43.43,0,0,0,.4.4" transform="translate(578.8 -503.4)"/><path d="M-217.6,576.4a.47.47,0,0,0,.5-.5h0a.47.47,0,0,0-.5-.5.47.47,0,0,0-.5.5h0a.47.47,0,0,0,.5.5h0" transform="translate(578.8 -503.4)"/><path d="M-216,562.1a.47.47,0,0,0-.5-.5.47.47,0,0,0-.5.5.47.47,0,0,0,.5.5c.2.1.5-.2.5-.5" transform="translate(578.8 -503.4)"/><path d="M-215.8,566.8a.47.47,0,0,0,.5-.5.46.46,0,0,0-.4-.5h0a.47.47,0,0,0-.5.5h0c-.1.3.1.5.4.5h0" transform="translate(578.8 -503.4)"/><path d="M-214.4,579.6a.27.27,0,0,0,.3-.3.27.27,0,0,0-.3-.3.27.27,0,0,0-.3.3h0a.32.32,0,0,0,.3.3" transform="translate(578.8 -503.4)"/><path d="M-227.2,571.8a1,1,0,0,0,.9-.8,1,1,0,0,0-.8-.9,1,1,0,0,0-.9.8h0a.88.88,0,0,0,.8.9" transform="translate(578.8 -503.4)"/><path d="M-226.9,567.1a.82.82,0,0,0-1-.7.84.84,0,0,0-.7.7.82.82,0,0,0,1,.7.68.68,0,0,0,.7-.7" transform="translate(578.8 -503.4)"/><path d="M-226.7,575.6a.79.79,0,0,0,.8-.8h0a.77.77,0,0,0-.7-.8h0a.79.79,0,0,0-.8.8h0a.67.67,0,0,0,.7.8h0" transform="translate(578.8 -503.4)"/><path d="M-226.3,579.5a.68.68,0,0,0,.7-.7.68.68,0,0,0-.7-.7.68.68,0,0,0-.7.7.68.68,0,0,0,.7.7h0" transform="translate(578.8 -503.4)"/><path d="M-229,586.8a.68.68,0,0,0-.7.7h0a.68.68,0,0,0,.7.7h0a.68.68,0,0,0,.7-.7.68.68,0,0,0-.7-.7h0" transform="translate(578.8 -503.4)"/><path d="M-223.2,582.5a.65.65,0,0,0,.6-.6.65.65,0,0,0-.6-.6.65.65,0,0,0-.6.6.65.65,0,0,0,.6.6" transform="translate(578.8 -503.4)"/><path d="M-228.9,599a.47.47,0,0,0-.5-.5.47.47,0,0,0-.5.5.47.47,0,0,0,.5.5h0a.47.47,0,0,0,.5-.5" transform="translate(578.8 -503.4)"/><path d="M-226.8,582.8a.69.69,0,0,0,.5.8.69.69,0,0,0,.8-.5v-.2a.62.62,0,0,0-.8-.5c-.2-.1-.4.1-.5.4" transform="translate(578.8 -503.4)"/><path d="M-229.7,603.1a.32.32,0,0,0,.3-.3.45.45,0,0,0-.3-.3.32.32,0,0,0-.3.3.32.32,0,0,0,.3.3" transform="translate(578.8 -503.4)"/><path d="M-228.6,595.2a.63.63,0,0,0-.5-.6h0a.65.65,0,0,0-.6.6.58.58,0,0,0,.6.6.56.56,0,0,0,.5-.6h0" transform="translate(578.8 -503.4)"/><path d="M-228.4,591.4a.65.65,0,0,0-.6-.6h0a.65.65,0,0,0-.6.6.65.65,0,0,0,.6.6.58.58,0,0,0,.6-.6h0" transform="translate(578.8 -503.4)"/><path d="M-224.2,565.9a.86.86,0,0,0-.8-.8.86.86,0,0,0-.8.8.86.86,0,0,0,.8.8h0c.5-.1.8-.4.8-.8" transform="translate(578.8 -503.4)"/><path d="M-223.8,574.5a.76.76,0,0,0,.6-.8.9.9,0,0,0-.6-.6c-.4-.1-.7.2-.8.6s.2.7.6.8h.2" transform="translate(578.8 -503.4)"/><path d="M-224.3,570.6a.77.77,0,0,0,.8-.7.77.77,0,0,0-.7-.8.77.77,0,0,0-.8.7h0a.71.71,0,0,0,.7.8" transform="translate(578.8 -503.4)"/><path d="M-223.4,578.5a.62.62,0,0,0,.5-.8c-.1-.3-.3-.5-.5-.5a.69.69,0,0,0-.8.5.75.75,0,0,0,.5.8h.3" transform="translate(578.8 -503.4)"/><path d="M-226.7,602.7a.32.32,0,0,0,.3-.3.27.27,0,0,0-.3-.3.32.32,0,0,0-.3.3.32.32,0,0,0,.3.3" transform="translate(578.8 -503.4)"/><path d="M-225.7,594.6a.47.47,0,0,0-.5-.5.47.47,0,0,0-.5.5.47.47,0,0,0,.5.5h0a.47.47,0,0,0,.5-.5" transform="translate(578.8 -503.4)"/><path d="M-226,598.5a.43.43,0,0,0-.4-.4.43.43,0,0,0-.4.4.43.43,0,0,0,.4.4.37.37,0,0,0,.4-.4h0" transform="translate(578.8 -503.4)"/><path d="M-225.5,590.7a.57.57,0,0,0-.4-.7.57.57,0,0,0-.7.4v.2a.57.57,0,0,0,.7.4c.2.1.4-.1.4-.3" transform="translate(578.8 -503.4)"/><path d="M-226,586.1a.65.65,0,0,0-.6.6.65.65,0,0,0,.6.6.65.65,0,0,0,.6-.6.65.65,0,0,0-.6-.6h0" transform="translate(578.8 -503.4)"/><path d="M-317.5,544.6a3.33,3.33,0,0,0-1.2-1.4c-1-.6-1.7-.3-2.3-1s-.4-1.5-.9-2.3a1.1,1.1,0,0,0-1-.6,1.39,1.39,0,0,0-1.3,1.2c-1.8,9.7-6.1,13.9-6.1,15.9a1.7,1.7,0,0,0,1.4,1.4c1.7.1,11.4-13.2,11.4-13.2" transform="translate(578.8 -503.4)"/><path d="M-212.3,569.9a.32.32,0,0,0,.3-.3.45.45,0,0,0-.3-.3.45.45,0,0,0-.3.3h0c-.1.1.1.3.3.3" transform="translate(578.8 -503.4)"/><path d="M-222.2,519.7c.5,0,.8-.4.9-.9a.82.82,0,0,0-1-.7.84.84,0,0,0-.7.7.77.77,0,0,0,.8.9" transform="translate(578.8 -503.4)"/><path d="M-224.5,521.8a1,1,0,0,0,1-1,1,1,0,0,0-1-1,1,1,0,0,0-1,1h0a1,1,0,0,0,1,1h0" transform="translate(578.8 -503.4)"/><path d="M-226.8,523.9a1,1,0,0,0,1-1,1,1,0,0,0-1-1,1,1,0,0,0-1,1,.94.94,0,0,0,1,1h0" transform="translate(578.8 -503.4)"/><path d="M-229.2,525.9a1.11,1.11,0,0,0,1.1-1.1,1.22,1.22,0,0,0-1.2-1.2,1.22,1.22,0,0,0-1.2,1.2,1.3,1.3,0,0,0,1.3,1.1" transform="translate(578.8 -503.4)"/><path d="M-220,517.5a.86.86,0,0,0,.8-.8.86.86,0,0,0-.8-.8.86.86,0,0,0-.8.8h0a.79.79,0,0,0,.8.8" transform="translate(578.8 -503.4)"/><path d="M-218.2,520.8a.68.68,0,0,0,.7-.7h0a.68.68,0,0,0-.7-.7.68.68,0,0,0-.7.7c-.1.4.2.7.7.7h0" transform="translate(578.8 -503.4)"/><path d="M-217.8,515.3c.4-.1.7-.4.6-.8a.9.9,0,0,0-.6-.6c-.4.1-.7.4-.6.8s.3.6.6.6" transform="translate(578.8 -503.4)"/><path d="M-220.5,522.9a.86.86,0,0,0,.8-.8.86.86,0,0,0-.8-.8.86.86,0,0,0-.8.8.79.79,0,0,0,.8.8" transform="translate(578.8 -503.4)"/><path d="M-231.5,528a1.16,1.16,0,0,0,1.2-1.2,1.16,1.16,0,0,0-1.2-1.2,1.16,1.16,0,0,0-1.2,1.2h0a1.22,1.22,0,0,0,1.2,1.2" transform="translate(578.8 -503.4)"/><path d="M-275,615.9a.92.92,0,0,0-.9,1,1,1,0,0,0,.8,1.1,1,1,0,0,0,1.1-.8v-.3a1.07,1.07,0,0,0-1-1h0" transform="translate(578.8 -503.4)"/><path d="M-272,616a.9.9,0,0,0-.9.9.9.9,0,0,0,.9.9.9.9,0,0,0,.9-.9h0a.9.9,0,0,0-.9-.9" transform="translate(578.8 -503.4)"/><path d="M-229.6,576.8a.9.9,0,0,0,.9-.9.9.9,0,0,0-.9-.9.9.9,0,0,0-.9.9h0a1.06,1.06,0,0,0,.9.9" transform="translate(578.8 -503.4)"/><path d="M-270.2,614.9a1,1,0,0,0-1-1,1,1,0,0,0-1,1,.94.94,0,0,0,1,1,1.17,1.17,0,0,0,1-1h0" transform="translate(578.8 -503.4)"/><path d="M-216.5,524.4c.4,0,.6-.3.6-.7a.65.65,0,0,0-.6-.6.65.65,0,0,0-.6.6c0,.4.2.7.6.7" transform="translate(578.8 -503.4)"/><path d="M-238.7,534a1.37,1.37,0,0,0,1.4-1.4,1.37,1.37,0,0,0-1.4-1.4,1.37,1.37,0,0,0-1.4,1.4h0a1.37,1.37,0,0,0,1.4,1.4h0" transform="translate(578.8 -503.4)"/><path d="M-233.9,530a1.32,1.32,0,0,0,1.3-1.3,1.32,1.32,0,0,0-1.3-1.3,1.32,1.32,0,0,0-1.3,1.3,1.32,1.32,0,0,0,1.3,1.3h0" transform="translate(578.8 -503.4)"/><path d="M-236.3,532a1.32,1.32,0,0,0,1.3-1.3,1.32,1.32,0,0,0-1.3-1.3,1.32,1.32,0,0,0-1.3,1.3,1.32,1.32,0,0,0,1.3,1.3h0" transform="translate(578.8 -503.4)"/><path d="M-324.9,618.2h32a1.38,1.38,0,0,0,1.3-1,1.42,1.42,0,0,0,1.3.9,1.37,1.37,0,0,0,1.4-1.4v-.2a1.56,1.56,0,0,0,.7-1.3h0l.3-.2v.6a1.08,1.08,0,0,0-.7,1.1,1.32,1.32,0,0,0,1.3,1.3,1.32,1.32,0,0,0,1.3-1.3h0v-.3a1.42,1.42,0,0,0,.9-1.3v-.2a1.42,1.42,0,0,0,.9-1.4v-.3h.1v.2a1.27,1.27,0,0,0,.1.6,1.29,1.29,0,0,0-.6,1.7,1.17,1.17,0,0,0-.8,1.1,1.16,1.16,0,0,0,1.2,1.2,1.16,1.16,0,0,0,1.2-1.2v-.4a1.4,1.4,0,0,0,.9-1.2v-.4a1.29,1.29,0,0,0,.9-1.3v-.4a1,1,0,0,0,.5-.4,1.27,1.27,0,0,0-.1.6,1.45,1.45,0,0,0,.2.7,1.17,1.17,0,0,0-.8,1.1,1.42,1.42,0,0,0,.2.6,1.09,1.09,0,0,0-.9,1.1,1.11,1.11,0,0,0,1.1,1.1,1.11,1.11,0,0,0,1.1-1.1h0a.75.75,0,0,0-.1-.5,1.19,1.19,0,0,0,1-1.2,1.27,1.27,0,0,0-.1-.6,1.38,1.38,0,0,0,1-1.3,1.27,1.27,0,0,0-.1-.6,1.38,1.38,0,0,0,.9-1.3,1.27,1.27,0,0,0-.1-.6,1,1,0,0,0,.5-.4,1.85,1.85,0,0,0-.2.7,1.14,1.14,0,0,0,.3.8,1.3,1.3,0,0,0-.8,1.2,1.14,1.14,0,0,0,.3.8,1.13,1.13,0,0,0-.9,1.3.86.86,0,0,0,.3.6,1,1,0,0,0-1,1h0a1,1,0,0,0,.9,1.2,1,1,0,0,0,1.2-.9v-.3a1.08,1.08,0,0,0-.3-.7,1.11,1.11,0,0,0,1.1-1.1,1.45,1.45,0,0,0-.2-.7,1.3,1.3,0,0,0,1.1-1.3,1.85,1.85,0,0,0-.2-.7,1.38,1.38,0,0,0,1-1.3,1.45,1.45,0,0,0-.2-.7,1.66,1.66,0,0,0,1-1.4,2.35,2.35,0,0,0-.2-.8,1.69,1.69,0,0,0,.9-1.4,1.88,1.88,0,0,0-.2-.8l.3-.2v.5a1.28,1.28,0,0,0,.4,1,1.51,1.51,0,0,0-.9,1.8,2.09,2.09,0,0,0,.4.6,1.28,1.28,0,0,0-.9,1.6l.3.6a1.19,1.19,0,0,0-1,1.2,1.23,1.23,0,0,0,.5,1h0a1,1,0,0,0-1,1,1,1,0,0,0,1,1,1,1,0,0,0,1-1h0a1.23,1.23,0,0,0-.4-.8h0a1.16,1.16,0,0,0,1.2-1.2h0a1.14,1.14,0,0,0-.3-.8,1.38,1.38,0,0,0,1.1-1.3,1.61,1.61,0,0,0-.3-.9,1.37,1.37,0,0,0,1-1.7l-.3-.6a1.5,1.5,0,0,0,1-1.4,1.93,1.93,0,0,0-.3-1,1.42,1.42,0,0,0,.9-1.4,1.69,1.69,0,0,0-.3-1,1.69,1.69,0,0,0,.9-1.4h0a1.76,1.76,0,0,0,.4.5,1.49,1.49,0,0,0-1.2,1.3,1.61,1.61,0,0,0,.5,1.1,1.38,1.38,0,0,0-1,1.3,1.61,1.61,0,0,0,.5,1.1,1.38,1.38,0,0,0-1,1.3,1.23,1.23,0,0,0,.5,1,1.3,1.3,0,0,0-1.1,1.3,1.15,1.15,0,0,0,.6,1.1h0a1.2,1.2,0,0,0-1.2,1.1,1.2,1.2,0,0,0,1.1,1.2,1.2,1.2,0,0,0,1.2-1.1h0a1.1,1.1,0,0,0-.6-1h0a1.32,1.32,0,0,0,1.3-1.3,1.39,1.39,0,0,0-.5-1A1.3,1.3,0,0,0-268,608a1.23,1.23,0,0,0-.5-1,1.41,1.41,0,0,0,1.1-1.4,1.61,1.61,0,0,0-.5-1.1,1.31,1.31,0,0,0,1-1.4,1.61,1.61,0,0,0-.5-1.1,1.5,1.5,0,0,0,1-1.4,1.43,1.43,0,0,0-.5-1.1,1.51,1.51,0,0,0,.9-1.4v-.2a1.34,1.34,0,0,0,.6.7,1.41,1.41,0,0,0-1,1.4,1.71,1.71,0,0,0,.7,1.3,1.41,1.41,0,0,0-1.1,1.4,1.39,1.39,0,0,0,.7,1.2,1.38,1.38,0,0,0-1.2,1.3,1.3,1.3,0,0,0,.8,1.2,1.24,1.24,0,0,0-1.2,1.3,1.24,1.24,0,0,0,1.3,1.2,1.24,1.24,0,0,0,1.2-1.3,1.23,1.23,0,0,0-.7-1.1,1.32,1.32,0,0,0,1.3-1.3,1.52,1.52,0,0,0-.7-1.2,1.4,1.4,0,0,0,1.2-1.4,1.39,1.39,0,0,0-.7-1.2,1.47,1.47,0,0,0,1.1-1.4,1.39,1.39,0,0,0-.7-1.2,1.6,1.6,0,0,0,1.1-1.4,1.71,1.71,0,0,0-.7-1.3,1.5,1.5,0,0,0,1-1.4v-.3a2,2,0,0,0,.8.8,1.32,1.32,0,0,0-1.1,1.4,1.5,1.5,0,0,0,1,1.4,1.35,1.35,0,0,0-1.1,1.7,1.39,1.39,0,0,0,1.1,1.1h-.1a1.43,1.43,0,0,0-1.3,1.5,1.43,1.43,0,0,0,1.5,1.3,1.43,1.43,0,0,0,1.3-1.5,1.49,1.49,0,0,0-1.3-1.3h.1a1.37,1.37,0,0,0,1.4-1.4h0a1.3,1.3,0,0,0-1-1.3,1.45,1.45,0,0,0,1.4-1.5,1.38,1.38,0,0,0-1-1.3,1.51,1.51,0,0,0,1.2-1.5,1.57,1.57,0,0,0-.9-1.4,1.63,1.63,0,0,0,1.1-1.5,1.51,1.51,0,0,0-.9-1.4,1.64,1.64,0,0,0,1-1.5v-.3a1.33,1.33,0,0,0,1,.6,1.51,1.51,0,0,0-1.2,1.5,1.54,1.54,0,0,0,1.5,1.5,1.54,1.54,0,0,0,1.5-1.5h0a1.59,1.59,0,0,0-1.2-1.5,1.59,1.59,0,0,0,1.2-1.5,1.63,1.63,0,0,0-1.1-1.5,1.63,1.63,0,0,0,1.1-1.5v-.4a1.56,1.56,0,0,0,1.3.7,1.54,1.54,0,0,0,1.5-1.5h0a1.45,1.45,0,0,0-1.4-1.5,1.83,1.83,0,0,0,1.3-1.5v-.5a1.47,1.47,0,0,0,2.1.5,1.46,1.46,0,0,0,.7-1.3,1.54,1.54,0,0,0-1.5-1.5,1.54,1.54,0,0,0-1.5,1.5v.5a1.55,1.55,0,0,0-1.1-.8,1.54,1.54,0,0,0,1-1.5v-.3a1.43,1.43,0,0,0,1.2.6,1.58,1.58,0,0,0,1.6-1.6,1.58,1.58,0,0,0-1.6-1.6,1.5,1.5,0,0,0,1.1-1.5v-.4a1.43,1.43,0,0,0,1.2.6,1.54,1.54,0,0,0,1.5-1.5,1.54,1.54,0,0,0-1.5-1.5,1.54,1.54,0,0,0-1.5,1.5v.4a1.7,1.7,0,0,0-1-.6,1.86,1.86,0,0,0,.9-1.5v-.3a1.5,1.5,0,0,0,1.1.4,1.58,1.58,0,0,0,1.6-1.6,1.27,1.27,0,0,0-.1-.6,1.43,1.43,0,0,0,1.2.6,1.54,1.54,0,0,0,1.5-1.5,1.54,1.54,0,0,0-1.5-1.5,1.54,1.54,0,0,0-1.5,1.5.75.75,0,0,0,.1.5,2.09,2.09,0,0,0-1.3-.7,1.82,1.82,0,0,0,1-1.5V564a1.5,1.5,0,0,0,1.1.4,1.58,1.58,0,0,0,1.6-1.6,1.45,1.45,0,0,0-.2-.7,1.71,1.71,0,0,0,1.3.7,1.54,1.54,0,0,0,1.5-1.5,1.54,1.54,0,0,0-1.5-1.5,1.54,1.54,0,0,0-1.5,1.5h0a1,1,0,0,0,.2.7,1.71,1.71,0,0,0-1.3-.7h-.2a1.54,1.54,0,0,0,1-1.5v-.5a1.57,1.57,0,0,0,2.2,0,1.57,1.57,0,0,0,0-2.2,1.57,1.57,0,0,0-2.2,0,1.5,1.5,0,0,0-.4,1.1v.5a1.61,1.61,0,0,0-1.1-.5,1.51,1.51,0,0,0,.7-1.4v-.4a1.48,1.48,0,0,0,2.2-.2,2.11,2.11,0,0,0,.4-1,1.27,1.27,0,0,0-.1-.6,1.57,1.57,0,0,0,2.2,0,1.61,1.61,0,0,0,.5-1.1,1.54,1.54,0,0,0-1.5-1.5,1.54,1.54,0,0,0-1.5,1.5.75.75,0,0,0,.1.5,1.66,1.66,0,0,0-1.2-.5h0a1.34,1.34,0,0,0,.7-1.4v-.4a1.69,1.69,0,0,0,1,.3,1.58,1.58,0,0,0,1.6-1.6,1.7,1.7,0,0,0-.1-.7,1.45,1.45,0,0,0,2.1,0,1.45,1.45,0,0,0,0-2.1,1.61,1.61,0,0,0-1.1-.5,1.54,1.54,0,0,0-1.5,1.5,1.27,1.27,0,0,0,.1.6,1.66,1.66,0,0,0-1.2-.5h-.2a1.51,1.51,0,0,0,.7-1.4v-.5a1.69,1.69,0,0,0,1,.3,1.58,1.58,0,0,0,1.6-1.6,2.35,2.35,0,0,0-.2-.8,1.45,1.45,0,0,0,2.1.1,1.45,1.45,0,0,0,.1-2.1,1.45,1.45,0,0,0-2.1-.1,1.61,1.61,0,0,0-.5,1.1,1.45,1.45,0,0,0,.2.7,1.43,1.43,0,0,0-1.2-.6h-.4a1.85,1.85,0,0,0,.7-2,1.61,1.61,0,0,0,.9.3,1.59,1.59,0,0,0,1.8-1.4,1.59,1.59,0,0,0-1.4-1.8h-.7a1.71,1.71,0,0,0,.7-1.3,1.27,1.27,0,0,0-.1-.6,1.61,1.61,0,0,0,.9.3,1.58,1.58,0,0,0,1.6-1.6,1.58,1.58,0,0,0-1.6-1.6,1.58,1.58,0,0,0-1.6,1.6h0a1.27,1.27,0,0,0,.1.6,1.69,1.69,0,0,0-1-.3,1.58,1.58,0,0,0-1.6,1.6v.4a2.92,2.92,0,0,0-.9-.2,1.75,1.75,0,0,0-1.7,1.7v.3a1.68,1.68,0,0,0-2.3.8,1.88,1.88,0,0,0-.2.8v.2a1.7,1.7,0,0,0-.7-.1,1.79,1.79,0,0,0-1.8,1.8v.1a1.27,1.27,0,0,0-.6-.1,2,2,0,0,0-1.9,1.8h0a1.27,1.27,0,0,0-.6-.1,1.92,1.92,0,0,0-1.2.4l-9.8,7.9c-29.6,23.9-27.7,41.8-37.5,41.8a6.85,6.85,0,0,1-6.8-6.7v-.1c0-13.5,33.9-39.5,33.9-60.3a16,16,0,0,0-16.2-16h-.4a34.48,34.48,0,0,0-24.8,10.5,17.39,17.39,0,0,0-5.5,10.9c0,1.9.8,3.2,2.1,3.2,4.6,0,8.6-6.1,9.1-6.8a.52.52,0,0,1,.4-.2.47.47,0,0,1,.5.5c0,.8-3.7,3.9-3.7,8.6a4.74,4.74,0,0,0,2,3.9c7.4-2.8,9.7-8.4,11.8-13.4,1.5-3.6,3.6-7.8,8.2-7.8a6.7,6.7,0,0,1,6.7,6.7c0,22.2-43.6,46.8-43.6,73.2,0,9.7,4.9,16.9,7.5,16.9m67.4-43.4.6.3a1.6,1.6,0,0,0-.8,1.4v.2a.85.85,0,0,0-.5-.3,1.51,1.51,0,0,0,.7-1.4v-.2m-.5,4.5a1.72,1.72,0,0,0,.8-1.4v-.2a1.23,1.23,0,0,0,.8.4,1.54,1.54,0,0,0-1,1.5v.2a1.33,1.33,0,0,0-.6-.5m2-11.8a1.42,1.42,0,0,0,.6.2,1.71,1.71,0,0,0-.7,1.3v.2a2.19,2.19,0,0,0-.5-.3,1.61,1.61,0,0,0,.6-1.3v-.1m1.9-4.7c.2.1.5.2.7.3a1.71,1.71,0,0,0-.7,1.3v.2c-.2-.1-.4-.3-.6-.3a1.61,1.61,0,0,0,.6-1.3v-.2m-.6,7.8a1.69,1.69,0,0,0-.9,1.4v.2a1.61,1.61,0,0,0-.7-.4,1.75,1.75,0,0,0,.7-1.4v-.2a6.31,6.31,0,0,0,.9.4m-2.3,11.9v.3a1.56,1.56,0,0,0-.8-.6,1.55,1.55,0,0,0,.9-1.5v-.3a1.61,1.61,0,0,0,1.1.5,1.5,1.5,0,0,0-1.2,1.6m2.1-7.5v.3a1.37,1.37,0,0,0-.8-.5,1.6,1.6,0,0,0,.8-1.4v-.2a1.5,1.5,0,0,0,1.1.4,1.47,1.47,0,0,0-1.1,1.4m1.6-7.5v.3a1.23,1.23,0,0,0-.8-.4,1.51,1.51,0,0,0,.7-1.4v-.3a1.21,1.21,0,0,0,1,.3h0a1.86,1.86,0,0,0-.9,1.5m1-9.3a1.61,1.61,0,0,0,.9.3,1.71,1.71,0,0,0-.7,1.3v.3a1.08,1.08,0,0,0-.7-.3,1.61,1.61,0,0,0,.6-1.3c-.1,0-.1-.2-.1-.3m2,3.2a1.54,1.54,0,0,0-1,1.5v.4a1.91,1.91,0,0,0-1-.5,1.51,1.51,0,0,0,.7-1.4v-.3a1.69,1.69,0,0,0,1,.3h.3m1.4-10.9v.4a3.55,3.55,0,0,0-.9-.4,1.85,1.85,0,0,0,.5-1.2v-.4a1.14,1.14,0,0,0,.8.3h.2a2,2,0,0,0-.6,1.3m2.2-10.4v-.5a1.88,1.88,0,0,0,.8.2h.4a1.71,1.71,0,0,0-.7,1.3v.5a1.21,1.21,0,0,0-1-.3h0a1.46,1.46,0,0,0,.5-1.2m-.4,4.4h.4a1.46,1.46,0,0,0-.7,1.3v.5a1.69,1.69,0,0,0-1-.3h0a1.66,1.66,0,0,0,.5-1.2v-.4a1.06,1.06,0,0,0,.8.1m-2-2.8a1.85,1.85,0,0,0,.7.2h0a1.61,1.61,0,0,0-.5,1.1v.4c-.2-.1-.5-.2-.7-.3a2.1,2.1,0,0,0,.4-1.1.37.37,0,0,1,.1-.3m-1.3,4.6a1.85,1.85,0,0,0,.7.2h0a1.66,1.66,0,0,0-.5,1.2v.3a1.85,1.85,0,0,0-.7-.2,1.5,1.5,0,0,0,.4-1.1c0-.2,0-.3.1-.4m-.4,7.7v-.3a1.61,1.61,0,0,0,.9.3h.1a1.46,1.46,0,0,0-.7,1.3v.3a1.14,1.14,0,0,0-.8-.3,1.9,1.9,0,0,0,.5-1.3m-.8-10.3a.9.9,0,0,0,.5.1,1.93,1.93,0,0,0-.3,1v.3c-.2-.1-.3-.1-.5-.2a1.69,1.69,0,0,0,.3-1v-.2m-.2,7.5V551a1.85,1.85,0,0,0,.7.2,1.66,1.66,0,0,0-.5,1.2v.3a4.88,4.88,0,0,0-.7-.3,2.08,2.08,0,0,0,.5-1.2m-1.1-3a.9.9,0,0,0,.5.1,2.1,2.1,0,0,0-.4,1.1v.2c-.1-.1-.3-.1-.5-.2a1.93,1.93,0,0,0,.3-1c.1,0,.1-.1.1-.2m-.4,7.4a1.42,1.42,0,0,0,.6.2,1.66,1.66,0,0,0-.5,1.2v.2a1.42,1.42,0,0,0-.6-.2,1.66,1.66,0,0,0,.5-1.2v-.2m-.7-10h.3a1.69,1.69,0,0,0-.3,1v.2h-.3a1.69,1.69,0,0,0,.3-1v-.2m-.3,7.3.4.1a1.5,1.5,0,0,0-.4,1.1v.1a.6.6,0,0,0-.4-.1,2.1,2.1,0,0,0,.4-1.1v-.1m-.1,7.4a1.85,1.85,0,0,0-.5,1.2v.2a.76.76,0,0,0-.5-.2,1.85,1.85,0,0,0,.5-1.2v-.1l.5.1m-.9-10.1h.3a1.69,1.69,0,0,0-.3,1h-.2a3,3,0,0,0,.2-1h0m-.5,7.2h0l.3.1a1.5,1.5,0,0,0-.4,1.1v.1a.37.37,0,0,0-.3-.1,1.59,1.59,0,0,0,.4-1.2m-.9-2.6h.2a1.93,1.93,0,0,0-.3,1h-.2a1.93,1.93,0,0,0,.3-1m0,10h0c.1.1.3.1.4.2a1.61,1.61,0,0,0-.6,1.3h0l-.4-.2a1.76,1.76,0,0,0,.6-1.3m-.8-2.8h.3a1.66,1.66,0,0,0-.5,1.2h-.2a1.92,1.92,0,0,0,.4-1.2m-1.2,7.3h.3a1,1,0,0,0-.4.5,1.09,1.09,0,0,0,.1-.5m.4,2.7h0l.5.2a1.71,1.71,0,0,0-.7,1.3h0l-.4-.2a1.37,1.37,0,0,0,.6-1.3m-1.8,14.8v.3a1.47,1.47,0,0,0-.6-.5,1.69,1.69,0,0,0,.9-1.4V585a2.18,2.18,0,0,0,.8.5,1.54,1.54,0,0,0-1,1.5m1.1-16.9v.5h0l-.2-.1a.76.76,0,0,0,.2-.4m-.1,12.4a1.69,1.69,0,0,0-.9,1.4v.1a1,1,0,0,0-.5-.4,1.6,1.6,0,0,0,.8-1.4h0a.86.86,0,0,0,.6.3m-1.2-1.5h0l-.3-.3a1.75,1.75,0,0,0,.7-1.4h0a.76.76,0,0,0,.4.2,1.9,1.9,0,0,0-.8,1.5m0-4.4h0l.3.2c-.1.1-.3.2-.4.4a1.27,1.27,0,0,0,.1-.6m-.3,1v.4h0l-.2-.1c0-.1.1-.2.2-.3m-1.8,6.1c.1.1.2.1.3.2l-.3.3a.45.45,0,0,1,0-.5m-.1,2.8h0a1.38,1.38,0,0,0,.4.3,2.65,2.65,0,0,0-.6.5,2.35,2.35,0,0,0,.2-.8m-.5-1.6v.4l-.2-.2.2-.2m.3,2.5a1.85,1.85,0,0,0-.2.7h0l-.3-.3a.66.66,0,0,0,.5-.4m.2,1.9h0a1.76,1.76,0,0,0,.5.4,1.66,1.66,0,0,0-1,1.4v.1c-.1-.2-.3-.3-.4-.4a1.65,1.65,0,0,0,.9-1.5m-.1,2.8v-.3a1.79,1.79,0,0,0,.7.5,1.5,1.5,0,0,0-1,1.4v.3a1.34,1.34,0,0,0-.6-.7,1.51,1.51,0,0,0,.9-1.4m-2.5-1.6.2.2-.3.2c0-.2,0-.3.1-.4m-.2,2.7.3.3a1.38,1.38,0,0,0-.4.3c0-.2.1-.4.1-.6m-.4-1.5v.3l-.2-.1.2-.2m0,2.6a1.27,1.27,0,0,0-.1.6h0l-.3-.3a1.38,1.38,0,0,0,.4-.3m.2,1.5h0c.1.2.3.3.4.4a1.42,1.42,0,0,0-.9,1.4v.1a1.76,1.76,0,0,0-.4-.5,1.42,1.42,0,0,0,.9-1.4m-3.2,3.6c.1.1.1.2.2.3-.1.1-.3.1-.3.3a1.49,1.49,0,0,0,.1-.6m-.5,1.1v.5h0c0-.1-.1-.2-.2-.3l.2-.2m-3.3,4.3c.1.1.1.2.2.3l-.3.2a.75.75,0,0,0,.1-.5m-4.5,4.1.2-.1v.4a1.14,1.14,0,0,0,.3.8,1,1,0,0,0-.5.4,1.2,1.2,0,0,0,.2-.8v-.6m-3.7,2.4h.1v.3a1.85,1.85,0,0,0,.2.7,1.38,1.38,0,0,0-.4.3,1.85,1.85,0,0,0,.2-.7,1.27,1.27,0,0,0-.1-.6m-2.8,1.1" transform="translate(578.8 -503.4)"/><path d="M-232.1,535.1a1.11,1.11,0,0,0,1.1,1.1,1.11,1.11,0,0,0,1.1-1.1A1.11,1.11,0,0,0-231,534a1.11,1.11,0,0,0-1.1,1.1h0" transform="translate(578.8 -503.4)"/><path d="M-222.9,525a.9.9,0,0,0,.9-.9.9.9,0,0,0-.9-.9.9.9,0,0,0-.9.9h0a.9.9,0,0,0,.9.9" transform="translate(578.8 -503.4)"/><path d="M-211.4,578.6a.32.32,0,0,0,.3-.3.32.32,0,0,0-.3-.3.32.32,0,0,0-.3.3.27.27,0,0,0,.3.3" transform="translate(578.8 -503.4)"/><path d="M-210.3,549.8c.2,0,.3-.2.3-.4a.32.32,0,0,0-.3-.3.45.45,0,0,0-.4.3.43.43,0,0,0,.4.4h0" transform="translate(578.8 -503.4)"/><path d="M-216,518.7a.65.65,0,0,0,.6-.6h0a.65.65,0,0,0-.6-.6.65.65,0,0,0-.6.6.65.65,0,0,0,.6.6h0" transform="translate(578.8 -503.4)"/><path d="M-210.2,564.3a.27.27,0,0,0,.3-.3.27.27,0,0,0-.3-.3.27.27,0,0,0-.3.3.32.32,0,0,0,.3.3h0" transform="translate(578.8 -503.4)"/><path d="M-210.3,539.7a.43.43,0,0,0,.4-.4.43.43,0,0,0-.4-.4h0a.43.43,0,0,0-.4.4c.1.2.2.4.4.4" transform="translate(578.8 -503.4)"/><path d="M-210.6,559.5c0-.2-.2-.3-.4-.3a.32.32,0,0,0-.3.3.45.45,0,0,0,.3.4.43.43,0,0,0,.4-.4h0" transform="translate(578.8 -503.4)"/><path d="M-211.7,534.8a.43.43,0,0,0-.4.4h0a.38.38,0,0,0,.3.5.38.38,0,0,0,.5-.3v-.2a.37.37,0,0,0-.4-.4h0" transform="translate(578.8 -503.4)"/><path d="M-211.8,574.2a.27.27,0,0,0,.3-.3.27.27,0,0,0-.3-.3h0a.27.27,0,0,0-.3.3.27.27,0,0,0,.3.3h0" transform="translate(578.8 -503.4)"/><path d="M-211.9,545.3a.43.43,0,0,0,.4.4.43.43,0,0,0,.4-.4.43.43,0,0,0-.4-.4h0a.43.43,0,0,0-.4.4" transform="translate(578.8 -503.4)"/><path d="M-212.3,555.2a.43.43,0,0,0,.4.4.43.43,0,0,0,.4-.4.43.43,0,0,0-.4-.4h0a.43.43,0,0,0-.4.4" transform="translate(578.8 -503.4)"/><path d="M-211.2,529.4a.43.43,0,0,0,.4.4.43.43,0,0,0,.4-.4.43.43,0,0,0-.4-.4.43.43,0,0,0-.4.4" transform="translate(578.8 -503.4)"/><path d="M-215.4,527.4a.75.75,0,0,0,.7.5c.2,0,.4-.2.5-.5s-.1-.6-.5-.7-.6.1-.7.5v.2" transform="translate(578.8 -503.4)"/><path d="M-214.2,522.3a.58.58,0,0,0,.6-.6.53.53,0,0,0-.6-.6.58.58,0,0,0-.6.6c.1.3.3.6.6.6h0" transform="translate(578.8 -503.4)"/><path d="M-211.3,508.5a.43.43,0,0,0,.4-.4h0a.43.43,0,0,0-.4-.4.43.43,0,0,0-.4.4h0a.37.37,0,0,0,.4.4h0" transform="translate(578.8 -503.4)"/><path d="M-215.6,513.1a.58.58,0,0,0,.6-.6h0a.59.59,0,0,0-.5-.7.59.59,0,0,0-.7.5v.2a.65.65,0,0,0,.6.6" transform="translate(578.8 -503.4)"/><path d="M-213.7,516.5a.47.47,0,0,0,.5-.5.47.47,0,0,0-.5-.5.47.47,0,0,0-.5.5c-.1.3.2.5.5.5" transform="translate(578.8 -503.4)"/><path d="M-213.4,510.9a.47.47,0,0,0,.5-.5.47.47,0,0,0-.5-.5.56.56,0,0,0-.5.6h0c0,.2.3.4.5.4" transform="translate(578.8 -503.4)"/><path d="M-211.6,514.3a.49.49,0,0,0,.6-.3c.1-.3-.1-.5-.4-.6h-.2a.43.43,0,0,0-.4.4.46.46,0,0,0,.4.5" transform="translate(578.8 -503.4)"/><path d="M-211.9,520.1c.2,0,.5-.2.5-.4h0a.49.49,0,0,0-.3-.6c-.3-.1-.5.1-.6.4v.2a.43.43,0,0,0,.4.4h0" transform="translate(578.8 -503.4)"/><path d="M-212.5,526a.47.47,0,0,0,.5-.5.47.47,0,0,0-.5-.5h0a.47.47,0,0,0-.5.5c.1.2.3.5.5.5" transform="translate(578.8 -503.4)"/><path d="M-241.1,536a1.54,1.54,0,0,0,1.5-1.5,1.54,1.54,0,0,0-1.5-1.5h0a1.54,1.54,0,0,0-1.5,1.5,1.61,1.61,0,0,0,1.5,1.5h0" transform="translate(578.8 -503.4)"/><path d="M-259.7,617.3a.43.43,0,0,0,.4-.4.43.43,0,0,0-.4-.4.43.43,0,0,0-.4.4h0a.37.37,0,0,0,.4.4h0" transform="translate(578.8 -503.4)"/><path d="M-260.8,604.2a1.24,1.24,0,0,0,1.2,1.3,1.24,1.24,0,0,0,1.3-1.2,1.24,1.24,0,0,0-1.2-1.3h0a1.24,1.24,0,0,0-1.3,1.2" transform="translate(578.8 -503.4)"/><path d="M-258.4,614.6a.58.58,0,0,0-.6-.6.58.58,0,0,0-.6.6.58.58,0,0,0,.6.6q.6-.15.6-.6h0" transform="translate(578.8 -503.4)"/><path d="M-257.4,612a1,1,0,0,0-.8-.9,1,1,0,0,0-.9.8c-.1.4.4.8.8.9h0a1,1,0,0,0,.9-.8" transform="translate(578.8 -503.4)"/><path d="M-256.6,609.3a1,1,0,0,0-1-1,.94.94,0,0,0-1,1h0a1,1,0,0,0,1,1c.6,0,.9-.5,1-1h0" transform="translate(578.8 -503.4)"/><path d="M-255.6,596.2a1.32,1.32,0,0,0,1.3-1.3h0a1.32,1.32,0,0,0-1.3-1.3,1.32,1.32,0,0,0-1.3,1.3,1.32,1.32,0,0,0,1.3,1.3h0" transform="translate(578.8 -503.4)"/><path d="M-258.5,597.1a1.37,1.37,0,0,0,1.4-1.4,1.37,1.37,0,0,0-1.4-1.4,1.37,1.37,0,0,0-1.4,1.4h0a1.43,1.43,0,0,0,1.4,1.4" transform="translate(578.8 -503.4)"/><path d="M-258.3,591.3a1.54,1.54,0,0,0-1.5,1.5,1.54,1.54,0,0,0,1.5,1.5,1.54,1.54,0,0,0,1.5-1.5,1.54,1.54,0,0,0-1.5-1.5h0" transform="translate(578.8 -503.4)"/><path d="M-256.6,617.3a.32.32,0,0,0,.3-.3c0-.2-.1-.4-.3-.4s-.4.1-.4.3.1.4.4.4c-.1.1,0,.1,0,0" transform="translate(578.8 -503.4)"/><path d="M-259.1,602.7a1.32,1.32,0,0,0,1.3-1.3,1.32,1.32,0,0,0-1.3-1.3h0a1.32,1.32,0,0,0-1.3,1.3,1.26,1.26,0,0,0,1.3,1.3h0" transform="translate(578.8 -503.4)"/><path d="M-258.8,599.9a1.37,1.37,0,0,0,1.4-1.4,1.37,1.37,0,0,0-1.4-1.4,1.37,1.37,0,0,0-1.4,1.4h0a1.43,1.43,0,0,0,1.4,1.4h0" transform="translate(578.8 -503.4)"/><path d="M-252.8,614.8a.43.43,0,0,0,.4-.4.43.43,0,0,0-.4-.4.43.43,0,0,0-.4.4.43.43,0,0,0,.4.4" transform="translate(578.8 -503.4)"/><path d="M-250.7,608.7a.79.79,0,0,0-.8-.8.79.79,0,0,0-.8.8.79.79,0,0,0,.8.8.86.86,0,0,0,.8-.8h0" transform="translate(578.8 -503.4)"/><path d="M-248.6,611.4a.47.47,0,0,0-.5-.5.47.47,0,0,0-.5.5.63.63,0,0,0,.5.6.63.63,0,0,0,.5-.6h0" transform="translate(578.8 -503.4)"/><path d="M-250,605.7a1,1,0,0,0-.9-1,1,1,0,0,0-1,.9,1,1,0,0,0,.9,1h0a.92.92,0,0,0,1-.9" transform="translate(578.8 -503.4)"/><path d="M-249.8,614.7a.32.32,0,0,0,.3-.3.32.32,0,0,0-.3-.3.32.32,0,0,0-.3.3h0a.27.27,0,0,0,.3.3" transform="translate(578.8 -503.4)"/><path d="M-253.6,617.3a.27.27,0,0,0,.3-.3.27.27,0,0,0-.3-.3.32.32,0,0,0-.3.3.32.32,0,0,0,.3.3" transform="translate(578.8 -503.4)"/><path d="M-254,605.1a.94.94,0,0,0-1,1,1,1,0,0,0,1,1h0a1,1,0,0,0,1-1h0a.94.94,0,0,0-1-1h0" transform="translate(578.8 -503.4)"/><path d="M-253.7,609a.9.9,0,0,0-.9-.9h0a.9.9,0,0,0-.9.9.9.9,0,0,0,.9.9.9.9,0,0,0,.9-.9" transform="translate(578.8 -503.4)"/><path d="M-254.5,611.8a.68.68,0,0,0-.7-.7.68.68,0,0,0-.7.7.68.68,0,0,0,.7.7h0a.68.68,0,0,0,.7-.7" transform="translate(578.8 -503.4)"/><path d="M-255.9,615a.46.46,0,0,0,.4-.5.43.43,0,0,0-.4-.4h0c-.2,0-.5.2-.5.4h0c.1.3.3.5.5.5" transform="translate(578.8 -503.4)"/><path d="M-251.5,611.6a.65.65,0,0,0-.6-.6h0a.75.75,0,0,0-.7.6c0,.4.3.6.7.7a.86.86,0,0,0,.6-.7" transform="translate(578.8 -503.4)"/><path d="M-243.6,539.3a1.54,1.54,0,0,0,1.5,1.5,1.54,1.54,0,0,0,1.5-1.5,1.54,1.54,0,0,0-1.5-1.5h0a1.47,1.47,0,0,0-1.5,1.5" transform="translate(578.8 -503.4)"/><path d="M-244.4,561.3a1.37,1.37,0,0,0,1.4-1.4h0a1.37,1.37,0,0,0-1.4-1.4h0a1.37,1.37,0,0,0-1.4,1.4h0a1.43,1.43,0,0,0,1.4,1.4" transform="translate(578.8 -503.4)"/><path d="M-240.8,543.8a1.37,1.37,0,0,0,1.4-1.4h0a1.37,1.37,0,0,0-1.4-1.4h0a1.37,1.37,0,0,0-1.4,1.4h0a1.36,1.36,0,0,0,1.4,1.4" transform="translate(578.8 -503.4)"/><path d="M-246.7,556.7a1.54,1.54,0,0,0,1.5,1.5,1.54,1.54,0,0,0,1.5-1.5,1.54,1.54,0,0,0-1.5-1.5h0a1.54,1.54,0,0,0-1.5,1.5" transform="translate(578.8 -503.4)"/><path d="M-245.1,552a1.54,1.54,0,0,0,1.5,1.5,1.54,1.54,0,0,0,1.5-1.5,1.54,1.54,0,0,0-1.5-1.5,1.54,1.54,0,0,0-1.5,1.5h0" transform="translate(578.8 -503.4)"/><path d="M-243.6,547.2a1.45,1.45,0,0,0,1.4,1.5,1.45,1.45,0,0,0,1.5-1.4,1.45,1.45,0,0,0-1.4-1.5h0a1.39,1.39,0,0,0-1.5,1.4" transform="translate(578.8 -503.4)"/><path d="M-255.4,593.2a1.37,1.37,0,0,0,1.4-1.4,1.37,1.37,0,0,0-1.4-1.4,1.37,1.37,0,0,0-1.4,1.4,1.37,1.37,0,0,0,1.4,1.4h0" transform="translate(578.8 -503.4)"/><path d="M-234.8,532.5a1.32,1.32,0,0,0-1.3,1.3,1.32,1.32,0,0,0,1.3,1.3,1.32,1.32,0,0,0,1.3-1.3,1.26,1.26,0,0,0-1.3-1.3" transform="translate(578.8 -503.4)"/><path d="M-232.5,530.6a1.16,1.16,0,0,0-1.2,1.2,1.16,1.16,0,0,0,1.2,1.2,1.16,1.16,0,0,0,1.2-1.2,1.16,1.16,0,0,0-1.2-1.2h0" transform="translate(578.8 -503.4)"/><path d="M-237.3,534.2a1.37,1.37,0,0,0-1.4,1.4,1.37,1.37,0,0,0,1.4,1.4,1.37,1.37,0,0,0,1.4-1.4h0a1.43,1.43,0,0,0-1.4-1.4" transform="translate(578.8 -503.4)"/><path d="M-239.7,536a1.37,1.37,0,0,0-1.4,1.4h0a1.37,1.37,0,0,0,1.4,1.4,1.37,1.37,0,0,0,1.4-1.4h0a1.37,1.37,0,0,0-1.4-1.4h0" transform="translate(578.8 -503.4)"/><path d="M-230,573a.9.9,0,0,0,.9-.9.9.9,0,0,0-.9-.9.9.9,0,0,0-.9.9h0a.9.9,0,0,0,.9.9" transform="translate(578.8 -503.4)"/><path d="M-252.7,579.9a1.54,1.54,0,0,0-1.5,1.5,1.54,1.54,0,0,0,1.5,1.5,1.54,1.54,0,0,0,1.5-1.5h0a1.54,1.54,0,0,0-1.5-1.5h0" transform="translate(578.8 -503.4)"/><path d="M-247.7,564.6a1.45,1.45,0,0,0,1.5,1.4,1.54,1.54,0,0,0,1.5-1.5,1.54,1.54,0,0,0-1.5-1.5,1.62,1.62,0,0,0-1.5,1.6h0" transform="translate(578.8 -503.4)"/><path d="M-255.3,590.2a1.37,1.37,0,0,0,1.4-1.4,1.37,1.37,0,0,0-1.4-1.4,1.37,1.37,0,0,0-1.4,1.4h0a1.36,1.36,0,0,0,1.4,1.4" transform="translate(578.8 -503.4)"/><path d="M-252.5,585.9a1.37,1.37,0,0,0,1.4-1.4,1.37,1.37,0,0,0-1.4-1.4,1.37,1.37,0,0,0-1.4,1.4,1.37,1.37,0,0,0,1.4,1.4" transform="translate(578.8 -503.4)"/><path d="M-249.8,569.3a1.54,1.54,0,0,0,1.5,1.5,1.54,1.54,0,0,0,1.5-1.5,1.54,1.54,0,0,0-1.5-1.5h0a1.47,1.47,0,0,0-1.5,1.5" transform="translate(578.8 -503.4)"/><path d="M-252.1,573.8a1.54,1.54,0,0,0,1.5,1.5,1.54,1.54,0,0,0,1.5-1.5,1.54,1.54,0,0,0-1.5-1.5h0a1.54,1.54,0,0,0-1.5,1.5" transform="translate(578.8 -503.4)"/><path d="M-250.2,578.4a1.45,1.45,0,0,0,1.5-1.4,1.45,1.45,0,0,0-1.4-1.5,1.45,1.45,0,0,0-1.5,1.4h0a1.39,1.39,0,0,0,1.4,1.5" transform="translate(578.8 -503.4)"/><path d="M-249.9,581.6a1.37,1.37,0,0,0,1.4-1.4,1.37,1.37,0,0,0-1.4-1.4,1.37,1.37,0,0,0-1.4,1.4h0a1.37,1.37,0,0,0,1.4,1.4h0" transform="translate(578.8 -503.4)"/><path d="M-255.4,584.2a1.54,1.54,0,0,0-1.5,1.5,1.54,1.54,0,0,0,1.5,1.5,1.54,1.54,0,0,0,1.5-1.5h0a1.47,1.47,0,0,0-1.5-1.5" transform="translate(578.8 -503.4)"/><path d="M-234.8,600a.67.67,0,0,0-.7-.6.67.67,0,0,0-.6.7.65.65,0,0,0,.6.6.84.84,0,0,0,.7-.7" transform="translate(578.8 -503.4)"/><path d="M-235.3,603.6a.47.47,0,0,0-.5-.5h0a.63.63,0,0,0-.6.5.63.63,0,0,0,.5.6q.6-.15.6-.6h0" transform="translate(578.8 -503.4)"/><path d="M-234.4,596.4a.68.68,0,0,0-.7-.7.68.68,0,0,0-.7.7.68.68,0,0,0,.7.7h0a.68.68,0,0,0,.7-.7" transform="translate(578.8 -503.4)"/><path d="M-234.2,592.7a.86.86,0,0,0-.8-.8.86.86,0,0,0-.8.8.86.86,0,0,0,.8.8.74.74,0,0,0,.8-.8" transform="translate(578.8 -503.4)"/><path d="M-234.8,588.2a.9.9,0,0,0-.9.9.9.9,0,0,0,.9.9.9.9,0,0,0,.9-.9.9.9,0,0,0-.9-.9" transform="translate(578.8 -503.4)"/><path d="M-235.1,570.9a1.22,1.22,0,0,0-1.2-1.2,1.16,1.16,0,0,0-1.2,1.2,1.22,1.22,0,0,0,1.2,1.2,1.22,1.22,0,0,0,1.2-1.2" transform="translate(578.8 -503.4)"/><path d="M-237.9,585.3a.94.94,0,0,0-1,1,.94.94,0,0,0,1,1,.94.94,0,0,0,1-1,.94.94,0,0,0-1-1" transform="translate(578.8 -503.4)"/><path d="M-234.9,584.5a1,1,0,0,0-.8,1.1,1.09,1.09,0,0,0,.8.8,1,1,0,0,0,1.1-.8,1,1,0,0,0-.8-1.1.19.19,0,0,0-.3,0" transform="translate(578.8 -503.4)"/><path d="M-235.7,575.5a1.11,1.11,0,0,0,1.1-1.1,1.11,1.11,0,0,0-1.1-1.1,1.11,1.11,0,0,0-1.1,1.1,1.11,1.11,0,0,0,1.1,1.1" transform="translate(578.8 -503.4)"/><path d="M-236.3,607.5a.43.43,0,0,0,.4-.4.43.43,0,0,0-.4-.4h0c-.2-.1-.4.1-.5.3s.1.4.3.5h.2" transform="translate(578.8 -503.4)"/><path d="M-229.6,568.3a1.07,1.07,0,0,0-1-1,1,1,0,0,0-1,1h0a1,1,0,0,0,1,1h0a1,1,0,0,0,1-1h0" transform="translate(578.8 -503.4)"/><path d="M-231.3,592a.68.68,0,0,0-.7-.7c-.4.1-.7.4-.6.8a.9.9,0,0,0,.6.6c.4.1.7-.3.7-.7" transform="translate(578.8 -503.4)"/><path d="M-231.5,595.8a.65.65,0,0,0-.6-.6h0a.69.69,0,0,0-.8.5.75.75,0,0,0,.5.8h.2a.84.84,0,0,0,.7-.7h0" transform="translate(578.8 -503.4)"/><path d="M-231.9,587.5a.86.86,0,0,0-.8.8.86.86,0,0,0,.8.8.86.86,0,0,0,.8-.8h0a.86.86,0,0,0-.8-.8" transform="translate(578.8 -503.4)"/><path d="M-237.9,588.9a.9.9,0,0,0-.9.9,1.06,1.06,0,0,0,.9,1,1,1,0,0,0,1-1h0a.92.92,0,0,0-1-.9h0" transform="translate(578.8 -503.4)"/><path d="M-232.3,569.6a1,1,0,0,0-1-1.1,1,1,0,0,0-1.1,1,1,1,0,0,0,1,1.1h0a1.1,1.1,0,0,0,1.1-1h0" transform="translate(578.8 -503.4)"/><path d="M-232.9,574.2a.94.94,0,0,0,1-1,.94.94,0,0,0-1-1,.94.94,0,0,0-1,1h0a1.07,1.07,0,0,0,1,1" transform="translate(578.8 -503.4)"/><path d="M-233.2,607a.22.22,0,0,0,.2-.2h0c0-.1-.1-.2-.2-.3h0a.32.32,0,0,0-.3.3h0c0,.1.1.2.3.2h0" transform="translate(578.8 -503.4)"/><path d="M-232.3,603.2a.43.43,0,0,0-.4-.4.43.43,0,0,0-.4.4.43.43,0,0,0,.4.4.43.43,0,0,0,.4-.4" transform="translate(578.8 -503.4)"/><path d="M-231.9,599.5a.47.47,0,0,0-.5-.5.63.63,0,0,0-.6.5h0a.58.58,0,0,0,.6.6h0a.56.56,0,0,0,.5-.6h0" transform="translate(578.8 -503.4)"/><path d="M-237.7,600.5a.68.68,0,0,0-.7-.7.68.68,0,0,0-.7.7.68.68,0,0,0,.7.7h0a.68.68,0,0,0,.7-.7" transform="translate(578.8 -503.4)"/><path d="M-244.1,604.8a.78.78,0,0,0-.9-.6c-.3.1-.6.3-.6.6a.78.78,0,0,0,.6.9.78.78,0,0,0,.9-.6v-.3" transform="translate(578.8 -503.4)"/><path d="M-244.8,608.1a.68.68,0,0,0-.7-.7.68.68,0,0,0-.7.7.68.68,0,0,0,.7.7h0a.84.84,0,0,0,.7-.7h0" transform="translate(578.8 -503.4)"/><path d="M-246,611.6a.46.46,0,0,0,.4-.5.43.43,0,0,0-.4-.4.49.49,0,0,0-.6.3.49.49,0,0,0,.3.6h.3" transform="translate(578.8 -503.4)"/><path d="M-243.6,601.5a.9.9,0,0,0-.9-.9.9.9,0,0,0-.9.9.9.9,0,0,0,.9.9.9.9,0,0,0,.9-.9h0" transform="translate(578.8 -503.4)"/><path d="M-243.2,598.2a1,1,0,0,0-.8-1.1,1,1,0,0,0-1.1.8v.3a1,1,0,0,0,1.1.8c.4,0,.7-.4.8-.8" transform="translate(578.8 -503.4)"/><path d="M-247.1,605.2a.9.9,0,0,0-.9-.9c-.5,0-.8.4-.9.9a.9.9,0,0,0,.9.9.9.9,0,0,0,.9-.9h0" transform="translate(578.8 -503.4)"/><path d="M-243,611.3a.32.32,0,0,0,.3-.3.32.32,0,0,0-.3-.3.32.32,0,0,0-.3.3.32.32,0,0,0,.3.3" transform="translate(578.8 -503.4)"/><path d="M-237.1,593.4a.9.9,0,0,0-.9-.9.9.9,0,0,0-.9.9.9.9,0,0,0,.9.9.9.9,0,0,0,.9-.9h0" transform="translate(578.8 -503.4)"/><path d="M-246.7,614.6c.1,0,.2-.1.3-.2h0a.32.32,0,0,0-.3-.3.32.32,0,0,0-.3.3h0c0,.1.1.2.3.2h0" transform="translate(578.8 -503.4)"/><path d="M-246.4,602.1a1,1,0,0,0-1-1,1,1,0,0,0-1,1,1,1,0,0,0,1,1h0a1.07,1.07,0,0,0,1-1h0" transform="translate(578.8 -503.4)"/><path d="M-239.9,611a.22.22,0,0,0,.2-.2h0c0-.1-.1-.2-.2-.3a.32.32,0,0,0-.3.3h0c0,.1.1.2.3.2h0" transform="translate(578.8 -503.4)"/><path d="M-238.2,604a.65.65,0,0,0-.6-.6c-.3.1-.6.4-.5.7s.2.4.5.5a.65.65,0,0,0,.6-.6" transform="translate(578.8 -503.4)"/><path d="M-247.7,608.3a.68.68,0,0,0-.7-.7.68.68,0,0,0-.7.7.68.68,0,0,0,.7.7c.3.1.6-.2.7-.7h0" transform="translate(578.8 -503.4)"/><path d="M-237.4,597a.86.86,0,0,0-.8-.8.86.86,0,0,0-.8.8h0a.86.86,0,0,0,.8.8.79.79,0,0,0,.8-.8" transform="translate(578.8 -503.4)"/><path d="M-239.3,607.9a.47.47,0,0,0,.5-.5.43.43,0,0,0-.4-.4h0c-.2,0-.5.2-.5.4h0c-.1.2.1.5.4.5h0" transform="translate(578.8 -503.4)"/><path d="M-241.8,607.7a.63.63,0,0,0-.5-.6h0a.65.65,0,0,0-.6.6.58.58,0,0,0,.6.6.56.56,0,0,0,.5-.6h0" transform="translate(578.8 -503.4)"/><path d="M-240.7,601.1a.86.86,0,0,0-.8-.8.86.86,0,0,0-.8.8.86.86,0,0,0,.8.8.79.79,0,0,0,.8-.8h0" transform="translate(578.8 -503.4)"/><path d="M-241.2,604.4c.1-.4-.2-.7-.6-.8s-.7.2-.8.6v.3c-.1.4.2.7.6.8s.7-.2.8-.6v-.3" transform="translate(578.8 -503.4)"/><path d="M-240.3,597.6a.9.9,0,0,0-.9-.9.9.9,0,0,0-.9.9.9.9,0,0,0,.9.9.9.9,0,0,0,.9-.9h0" transform="translate(578.8 -503.4)"/><path d="M-240,594.1a1,1,0,0,0-1-1h0a1,1,0,0,0-.8,1,1,1,0,0,0,1,1h0a1,1,0,0,0,1-1h0" transform="translate(578.8 -503.4)"/><path d="M-61.8,732.3V665.6c0-5.3,4.1-5.3,6-5.3v-1.7H-79.5v1.7c1.9,0,6,0,6,5.3v66.7c0,5.2-4.2,5.2-6,5.2v1.8h23.7v-1.8c-1.9,0-6,0-6-5.2" transform="translate(578.8 -503.4)"/><path d="M-142.7,658.6h-21.2v1.7c10.3,0,7.6,6.7,6.3,10.7-2.8,8.8-18.6,56.9-18.6,56.9h-.2l-19.7-58.7a26.36,26.36,0,0,1-1.5-5.5c0-2.3,1.5-3.6,6.1-3.6v-1.7h-24.2v1.7c5.3,0,5.9,2.9,7,5.6l26,74.1h7.4s22.1-67.4,23.9-73.1c1.7-5.4,4.4-6.7,8.7-6.7Z" transform="translate(578.8 -503.4)"/><path d="M-114.2,692.1c-14.6-3.1-20.4-4.9-20.4-13.9s7.7-16.3,20.5-16.3a20.17,20.17,0,0,1,20.3,16.9H-92l-.5-17.4c-5.1-2.8-14.7-4.1-19.7-4.1-19.1,0-31.5,10.8-31.5,23.2,0,15.2,11,19.1,31.5,23.2,8.2,1.7,15.1,4.1,15.1,14.2,0,12.9-11.1,17.9-19.7,17.9-12.4,0-20.9-8.6-23.8-20.6h-1.9l.7,19.4a42,42,0,0,0,21.6,5.9c22.1,0,32-11.6,32-25.6.1-16.7-11.2-19.8-26-22.8" transform="translate(578.8 -503.4)"/><path d="M-17.3,732.7-50.4,695s23.1-25.2,25.6-27.9c3.6-3.9,6.6-6.7,11.5-6.7v-1.7H-36.2v1.7c9.9,0,6.8,4.8,5.1,6.7L-60.3,699l35.1,40.4h16v-1.8c-3.7-.1-5.5-1.9-8.1-4.9" transform="translate(578.8 -503.4)"/><path d="M21.1,660.3v-1.7H-2.6v1.7c1.9,0,6.1,0,6.1,5.3v66.7c0,5.3-4.3,5.3-6.1,5.3v1.8H21.1v-1.8c-1.9,0-6,0-6-5.2V665.7c0-5.4,4.1-5.4,6-5.4" transform="translate(578.8 -503.4)"/><path d="M-418.3,660.3v-1.7h-21.8v1.7c7.9,0,9.8,3.1,7,12.9-1.2,3.8-16,54.8-16,54.8h-.2s-15.8-52.2-17-56.4c-1.6-5.6-4.4-11.3,5.3-11.3v-1.7h-27.8v1.7c4.5,0,7.7,1.4,9.3,5.6,1,2.6,7,19.7,7,21.9s-7.4,26.2-11,39.1h-.2s-16-51-17.7-56.6a28,28,0,0,1-1.7-6.3c0-2.3,1.7-3.7,5.6-3.7v-1.7h-23.9v1.7c5.4,0,6.7,3.5,8.2,8l22.9,71.7h8l12.4-45.9h.3L-456,740h8.3l20.6-71.1c1.6-5.5,5.1-8.6,8.8-8.6" transform="translate(578.8 -503.4)"/><path d="M-549.4,692.1c-14.6-3.1-20.4-4.9-20.4-13.9s7.7-16.3,20.6-16.3A20.06,20.06,0,0,1-529,678.8h1.8l-.5-17.2c-5-2.8-14.7-4.1-19.7-4.1-19.1-.1-31.4,10.7-31.4,23.1,0,15.2,11,19.1,31.5,23.2,8.2,1.9,15,4.3,15,14.3,0,12.9-11,17.9-19.7,17.9-12.4,0-20.9-8.6-23.8-20.6h-1.8l.7,19.4a41.06,41.06,0,0,0,21.6,5.9c22.1,0,32.1-11.6,32.1-25.6-.1-16.7-11.4-19.9-26.2-23" transform="translate(578.8 -503.4)"/><path d="M-298.3,728.6l-21.4-29c12.9-.6,22.5-9.3,22.5-22,0-10.4-9.1-19-26.1-19H-353v1.7c2.8,0,6,.6,6,5.3v66.7h0c0,5.2-4.2,5.2-6,5.2v1.8h23.7v-1.8c-1.9,0-6,0-6-5.3v-69h6.4c14.5,0,20.9,5.8,20.9,16.3,0,9.6-4.3,17.8-24.4,17.8l29.6,41.8h15.2v-1.8c-3.4,0-7.2-4.2-10.8-9" transform="translate(578.8 -503.4)"/><path d="M-366.6,727.4l-25-68.9h-14.3v1.7c1.8,0,4,.5,4,3.6a12.3,12.3,0,0,1-1,4.3c-.3,1.1-21.1,61-21.1,61-2.3,7-4.3,8.3-9.3,8.3v1.8h21.2v-1.8c-5.7,0-7.4-2.2-7.4-4.1a23,23,0,0,1,1.8-7.4l6.1-18h27.1l5.1,14.6c2.5,7,3.3,9,3.3,11.3s-1.1,3.7-6,3.7v1.8h24.3v-1.8c-5.4.1-5.7-1.7-8.8-10.1m-43.4-24,11.9-34.4h.2l11.8,34.4Z" transform="translate(578.8 -503.4)"/><path d="M-249.5,657.3c-18.4,0-38.9,17.4-38.9,41.8,0,22.6,13.3,41.4,37.2,41.4,23.5,0,38.6-21.1,38.6-42.6-.1-18.2-10.6-40.6-36.9-40.6m2,76.9c-16.5,0-31.4-21.8-31.4-39.5,0-24.9,15.2-30.5,24.9-30.5,16.2,0,30.4,16.3,30.4,38.2,0,19.9-8.5,31.8-23.9,31.8" transform="translate(578.8 -503.4)"/></svg>