<svg xmlns="http://www.w3.org/2000/svg" viewBox="0 0 600 111.7"><defs><style>.cls-1{fill:#0a1633;}.cls-1,.cls-2{fill-rule:evenodd;}.cls-2,.cls-3{fill:#161616;}</style></defs><g id="Layer_2" data-name="Layer 2"><g id="layer"><path class="cls-1" d="M26.1,110.3a11.8,11.8,0,0,0,2.8-.4,1.71,1.71,0,0,0,1.2-1.8V88.7a1.78,1.78,0,0,0-1.2-1.8,12.76,12.76,0,0,0-2.8-.7v-.8h13v.8a27.41,27.41,0,0,0-2.8.5,1.63,1.63,0,0,0-1.1,1.8v19.4a1.83,1.83,0,0,0,1.1,1.8,19.55,19.55,0,0,0,2.8.6v.8h-13ZM53.2,94.6v10.7c0,2.3.4,3.6,1,4.2a10.6,10.6,0,0,0,3,1v.7h-9v-.7a14.73,14.73,0,0,0,2.8-.8c.7-.5,1-1.8,1-4.2V94.9a3.41,3.41,0,0,0-.9-2.4A8,8,0,0,0,48,91.1v-.7h6.9l12,15.1V96.2c0-2.2-.4-3.7-1-4.1a8,8,0,0,0-3-.9v-.7h9v.7a10.86,10.86,0,0,0-2.8.8c-.7.5-1,2-1,4.1v15.3H66.5Zm27.6,15.9a13,13,0,0,0,2.2-.3,1.42,1.42,0,0,0,.9-1.5V93.2a1.62,1.62,0,0,0-.9-1.6,10.43,10.43,0,0,0-2.1-.5v-.7H91c4.3,0,11.5,2.2,11.5,10.5,0,7.1-6.1,10.2-12.1,10.2H80.8Zm17.1-9.6c0-5.5-2.9-9.5-7.5-9.5a17,17,0,0,0-2.3.1v16.6c.1,1.4.9,2.2,2.9,2.2,4.8-.1,6.9-4,6.9-9.4Zm14.7,9.6a9.27,9.27,0,0,0,2.4-.4,1.42,1.42,0,0,0,.9-1.5V93.2a1.42,1.42,0,0,0-.9-1.5,21,21,0,0,0-2.4-.6v-.7H130v5h-.8c-.4-1.4-2-3.8-3.4-4a19.29,19.29,0,0,0-2.5-.1H120v8.6h2.3a3,3,0,0,0,2.6-.9,6.25,6.25,0,0,0,1-2.8h.8v8.5H126a8.15,8.15,0,0,0-1-3,3.2,3.2,0,0,0-2.6-.9H120v6.7c0,2.4.5,2.7,3.5,2.7,1.9,0,4,0,4.7-.7a14.06,14.06,0,0,0,2.6-4.5h.8l-.4,6.1H112.6Zm28.7,0a8.52,8.52,0,0,0,2.3-.4,1.5,1.5,0,0,0,1-1.5V93.1a1.39,1.39,0,0,0-1-1.5,18.92,18.92,0,0,0-2.3-.5v-.7h10.6c4.3,0,7.1,1.7,7.1,5,0,4.3-4.2,6.4-8.4,6.4h-1.9v6.7a1.42,1.42,0,0,0,.9,1.5,7.31,7.31,0,0,0,2.3.4v.7H141.3Zm8.4-9.6c3.9,0,4.7-2.7,4.7-4.7,0-2.6-.9-4.9-4.2-4.9h-1.6v9.6Zm19,9.6a9.27,9.27,0,0,0,2.4-.4,1.5,1.5,0,0,0,1-1.5V93.2a1.39,1.39,0,0,0-1-1.5,21,21,0,0,0-2.4-.6v-.7h17.4v5h-.8c-.4-1.4-2-3.8-3.4-4a20.9,20.9,0,0,0-2.5-.1h-3.2v8.6h2.3a3,3,0,0,0,2.6-.9,6.25,6.25,0,0,0,1-2.8h.8v8.5h-.8a8.15,8.15,0,0,0-1-3,3.2,3.2,0,0,0-2.6-.9h-2.3v6.7c0,2.4.5,2.7,3.5,2.7,1.9,0,4,0,4.7-.7A14.06,14.06,0,0,0,187,105h.8l-.4,6.1H168.7Zm33.1-15.9v10.7c0,2.3.4,3.6,1,4.2a10.6,10.6,0,0,0,3,1v.7h-9v-.7a14.73,14.73,0,0,0,2.8-.8c.7-.5,1-1.8,1-4.2V94.9a3.41,3.41,0,0,0-.9-2.4,8,8,0,0,0-3.1-1.4v-.7h6.9l12,15.1V96.2c0-2.2-.4-3.7-1-4.1a8,8,0,0,0-3-.9v-.7h9v.7a10.86,10.86,0,0,0-2.8.8c-.7.5-1,2-1,4.1v15.3H215Zm27.7,15.9a13,13,0,0,0,2.2-.3,1.5,1.5,0,0,0,1-1.5V93.2a1.57,1.57,0,0,0-1-1.6,10.43,10.43,0,0,0-2.1-.5v-.7h10.1c4.3,0,11.5,2.2,11.5,10.5,0,7.1-6.1,10.2-12.1,10.2h-9.6Zm17-9.6c0-5.5-2.9-9.5-7.5-9.5a17,17,0,0,0-2.3.1v16.6c.1,1.4,1,2.2,2.9,2.2,4.8-.1,6.9-4,6.9-9.4Zm14.8,9.6a9.27,9.27,0,0,0,2.4-.4,1.42,1.42,0,0,0,.9-1.5V93.2a1.42,1.42,0,0,0-.9-1.5,21,21,0,0,0-2.4-.6v-.7h17.4v5h-.8c-.4-1.4-2-3.8-3.4-4a20.9,20.9,0,0,0-2.5-.1h-3.2v8.6h2.3a3,3,0,0,0,2.6-.9,5.26,5.26,0,0,0,1-2.8h.8v8.5h-.8a8.15,8.15,0,0,0-1-3,3.2,3.2,0,0,0-2.6-.9h-2.3v6.7c0,2.4.5,2.7,3.5,2.7,1.9,0,4,0,4.7-.7a14.06,14.06,0,0,0,2.6-4.5h.8l-.4,6.1H261.4v-.6Zm33-15.9v10.7c0,2.3.4,3.6,1,4.2a10.6,10.6,0,0,0,3,1v.7h-9v-.7a14.73,14.73,0,0,0,2.8-.8c.7-.5,1-1.8,1-4.2V94.9a3.41,3.41,0,0,0-.9-2.4,8,8,0,0,0-3.1-1.4v-.7H296l12,15.1V96.2c0-2.2-.4-3.7-1-4.1a8.6,8.6,0,0,0-3-.9v-.7h9v.7a10.86,10.86,0,0,0-2.8.8c-.7.5-1,2-1,4.1v15.3h-1.6Zm30.9,15.9a10.05,10.05,0,0,0,2.5-.4,1.42,1.42,0,0,0,.9-1.5V91.4h-1.1a19.27,19.27,0,0,0-2.4.1c-1.3.2-3,3.1-3.3,4.4H321V90.5h19.1v5.4h-.8c-.4-1.3-2-4.3-3.3-4.4a19.27,19.27,0,0,0-2.4-.1h-1.1v17.1a1.42,1.42,0,0,0,.9,1.5,15.77,15.77,0,0,0,2.5.5v.7H325v-.7Zm25.6-1.8a2.9,2.9,0,1,1,2.9,2.9,2.9,2.9,0,0,1-2.9-2.9m38.5-2.7a8.17,8.17,0,0,0-.5,2.2c0,1.4,2.9,1.9,4.2,2.1v.8H382.6v-.8a8.39,8.39,0,0,0,2.6-.7,5.28,5.28,0,0,0,2.1-3c2-4.9,6.5-16.3,8.7-21.8h2.1c3,7.4,7.9,20.2,9,22.9a2.92,2.92,0,0,0,1.5,1.8,8,8,0,0,0,2.4.7v.8H398v-.8c1.3-.1,3.8-.6,3.8-1.5a1.88,1.88,0,0,0-.2-.8l-2.3-5.8h-8.8a33.47,33.47,0,0,1-1.2,3.9Zm9.7-5.2-4-10c-1.3,3.3-2.6,6.7-3.8,10Zm20.4,9.7a8.52,8.52,0,0,0,2.3-.4,1.5,1.5,0,0,0,1-1.5V93.2a1.39,1.39,0,0,0-1-1.5,15.45,15.45,0,0,0-2.3-.6v-.7h10.4v.7a17,17,0,0,0-2.2.4c-.8.2-.9.8-.9,1.5v14.5c0,2.5.4,2.7,3.5,2.7,1.7,0,3.5-.1,4.2-.8a19.52,19.52,0,0,0,2.8-4.6h.7l-.4,6.2h-18v-.5Zm27.5-17.3a2.48,2.48,0,0,0-1.2-1.5,6.64,6.64,0,0,0-2-.6v-.7h9.9v.7c-1.1.1-2.8.4-2.8,1.1,0,.2.1.6.1.8.3,1.1,2.5,7.8,4.2,12.9l4-10.8c-.2-1.2-.6-2.7-1.7-3.4a5.56,5.56,0,0,0-2.1-.6v-.7h10.1v.7c-1.1.1-2.9.4-2.9,1.1a2.49,2.49,0,0,0,.1.8c.3,1,2.6,7.8,4.3,12.9,1.3-3.6,3-8.5,3.6-10.3a9.06,9.06,0,0,0,.6-2.8c0-1.1-2-1.5-3.4-1.6v-.7h8.2v.7a6,6,0,0,0-1.9.6,4.26,4.26,0,0,0-1.7,2.6c-1,2.8-4.5,12.5-6.2,17.1h-1.7c-1.5-4.7-3.8-12-4.7-14.8l-5.5,14.8h-1.7c-1.7-6-4.9-16.2-5.6-18.3M485.3,107a8.57,8.57,0,0,0-.4,1.8c0,1.1,2.3,1.6,3.4,1.6v.7H480v-.7a9.65,9.65,0,0,0,2.1-.6,4.39,4.39,0,0,0,1.7-2.4c1.6-3.9,5.2-13.1,6.9-17.4h1.7c2.4,5.9,6.3,16.2,7.2,18.3a3.49,3.49,0,0,0,1.2,1.5,6.64,6.64,0,0,0,2,.6v.7H492.4v-.7c1-.1,3-.5,3-1.2a1.7,1.7,0,0,0-.1-.7l-1.8-4.7h-7.1a23.37,23.37,0,0,1-1.1,3.2Zm7.8-4.2-3.2-8c-1,2.7-2.1,5.3-3.1,8Zm20.4,7.7a10.05,10.05,0,0,0,2.5-.4,1.5,1.5,0,0,0,1-1.5v-4.8a5.38,5.38,0,0,0-.9-2.7c-1.3-2.5-2.6-5-4.1-7.4a6.48,6.48,0,0,0-1.9-2.1,4.49,4.49,0,0,0-1.9-.5v-.7H519v.7c-1.1.1-3.1.3-3.1,1a82.59,82.59,0,0,0,4.8,9c1.3-2.2,4.9-8,4.9-8.6,0-.9-1.7-1.3-3.1-1.4v-.7h7.9v.7a9.5,9.5,0,0,0-1.8.6,5.41,5.41,0,0,0-1.9,1.8c-.9,1.3-3.2,5.1-4.5,7.5a6.48,6.48,0,0,0-1,3.7v3.8a1.42,1.42,0,0,0,.9,1.5,9.23,9.23,0,0,0,2.5.5v.7h-11v-.7Zm27.3-.5-1,1.4h-1l-.2-7.3h.7c1.2,3.1,3.4,6.5,6.9,6.5a3.6,3.6,0,0,0,3.9-3.8c0-1.8-1.1-3.1-3.2-3.8-1.5-.6-2.8-1-4.2-1.6a5.7,5.7,0,0,1-3.7-5.6c0-3.2,2.6-5.8,6.6-5.8a8.3,8.3,0,0,1,4.8,1.5l.9-1.3h1.1l.1,7h-.7c-1.4-3.8-3.2-6.2-6.4-6.2a3.07,3.07,0,0,0-3.1,3.2c0,1.8,1,2.9,3,3.8,1.4.6,2.9,1.1,4.1,1.6,2.5,1.1,4.1,2.5,4.1,5.7,0,3.7-3,6.4-7.3,6.4a9.72,9.72,0,0,1-5.4-1.7m24.3-1.3a3,3,0,0,1,3-2.9,2.9,2.9,0,0,1,0,5.8,3,3,0,0,1-3-2.9"/><path class="cls-2" d="M351.9,13.5a.76.76,0,0,0,.4.2c-.2-.1-.3-.2-.4-.2m-44.1,9.7a18.33,18.33,0,0,1,9.2,4.7,14.27,14.27,0,0,1,3.9,10.4v2.2c0,11.8-9.9,17.1-19.8,17.1-6.3,0-11.7-2-15.3-5.6a16.09,16.09,0,0,1-4.5-11.5V38.3c0-4.3,1.3-7.8,3.9-10.4a17.85,17.85,0,0,1,9.4-4.7l-.2-.9a19.06,19.06,0,0,0-9.8,5,14.93,14.93,0,0,0-4.2,11v2.2a16.67,16.67,0,0,0,4.7,12.1c3.7,3.8,9.4,5.9,16,5.9,10.3,0,20.7-5.6,20.7-18V38.3a14.93,14.93,0,0,0-4.2-11,19,19,0,0,0-9.7-4.9Zm2.7-6a.92.92,0,0,0,.9-1,1,1,0,0,0-.9-1,.87.87,0,0,0-.9,1,.92.92,0,0,0,.9,1m-1.2-3a.91.91,0,0,0-1.4.2,1.69,1.69,0,0,0-.2.5l-.1.8c-.3-.2-.7-.4-1-.6l.6-.5s.3-.3.3-.4a1.08,1.08,0,0,0-.7-1.4,1.16,1.16,0,0,0-1.4.7v.6l.2.8c-.4-.1-.9-.3-1.3-.4l.5-.7a1.63,1.63,0,0,0,.3-.6,1.17,1.17,0,0,0-1-1.4,1.28,1.28,0,0,0-1.4,1.1,3.54,3.54,0,0,0,.1.6l.3.8a6.6,6.6,0,0,0-1.4-.1,1.62,1.62,0,0,0,.7-1.4,1.62,1.62,0,1,0-3.2,0,1.75,1.75,0,0,0,.7,1.4c-.5,0-.9.1-1.4.1l.3-.8s.2-.4.1-.6a1.21,1.21,0,0,0-1.3-1.1,1.25,1.25,0,0,0-1,1.4c0,.2.3.5.3.6l.6.7a5,5,0,0,0-1.3.4l.2-.8a1.15,1.15,0,0,0,0-.6,1.08,1.08,0,0,0-1.4-.7,1,1,0,0,0-.6,1.4c0,.2.3.4.3.4l.6.5c-.4.2-.7.4-1.1.6l-.1-.8a1.69,1.69,0,0,0-.2-.5,1,1,0,0,0-1.4-.2,1,1,0,0,0-.1,1.4c.1.1.4.2.4.3l.7.3c-.1.1-.2.2-.2.3a49,49,0,0,1,7.4-.7,29.87,29.87,0,0,1,7.4.9c-.1-.1-.2-.3-.3-.4l.7-.3a.78.78,0,0,0,.4-.3c.9-.6.8-1.2.4-1.5m-17.5,3a1,1,0,0,1,0-2,1,1,0,0,1,0,2"/><path class="cls-2" d="M301.1,9.9a2.09,2.09,0,0,1,1.8,1.2V8.9l-1.1.2.2-1h-2l.2,1-1.1-.2v2.2a2.88,2.88,0,0,1,2-1.2m8.7,8.5c0-.3-.3-.6-.8-.8l-.1,1.2-.9-.6-.4,1.6h1.1c-.2.5-2.3,1.8-3.2-.1-.3-.7.3-1,.6-.9s.5.4.4.6c1-.2,1.2-1.3-.3-1.7a1.16,1.16,0,0,1-.8-.9h0a.94.94,0,0,1-.8.8c-1.5.2-1.5,1.3-.6,1.6a.47.47,0,0,1,.5-.5c.2-.1.7.4.3,1s-2.5,1.6-3.4-1.1a1.49,1.49,0,0,1,1.5.7V17.5l-1.1.2.3-1h-2l.2,1-1.1-.2v1.8a1.68,1.68,0,0,1,1.5-.7c-.8,2.7-3,1.7-3.4,1.1s.1-1.1.3-1c.4.1.5.3.5.5.9-.3,1-1.5-.5-1.6-.6-.1-.7-.4-.8-.8h0c-.1.3-.1.7-.8.9-1.5.4-1.3,1.5-.3,1.7-.1-.2,0-.5.4-.6a.6.6,0,0,1,.6.9c-.9,1.9-2.9.6-3.1.1h1.1l-.4-1.6-.9.6-.1-1.2c-.5.2-.8.5-.8.8l.8,1.6a1.72,1.72,0,0,1,.2,1.2,1.17,1.17,0,0,1,.4,1.7c0,.9,3.3,1.6,7.4,1.6h0c4.1,0,7.4-.7,7.4-1.6a1.25,1.25,0,0,1,.4-1.7c-.2-.5,0-.7.2-1.2Zm-8.7,5.4c-3.3,0-6-.4-6-1s2.7-1,6-1,6,.4,6,1-2.7,1-6,1Zm-56.9-7.1a.86.86,0,0,0,.8-.8.79.79,0,0,0-.8-.8.86.86,0,0,0-.8.8.79.79,0,0,0,.8.8m-.9-2.5a.79.79,0,0,0-1.1.1c-.1.1-.1.4-.1.4l-.1.6c-.3-.2-.6-.3-.9-.5l.5-.4s.3-.2.3-.4a1,1,0,0,0-.5-1.2,1,1,0,0,0-1.1.6c-.1.1,0,.4,0,.5l.1.6-1.1-.3.5-.6a1.47,1.47,0,0,0,.2-.4,1,1,0,0,0-.8-1.2,1,1,0,0,0-1.1.9,2,2,0,0,0,.1.5l.3.7c-.4,0-.8-.1-1.1-.1a1.43,1.43,0,0,0,.6-1.2,1.63,1.63,0,0,0-1.3-1.6,1.54,1.54,0,0,0-1.3,1.6A1.74,1.74,0,0,0,236,14c-.4,0-.8.1-1.2.1l.3-.7a4.33,4.33,0,0,0,.1-.5,1,1,0,0,0-1.1-.9,1,1,0,0,0-.8,1.2.7.7,0,0,0,.2.4l.5.6c-.4.1-.8.2-1.1.3l.1-.6v-.5a.87.87,0,0,0-1.1-.6,1,1,0,0,0-.5,1.2c0,.1.3.3.3.4l.5.4c-.3.2-.6.3-.9.5l-.3-.6a2.27,2.27,0,0,1-.1-.4.71.71,0,0,0-1.1-.1.91.91,0,0,0-.1,1.2,1.42,1.42,0,0,0,.4.2l.6.2-.2.2a35,35,0,0,1,6.1-.6,31.1,31.1,0,0,1,6.1.7l-.3-.3.6-.2a1.42,1.42,0,0,0,.4-.2.91.91,0,0,0-.1-1.2m-14.6,2.5a.86.86,0,0,1-.8-.8.79.79,0,0,1,.8-.8.86.86,0,0,1,.8.8.79.79,0,0,1-.8.8"/><path class="cls-2" d="M236.5,10.7a1.75,1.75,0,0,1,1.5,1V9.9l-.9.1.2-.8h-1.6l.2.8-.9-.1v1.8a1.75,1.75,0,0,1,1.5-1m7.2,7c0-.2-.3-.5-.7-.7l-.1,1-.7-.5-.4,1.3h.9c-.2.4-1.9,1.5-2.6-.1-.2-.6.3-.9.5-.8s.4.3.3.5c.8-.1,1-1-.3-1.4a.7.7,0,0,1-.6-.7h0c-.1.3-.1.6-.7.6-1.3.1-1.2,1.1-.5,1.3-.1-.2,0-.4.4-.4a.49.49,0,0,1,.3.8c-.3.5-2.1,1.3-2.8-.9.5,0,1,.1,1.2.6V16.8l-.9.2.2-.8h-1.6l.2.8-.9-.2v1.5a1.74,1.74,0,0,1,1.2-.6c-.7,2.2-2.5,1.4-2.8.9s.1-.9.3-.8a.42.42,0,0,1,.4.4c.8-.3.8-1.2-.5-1.3-.5,0-.6-.4-.7-.6h0c-.1.3-.1.6-.6.7-1.2.3-1.1,1.2-.3,1.4-.1-.1,0-.4.3-.5s.7.2.5.8c-.7,1.6-2.4.5-2.6.1h.9l-.4-1.3-.7.5-.1-1q-.6.3-.6.6l.6,1.3c.1.4.3.6.1,1a14,14,0,0,1,1.6,1.4c0,.4.9.9.9.9.5-1.8,2.8-1.6,4.1-1.6h1.3c1.8,0,3.1.4,3.1,1.6,1-.2.7-.8,1.2-1.1s.3-.9.7-1.2a1.73,1.73,0,0,1,.1-1ZM246,48.1a34.2,34.2,0,0,0,6.3.2,7.18,7.18,0,0,0,2-3.3c.1-.3-.4-1.1-.4-1.1A3.42,3.42,0,0,1,254,45a11,11,0,0,1-1.8,3.1Zm-17.3,1a3.1,3.1,0,0,1,2.8,1.2,1.88,1.88,0,0,1-.8,2.5,4.07,4.07,0,0,1-1.8.5h-2.8v-.1c.4,0,.7-.2.7-.5v-3c0-.3-.2-.5-.7-.5v-.1Zm-.6,3.6c0,.3,0,.4.4.4,1.2,0,1.4-.5,1.5-.8a2.85,2.85,0,0,0-.3-2.7c-.4-.4-.8-.3-1.2-.3s-.4,0-.4.4Zm6.2.7c0,.3.2.5.8.6v.1l-2.9-.5v-.1c.5.1.8-.1.8-.4V50.3c0-.3-.2-.5-.8-.6v-.1l2.9.5v.1c-.5-.1-.8.1-.8.4Zm32.8-.4c0,.3.2.5.7.6v.1l-2.6-.5v-.1c.4.1.7-.1.7-.4V49.6a1.75,1.75,0,0,0-1.2.1.62.62,0,0,0-.4.6h-.2V49.1l4.9.9v1.2h-.2c0-.2,0-.4-.4-.8s-1-.4-1.2-.5V53Zm-20.7,2.2c0,1.1-1,1.3-2.3,1-1.5-.3-2-1.1-2-1.6V52.2a.67.67,0,0,0-.7-.6v-.1l2.7.5v.1c-.4-.1-.7.1-.7.4v2.2a1.06,1.06,0,0,0,.8,1.2c.6.2,1.9.4,1.9-.8V52.9c0-.3-.2-.6-.7-.6v-.1l1.7.3v.1c-.4-.1-.7.1-.7.4Zm-8.7-1.1c0,.3,0,.4.4.5a2.07,2.07,0,0,0,2.4-.6h.2l-.4,1.1-4.6-.8v-.1c.4.1.7-.1.7-.4l.1-2.7q0-.45-.6-.6v-.1l4.5.8-.1,1.2h-.2a1.44,1.44,0,0,0-1.4-1.2l-.7-.1c-.3-.1-.3,0-.4.3l-.1,1.3c.9.1,1.1.1,1.4-.6h.2L239,54h-.2c-.2-.8-.4-.9-1.3-1.1Zm22.5-1.9c0,.3,0,.4.4.4a2.29,2.29,0,0,0,2.4-.8h.2l-.4,1.2-4.6-.4v-.1c.4,0,.7-.1.7-.4l.1-2.7c0-.3-.2-.5-.6-.5v-.1l4.5.3-.1,1.2h-.2c-.1-.2-.1-1-1.4-1.1l-.7-.1c-.3,0-.3,0-.4.3v1.3c.9,0,1.1,0,1.4-.8h.2l-.1,1.9h-.2c-.2-.8-.4-.9-1.3-1Z"/><path class="cls-2" d="M347.6,52.5l-3.3-2.9v2.3c0,.3.2.5.6.5v.1h-1.5v-.1c.4,0,.6-.2.6-.5V49.4l-.3-.2a.52.52,0,0,0-.4-.2v-.1h1.6l2.6,2.3V49.4c0-.3-.2-.5-.6-.5v-.1h1.5v.1c-.4,0-.6.2-.6.5v3.2h-.2Zm-5.5-.1a4.42,4.42,0,0,1-1.5.5,3.89,3.89,0,0,1-1.5-.2,1.88,1.88,0,0,1-1.1-1.6,1.85,1.85,0,0,1,1.1-1.7,4.42,4.42,0,0,1,1.5-.5,3.89,3.89,0,0,1,1.5.2,1.88,1.88,0,0,1,1.1,1.6,2,2,0,0,1-1.1,1.7m-1.1.3c.3-.1.5-.4.7-.8a3.13,3.13,0,0,0,0-2.2,1,1,0,0,0-.7-.6.9.9,0,0,0-.5-.1c-.2,0-.3.1-.5.1s-.5.4-.7.8a3.12,3.12,0,0,0,0,2.2c.2.4.4.6.7.6a.75.75,0,0,0,.5.1,4.33,4.33,0,0,0,.5-.1"/><path class="cls-2" d="M337.4,52.7c0,.3.2.4.6.4v.1l-2.4.4v-.1q.6-.15.6-.6V50.2l-1.9,3.7h-.2l-1.9-3v2.7c0,.3.2.4.6.4v.1l-1.5.3v-.1q.6-.15.6-.6V51.1c0-.4-.2-.4-.7-.4v-.1l1.9-.3,1.4,2.3,1.5-2.9,1.9-.3v.1q-.6.15-.6.6Zm48.1-1.1c0,.3.2.5.7.5v.1h-2.7v-.1c.5,0,.8-.2.8-.5V48.9c0-.3-.2-.5-.8-.5v-.1h2.7v.1c-.5,0-.7.2-.7.5Zm-10.4-.5h-.2l.1,1.2c0,.3.3.4.7.4v.1l-2.6.3V53q.6-.15.6-.6l-.2-2.7c0-.3-.3-.4-.7-.4v-.1l2.5-.3a3.53,3.53,0,0,1,1.8.1c.3.2.6.6.3,1a2.33,2.33,0,0,1-1.1.7l1.6,1.4c.2.2.3.2.4.2v.1l-1.6.2Zm-.2-.1a1.64,1.64,0,0,0,1.4-.6,1.25,1.25,0,0,0-.1-.9c-.2-.2-.4-.3-1-.2a.27.27,0,0,0-.3.3Zm7.2,1a3,3,0,0,1-1.5.5,7.72,7.72,0,0,1-1.5-.2,1.78,1.78,0,0,1-1-1.6,1.94,1.94,0,0,1,1-1.7,4.42,4.42,0,0,1,1.5-.5,3.89,3.89,0,0,1,1.5.2,1.78,1.78,0,0,1,1,1.6,2,2,0,0,1-1,1.7m-1,.2c.3-.1.5-.4.7-.8a3.09,3.09,0,0,0,.2-1.1,3.59,3.59,0,0,0-.2-1.1c-.2-.4-.4-.6-.7-.6a1,1,0,0,0-.9.1,1,1,0,0,0-.6.8,2.68,2.68,0,0,0-.2,1.1,3.59,3.59,0,0,0,.2,1.1,1.44,1.44,0,0,0,.6.7c.2,0,.3.1.4,0s.4-.1.5-.2m8.6-.3q0,.45.6.6v.1l-2.4-.3v-.1c.4,0,.6-.1.6-.4V48.7c-.2,0-.7-.2-1.1.1a.67.67,0,0,0-.4.7h-.2V48.3l4.5.5v1.1h-.2c0-.2,0-.4-.4-.8a1.48,1.48,0,0,0-1.1-.4v3.2ZM358.4,33a1.1,1.1,0,0,1-.5,1.5v.1a41.16,41.16,0,0,1,5.9,3,33,33,0,0,1,5.4,3.9h0c.1-.7.5-1.1,1.1-1.1.1-.4.3-.5.7-.8l1.3-.9a1.13,1.13,0,0,0-.3-1l-.6.9-.4-.9-1.1,1,.9.5c-.4.3-2.5.3-2.4-1.5a.6.6,0,0,1,.9-.5c.2.3.2.5.1.6.8.3,1.5-.4.5-1.4a.82.82,0,0,1-.2-1h0a.72.72,0,0,1-1,.2c-1.2-.6-1.7.3-1.1,1,0-.2.3-.3.6-.2s.4.6-.2.9-2.7,0-2.1-2.4a1.3,1.3,0,0,1,.8,1.2l.8-1.4-.9-.4.6-.7-1.5-.9-.3.9-.8-.6-.8,1.4a1.21,1.21,0,0,1,1.4.2c-1.9,1.7-3.1-.1-3.1-.7s.5-.8.7-.6a.39.39,0,0,1,.1.6c.9.2,1.4-.6.3-1.5-.5-.3-.3-.7-.3-1h0a.8.8,0,0,1-1,.3c-1.3-.4-1.7.5-1,1.1,0-.2.2-.3.6-.2.2,0,.5.6,0,1-1.6,1-2.5-.9-2.4-1.4l.8.5.4-1.4h-1l.4-.9c-.5-.1-.8,0-.9.2l-.1,1.6c0,.3.1.6-.3.8M341,44.7a26.09,26.09,0,0,1,2.2-5,.43.43,0,0,0-.2-.7.44.44,0,0,0-.7.2,26.48,26.48,0,0,0-2.3,5.3.61.61,0,0,0,.3.7c.3-.1.6-.2.7-.5m3.3-6.6a12.68,12.68,0,0,1,4.2-4.2.54.54,0,1,0-.4-1,13.77,13.77,0,0,0-4.7,4.7.57.57,0,0,0,.2.7.66.66,0,0,0,.7-.2m5.9-5.1a30.86,30.86,0,0,1,5.6-.3.56.56,0,0,0,.1-1.1,32.92,32.92,0,0,0-5.8.3.56.56,0,0,0-.5.6.63.63,0,0,0,.6.5m-4.8,4.1-.1.1a30.06,30.06,0,0,0-2.6,4.4.54.54,0,1,0,1,.4,29.09,29.09,0,0,1,2.5-4.2l.1-.1a.48.48,0,0,0-.1-.7.61.61,0,0,0-.8.1"/><path class="cls-2" d="M347.9,36.1l.3-.2a7.28,7.28,0,0,1,4.2-1.6.55.55,0,1,0-.1-1.1,8.08,8.08,0,0,0-4.7,1.8l-.3.2a.49.49,0,0,0-.1.7c.1.3.4.3.7.2"/><path class="cls-2" d="M350.7,36.1a22.06,22.06,0,0,1,5.1-.5.55.55,0,1,0,.1-1.1,25.6,25.6,0,0,0-5.5.5.67.67,0,0,0-.4.7.57.57,0,0,0,.7.4m-2.1-.1a14.45,14.45,0,0,0-2.8,3.3.51.51,0,1,0,.9.5,20.45,20.45,0,0,1,2.4-2.9.49.49,0,0,0,.1-.7c-.1-.3-.4-.4-.6-.2m-3.8,5.1a7.93,7.93,0,0,0-.4.9,19.45,19.45,0,0,0-1.5,3.4.57.57,0,0,0,.4.7.44.44,0,0,0,.6-.4,17.31,17.31,0,0,1,1.4-3.2,9.25,9.25,0,0,0,.5-1,.52.52,0,0,0-.3-.7.61.61,0,0,0-.7.3m-1.1,6.4a.54.54,0,1,0-1-.4l-.3.6ZM354.4,34h4.2a.5.5,0,0,0,0-1h-4.2c-.7-.1-.7,1,0,1M316,25.4H285.5V47.5c0,3,1.8,5.2,5.5,7h0l9.8,4.1.1.1h.3l.1-.1,9.8-4.1h0c3.7-1.7,5.5-4,5.5-7V25.4Zm-5.3,27.7-9.5,4-9.5-4c-4.1-2-4.6-4.1-4.6-5.6V26.9h28.3V47.5c-.1,1.5-.6,3.7-4.7,5.6Z"/><rect class="cls-3" x="300.9" y="26.7" width="0.4" height="31.2"/><path class="cls-2" d="M286.7,40.9h29.1v-.4H286.7Zm27-2.4V28.3H303.1V38.8h10.7l-.1-.3Zm-10.2,0v-10l-.2.2h10.2l-.2-.2v10l.2-.2H303.3Z"/><path class="cls-2" d="M303.3,29.2a.6.6,0,1,0,0-1.2.58.58,0,0,0-.6.6.65.65,0,0,0,.6.6m0,9.9a.65.65,0,0,0,.6-.6.6.6,0,1,0-1.2,0,.58.58,0,0,0,.6.6m10.2,0a.6.6,0,1,0-.6-.6.58.58,0,0,0,.6.6m0-9.9a.6.6,0,1,0-.6-.6.65.65,0,0,0,.6.6m-5.6-.7.5.5.5-.5-.5-.5Zm0,10.1.5.5.5-.5-.5-.5Zm-5.1-5.1.5.5.5-.5-.5-.5Zm10.2,0,.5.5.5-.5-.5-.5Zm-4,1.9c-.5,0-.8-.1-1,.6-.1.4,0,.7-.8,1.1l-.9.4c-.6.2-1-.1-.1-.5.6-.3,1-.5,1.1-.9s-.3-1.2.6-1.4c.7-.1,1-.4.2-1.1-.1-.1-.4.1-.8.3l-1.4.7c-.4.2-.9-.3.1-.8l1.2-.6c.5-.3.4-.5,0-.8l-1.4-1.2c-.5-.5-.2-.8.4-.3l1.1.9c.3.3,1.1-.1,1-.6s-.4-1.5.3-1.5c.4,0,1.6-.3,1.3.6l-.7,2.3c-.2,1.1.6,2,.8.9l.2-2c.1-.7,1.6-.9,1.6.2l-.2,2.9c0,.6-.4,0-.7-.5-.3-.7.1-.5.2-.3l.1-2c0-.4-.5-.4-.5,0l-.1,2c0,.4-.4.4-.6.9a.81.81,0,0,0,.5.9c.5.3.9,0,.9.5s.4,1.4.1,1.6-.4-.2-.5-.6a1.05,1.05,0,0,0-.5-.9c-.4-.1-1.1.2-1.5-.8M292.2,30h5.3c.6,0,.6-.6,0-.6h-3c-.5,0-.4-.5,0-.5h3.1c.6,0,1.3.4.9,1.2-.1.2-.1.3.1.4a4,4,0,0,0,.6.4c.4.1.5.7.5.9.1.4-.5.4-.6.1a.51.51,0,0,0-.4-.5l-.9-.3-1.2.6a1.49,1.49,0,0,1-1,.3h-1.4c-.4,0-.5-.5,0-.5h1.1a1.89,1.89,0,0,0,.8-.5h-2.8a3.81,3.81,0,0,0-1.7.4l-2.3.6c-.5.1-.6-.3-.1-.5l1-.3c.6-.2.5-.5-.2-.9l-1-.5c-.4-.2-.2-.7.2-.5l1.3.7c.4.2.6-.1.5-.5s-.1-1.2.3-1.2,1.7-.2,1.2.5c-.2.2-.9,1.2-.3,1.2m0,4h5.3c.6,0,.6-.6,0-.6h-3c-.5,0-.4-.5,0-.5h3.1c.6,0,1.3.4.9,1.2-.1.2-.1.3.1.4a4,4,0,0,0,.6.4c.4.1.5.7.5.9.1.4-.5.4-.6.1a.51.51,0,0,0-.4-.5l-.9-.3-1.2.6a1.53,1.53,0,0,1-1,.4h-1.4c-.4,0-.5-.5,0-.5h1.1a1.89,1.89,0,0,0,.8-.5h-2.8a3.81,3.81,0,0,0-1.7.4l-2.3.6c-.5.1-.6-.3-.1-.5l1-.3c.6-.2.5-.5-.2-.9l-1-.5c-.4-.2-.2-.7.2-.5l1.3.7c.4.2.6-.1.5-.5s-.1-1.2.3-1.2,1.7-.2,1.2.5c-.2.1-.9,1.1-.3,1.1m0,3.9h5.3c.6,0,.6-.6,0-.6h-3c-.5,0-.4-.5,0-.5h3.1c.6,0,1.3.4.9,1.2-.1.2-.1.3.1.4a4,4,0,0,0,.6.4c.4.1.5.7.5.9.1.4-.5.4-.6.1a.51.51,0,0,0-.4-.5l-.9-.3-1.2.6a1.49,1.49,0,0,1-1,.3h-1.4c-.4,0-.5-.5,0-.5h1.1a1.89,1.89,0,0,0,.8-.5h-2.8a3.81,3.81,0,0,0-1.7.4l-2.3.6c-.5.1-.6-.3-.1-.5l1-.3c.6-.2.5-.5-.2-.9l-1-.5c-.4-.2-.2-.7.2-.5l1.3.6c.4.2.6-.1.5-.4-.2-.5-.1-1.2.3-1.2s1.7-.2,1.2.5c-.2.3-.9,1.2-.3,1.2m14.1,5.3h5.3c.6,0,.6-.6,0-.6h-3c-.5,0-.4-.5,0-.5h3.1c.6,0,1.4.4.9,1.2-.1.2-.1.3.1.4a4,4,0,0,0,.6.4c.4.1.5.7.5.9.1.4-.5.4-.6.1a.51.51,0,0,0-.4-.5l-.9-.3-1.2.6a1.33,1.33,0,0,1-1,.3h-1.4c-.4,0-.5-.5,0-.5h1.1a1.89,1.89,0,0,0,.8-.5h-2.8a3.81,3.81,0,0,0-1.7.4l-2.3.6c-.5.1-.6-.3-.1-.5l1-.3c.6-.2.5-.5-.2-.9l-1-.5c-.4-.2-.2-.7.2-.5l1.3.7c.4.2.6-.1.5-.5s-.1-1.2.3-1.2,1.7-.2,1.2.5c-.2.3-.9,1.2-.3,1.2m0,4.1h5.3c.6,0,.6-.6,0-.6h-3c-.5,0-.4-.5,0-.5h3.1c.6,0,1.4.4.9,1.2-.1.2-.1.3.1.4a4,4,0,0,0,.6.4c.4.1.5.7.5.9.1.4-.5.4-.6,0a.51.51,0,0,0-.4-.5l-.9-.3-1.2.6a1.33,1.33,0,0,1-1,.3h-1.4c-.4,0-.5-.5,0-.5h1.1a1.89,1.89,0,0,0,.8-.5h-2.8a3.81,3.81,0,0,0-1.7.4l-2.3.6c-.5.1-.6-.3-.1-.5l1-.3c.6-.2.5-.5-.2-.9l-1-.5c-.4-.2-.2-.7.2-.5l1.3.6c.4.2.6-.1.5-.5s-.1-1.2.3-1.2,1.7-.2,1.2.5c-.2.5-.9,1.4-.3,1.4m4.3,3.1h-2.2c-.4,0-.4.5,0,.5h2.1c.6,0,.6.6,0,.6h-4.3c-.6,0,.1-1,.2-1.3.5-.8-.8-.5-1.2-.5s-.5.7-.3,1.2-.1.7-.5.4l-1.3-.6c-.5-.2-.7.3-.3.5l1.1.5c.8.4.8.4.2,1L303,53.9c-.6.5-.4.8,0,.6l2.4-1.8c.3-.3,1.5-.3,1.5-.3l-.2.6-.8.6c-.2.1-.4.3-.3.5s.3.2.5.1l.9-.7a11.41,11.41,0,0,0,1.1-1.1h1.1l-.1.2-.6.5c-.2.1-.2.3-.1.5s.3,0,.5-.1l.9-.7a.37.37,0,0,0,.1-.3l.1-.2h.5c1.3.1,2-1.9.1-1.9m224.3-46c1,0,1.4-1.5,1.7-2.2h2.9c-.1,1.1-.1,3.1-.1,5.1,0,1.6.3,9.7.4,11.7h-2.9M61.5,55.9l5.7-.2c.2-4.3.3-5.3.3-15.7,0-27.4,0-30.4-.3-35.8L61.5,4V1.4c2.1,0,5.5.2,11.5.2s9.4-.2,11.4-.2V4l-6.2.2C78,9.3,78,22.1,78,28h30.2c0-5.9,0-18.7-.2-23.8L101.7,4V1.3c2.1.2,5.5.2,11.5.2s9.4-.2,11.5-.2V3.9l-5.8.2c-.1,4.4-.1,5.4-.1,15.7,0,27.4,0,30.5.2,35.8l5.7.2v2.6c-2.1,0-5.5-.2-11.5-.2s-9.4.2-11.5.2V55.8l6.3-.2c.2-5.1.2-19.2.2-25.3H78c0,18.2,0,20.2.2,25.3l6.2.2v2.7c-2-.2-5.4-.2-11.4-.2s-9.4.2-11.5.2ZM33.9,3.6c-.1,4.4-.2,5.7-.2,16.3,0,27.4,0,30.4.2,35.8l6.2.2v2.6c-2.1,0-6.2-.2-12.5-.2s-9.6.2-11.7.2V55.9l6.2-.2c.2-4.3.2-5.4.2-15.7,0-27.6,0-30.6-.2-36.3H14.3c-6.8,0-8.3.6-8.8,1.4-.5,1-.9,8.4-1,10.1H.7L0,1.5c9.2.1,17.9.2,27.6.2h.8c9.7,0,18.5-.1,27.6-.2l-.7,13.7H51.5c-.1-1.6-.5-9.1-1-10.1-.4-.7-2-1.4-8.7-1.4H33.9Z"/><path class="cls-2" d="M536.9,19c-2.3-7.5-8.2-16.3-20.8-16.3-13.3,0-22.7,11.3-22.7,26.5,0,12,6.3,27.6,22.8,27.6,5.2,0,10.5-1.5,13.8-5.3.3-3.6.1-12.7.1-14.5l-8.3-.3-.1-2.5c2.2,0,4.6.1,7.5.1,7.4,0,11.7-.2,16.4-.3v2.6c-4.5.2-4.8.6-4.8,2.2V51c-8.6,5.3-17.6,8.8-28,8.8-15.2,0-31.1-10.3-31.1-29.7,0-17,12.7-29.9,31.8-29.9,11.9,0,20,4.3,21.4,4.3m-357,39L174,56H154.7c-7.4,0-7.8-.5-8.1-3.6-.2-2.6-.2-18.8-.2-22.9H148c2.5,0,11.8,0,12.8.7s1.1,2.2,1.5,7.7h3.9c-.1-4.3-.3-7.7-.3-11.3,0-2.7.1-5.3.2-7.8h-3.6c-.3,5.2-.9,7.3-2.1,7.9-.9.5-6.5.6-12.4.6h-1.6V3.7h16c2.3,0,7.9,0,10.1,1,2,1.1,2.1,2.9,2.5,8.9h3.9V1.4c-3.6,0-28,.2-31.9.2-9,0-13.5-.2-18.1-.2V4l6.7.2c.2,5.4.2,8.4.2,35.8,0,10.4-.1,11.4-.2,15.7l-6.7.2v2.6c3.8,0,20-.2,25.1-.2h26.4l1.1-14.8Zm418.5,0L592.5,56H573.2c-7.4,0-7.8-.5-8.1-3.6-.2-2.6-.2-18.8-.2-22.9h1.6c2.5,0,11.8,0,12.8.7s1.1,2.2,1.5,7.7h3.8c-.1-4.3-.3-7.7-.3-11.3,0-2.7.1-5.3.2-7.8h-3.6c-.3,5.2-.9,7.3-2.1,7.9-.9.5-6.5.6-12.3.6h-1.6V3.7h16c2.3,0,7.9,0,10.1,1,2,1.1,2.1,2.9,2.5,8.9h3.9V1.4c-3.6,0-28,.2-31.9.2-9,0-13.5-.2-18.1-.2V4l6.7.2c.2,5.4.2,8.4.2,35.8,0,10.4-.1,11.4-.2,15.7l-6.7.2v2.6c3.8,0,20-.2,25.1-.2h26.4L600,43.5Zm-138-7.6c0,.2-.4.5-1,.6H439.9c-1.2,0-1.6-.2-1.6-.5a3.74,3.74,0,0,1,.4-1.1l9.6-23.2c.3-.5.3-.9.5-.9s.4.4.5.7l.1.1,8.8,23.3c.1.6.2.8.2,1m21.2,18c-1.3-2.3-2.5-4.8-3.6-7.2L455.6,0h-5.2L438.2,29.4c-1.7,4.1-9.7,22.2-10.8,24.1-1.3,2.2-2.2,1.9-7,2.3v2.6c1.7-.1,6.7-.3,9.7-.3,2.7,0,5.4.2,7.9.2V55.7c-6.6-.1-7.2-.4-7.2-1.3a15.73,15.73,0,0,1,.8-2.4l4.8-11.9c.5-1.2.8-1.5,1.9-1.5h19.9c1.6,0,1.8,0,2.3,1.2l5.3,12.9a7.13,7.13,0,0,1,.6,2c0,.4-.6.8-7.9,1v2.6c6.8-.2,9.8-.3,13-.3,4.7,0,10,.1,13.8.2V55.7c-3.2,0-4.9-.4-5.7-1.8M293.8,42.3a1.09,1.09,0,0,0-1.2.7,2.78,2.78,0,0,1-1.3,1.5,1.16,1.16,0,0,1,0-1c.2-.8-.4-1-.8-1s-.5,0-.7.3-.6,1,0,1.3c.8.4,0,1.3-.2,1.7-.8,1.1.6,4.3,2.4,5.2l7.2,3.3v-12Zm.1,9c-.8-.4-2.4-2-2.7-5v-.2l7.4,7.3Zm4.8,1.4-7.3-7.2c.2-.2.4-.4.6-.4a.22.22,0,0,0,.2-.2l6.4,6.4v1.4Zm0-2.3-6-5.9a2.34,2.34,0,0,1,.7-.7l5.3,5.2Zm0-2.3-4.6-4.5a4.87,4.87,0,0,1,1.2-.1l3.4,3.4v1.2Zm0-2.2-2.6-2.6a14.37,14.37,0,0,0,2.6-.8Z"/><path class="cls-2" d="M411.9,50.6H392.5V48a43.25,43.25,0,0,0-8.3-1c-.3-.4-2-1.7-2.7-2.3-1.1-.6-4.4-1.1-6-.2a16,16,0,0,1-5.7,1.9,10.06,10.06,0,0,0,0-3,3.53,3.53,0,0,1-1-1.9l.7-.6c3.3,3.3,3.6,2.1,4.5,1.8-1.1-.6-1.1-1.1-1.1-1.1a6.91,6.91,0,0,0,4.3-.6c-1.8-.5-1.3-1.4-1.3-1.4a4.79,4.79,0,0,0,3.9-1.3,4.36,4.36,0,0,1-1.6-1.7c3.2-1.4,2.4-1.7,3.3-2.2a2.24,2.24,0,0,1-1.8-1.3,11.76,11.76,0,0,0,3.2-1.9,2.94,2.94,0,0,1-2.6-1.9c2.9-.9,3-2.2,3.7-3.3-2.3.4-3-.8-3-.8,2.9-1.5,2.9-2.7,2.7-3.7a3.27,3.27,0,0,1-4-.4,6.53,6.53,0,0,0,1.5-3.5,5.41,5.41,0,0,1-4.2-.1,5.17,5.17,0,0,0-.2-4.2,4.73,4.73,0,0,1-3.2,1.5c.4-2.7-.2-3.3-.9-3.9-.7,1.4-1.7,1.4-3.1,1.5-.9-3.9-2.1-3.4-3-3.5,0,1.1-.9,1.6-1.7,2.2-2.7,1.3-2.8,3-3,4.5l-9.7-3.1c-1.3-.5-2.1.1-.4.9l9,4c-1.5.2-2.1,1.8-3.3,2.2a44.41,44.41,0,0,0-5.5,1.9c-1.4.6-.4,2.5-1.3,3.4-.1.6-.2,1.4.3,1.7a2.88,2.88,0,0,0,1.6.3,1.07,1.07,0,0,1-.2.6c-.1.2-.3.5-.1.6a3.57,3.57,0,0,0,3.7,1.4c.7-.3.8-1.1,1.5-1.5,1.7-1,3.4.5,4.7,1.2,0,.8-.9,1-.9,1.8v.1a5.3,5.3,0,0,0,1.9-.5,22.68,22.68,0,0,0,4-3.1,2.74,2.74,0,0,0,.4-3.2,2.38,2.38,0,0,0-1.3-.9c-.2.3.1.6.2.9a4.11,4.11,0,0,1-1.8,3.3c-1.9.8-3.1-.9-4.6-1.6-1.6-.1-3.3-.1-4,1.5-.4.2-.3.6-.8.6s-.7,0-.9-.4c-.2-.6.7-.4.9-.7.4-.1.5-.5.9-.7.2-.7-.6-.7-.9-1a2.82,2.82,0,0,0-2.2.3.49.49,0,0,1-.6-.3c-.1-.3.2-.5.2-.8.5-.1,1.2.1,1.5-.4a1.28,1.28,0,0,0,0-1.2.88.88,0,0,0-.7-.1c-.1.2-.2.3-.4.3-.2-.2,0-.4,0-.6.5-.5,1.4-.4,2-.7,1.3-.6,2.9-.4,4-1.3.4-.1.3.4.4.5-.1.8-.9.9-1.4,1.2.6.2,1.2-.2,1.8,0a5.67,5.67,0,0,0,4.6-.7c-.1-.5-.6-.7-.9-1.1a8.89,8.89,0,0,0-3.6-.7c.7-1.2,2.5-.8,3.8-1.1l1.3.3a13.55,13.55,0,0,1,.2-2c1.4.1,1.2,1.6,1.5,2.6.6.1,1.4,0,1.9.4a10.49,10.49,0,0,1,4.1,9.9c-.5,2-.8,4-2,5.6-.2.6,1.1.9.4,1.3h0l.2.4.5-.7.5.7a.76.76,0,0,1,.2.4v-.1c.4.9.4,1.4,1.4,2a1.79,1.79,0,0,1-2.2-.2,1.31,1.31,0,0,0-.9-.2l-1.4.7-8.9-5.3a4.18,4.18,0,0,1-1,.4c-.9.4-1.3,0-3,0V35a1.49,1.49,0,0,1-.3.7.76.76,0,0,1-.5.2h-.2a27,27,0,0,0-4.9.4,1,1,0,0,1-1.1-.5,1.09,1.09,0,0,1,.1.5.52.52,0,0,1-.2.4h0l-.2.1a5.63,5.63,0,0,0-1.1,1.1.6.6,0,0,0,.4-.1c4.8-.4,9-1.3,10.2-2.2a19.82,19.82,0,0,1,8.3,3.9c0,1.4.3,3,.8,3.5a3.81,3.81,0,0,1-1.5,5.2l-1.1.4-.3-.3,1.5-2.3a11.86,11.86,0,0,0-.3-3.1l-.1,2.7a7,7,0,0,1-1.7,2.7c-.4-.3-2-1.2-2.4-1.5a17.19,17.19,0,0,0,.2-2.6H362c-.3.4-.5,1.6-.9,1.8-.4.5-1.1.5-1.5,1.1.1.4.7.2,1,.5a27.23,27.23,0,0,1,5.1,3.2c1.9,1.3,3.1,1.8,4.5,2.9.5.3.3,1,.4,1.5-.8,1.3-2.5.8-3.8.9-1.7,0-3.3-.3-4.9.3-1.2.6-3.2,1.3-4.4.2a13.24,13.24,0,0,0-2-1.2c.1-.6.8-.6,1.1-.9a1.82,1.82,0,0,1,2.2.2c.3.2.5-.1.7-.2.1-.3.1-.7.4-.7a6.85,6.85,0,0,0,4.5.6,3.18,3.18,0,0,0,.9-.3c-.8-.6-2.1-.9-3.1-1.5a56.59,56.59,0,0,0-9.1-1.9c-.6-.4-1-2.2-1.1-2.8a9.89,9.89,0,0,1,.4-3c.1-.5.8-.8,1.3-1.2l-.4-.2a5.62,5.62,0,0,0-2.7,1.9,6.74,6.74,0,0,0-.1,1.9,64.23,64.23,0,0,0-8.8,0,16.72,16.72,0,0,1,.7-2.9.54.54,0,1,0-1-.4,14.82,14.82,0,0,0-.9,3.5v.1l-.7.1a2.92,2.92,0,0,0,.2-.9l.1-.5a.51.51,0,0,0-1-.2l-.1.5c-.1.4-.2.9-.3,1.3h0a59,59,0,0,0-8.8,1.6v-1a39.81,39.81,0,0,0,7.6-1.7,67.92,67.92,0,0,1-7.6,1.1l-.3-1.2a48.36,48.36,0,0,0,8.5-1.7c-.9.2-6.3,1-8.7,1.2a3.92,3.92,0,0,0-.8-1,4.35,4.35,0,0,0-.7-.6,71.47,71.47,0,0,0,8.9-1.2c-1,.2-6.9.7-9.6.8l-.2-.1a6.42,6.42,0,0,0,.6-1V43l.1-.1a27.46,27.46,0,0,0,4.9-.6,42.54,42.54,0,0,1-4.7.2,7,7,0,0,0,.4-2.9,3.78,3.78,0,0,0,2.3.8h.2c1.3-.2,2.3-.4,2.9-1.3V39a25.1,25.1,0,0,0,7.7.8c.1-.3.3-.5.4-.8h0a1,1,0,0,1,.5-.4,1.27,1.27,0,0,1,.6.1.76.76,0,0,1-.2-.4v-.2a23.08,23.08,0,0,1-8.6-.6,5.47,5.47,0,0,0-1-3.8v-.1l-.1-.1-.2-.2c1.9-2.5,5.9-.2,8.6.4,7.1,1.4,9.4-5.6,7.1-10-2.6-4.3-7.1-3.2-11.7-2.3-6.1,1-4.4-3.2-3.2-3.5-3.2.2-3.6,3-3.5,6.1a2.41,2.41,0,0,1-1.7-3.2c-3.2,5.1,2.4,7.2,4,8.1a15.09,15.09,0,0,0-2.4,1.3,12.61,12.61,0,0,0-3.7-2.7h-.1a8.52,8.52,0,0,0-2.3-.3,4.62,4.62,0,0,0-1.1-3h0L319.1,20c-2-2.3-6.3-1.6-6.4,1.6a2,2,0,0,0,.1.7c-.6-.3-1.3-.5-2-.8h-.1c-.2-.1-.4-.1-.6-.2H310c-.2-.1-.4-.1-.6-.2h0c-.5-.1-.9-.3-1.4-.4h-.1l-.6-.1h-.2c-.2,0-.4-.1-.6-.1h-.2l-.6-.1h-.2c-.5-.1-1-.1-1.5-.2h-.2a1.27,1.27,0,0,1-.6-.1h-2.7a29.86,29.86,0,0,0-12,2.3c0-.3.1-.5.1-.7-.1-3.2-4.3-4-6.4-1.6l-3.7,4.2h0a4.62,4.62,0,0,0-1.1,3,9.08,9.08,0,0,0-2.3.3h0a10.08,10.08,0,0,0-2.9,2,12.36,12.36,0,0,0-2.9-1c3.4-.4,6.6-5.8.5-9.6-7.7-3.2-4.9,6.2-2,2.2-2.1,1.1-2.2-1.5-.5-1.5s1.9,3.1-.3,3-2.7-1-5-1.5c-14.2-2.6-10.3,17,.3,12.2,1.7-.8,4.2-2.7,7-2-2.1,2-3,4.4-2.7,5.7-3.8.6-11.8-1.6-15.2-4l1.7-.2c-1.1-.6-1.6-3.5-1.6-3.5a8,8,0,0,0-1.6-2.3c.3-.2,1.1.1,1.1.1s.1.8,0-.3-1.2-3.3-1.7-3.5a15.71,15.71,0,0,0,.9-1.7c-2.2.6-2.3-.8-4.1-1.2a3.61,3.61,0,0,0,.7-1.9c-.5.5-2.2-.4-3.8.4-.7.4-.6-.1-1.9,1.2H230.6c-1.3-1.3-1.2-.8-1.9-1.2-1.6-.9-3.3.1-3.8-.4a3.81,3.81,0,0,0,1.4,1.9,3.39,3.39,0,0,0-1.9.9c-.4.5-2,.6-2,.6a16.89,16.89,0,0,0,1.4,1.4c-1.1.8-1.1,2.4-1.3,3.3a11.11,11.11,0,0,1-1,2.3,3.27,3.27,0,0,0,1.7,0,22.81,22.81,0,0,0-3,6.6,8.68,8.68,0,0,0,1.6-.6c.1,2.8.3,5.7,1,6.7l.7-1.3c.8,1-1.2,4.1-3.1,4.1,0,0-4.5.3-5.4.3a4.66,4.66,0,0,0-2.4,1.1A12.08,12.08,0,0,1,209,47c-.5.1-1.9.4-1.9,3.8H192.7l9.2,3.6-9.2,3.7h33.7V55.7a66.46,66.46,0,0,1,14.7,2.5,54.25,54.25,0,0,0,13.2,1.3,14.63,14.63,0,0,0,8.2-2.4V55.7a78.41,78.41,0,0,1,9.8,1.8,41.1,41.1,0,0,0,7.1,1.5,3.61,3.61,0,0,0,2.4-.6h0a5,5,0,0,0,1.4-2.3c1.3,0,4.1,1.8,8.4,2.8a26.87,26.87,0,0,0,9.6,1.6h1.2a26.62,26.62,0,0,0,8.4-1.6c4.3-1,7.1-2.8,8.4-2.8a3.74,3.74,0,0,0,1.4,2.3h0a3.61,3.61,0,0,0,2.4.6,43.14,43.14,0,0,0,7.1-1.5,140.31,140.31,0,0,1,14-1.8v1.4a19.43,19.43,0,0,0,8.2,1.7c2,0,2.3-1.4,5.3.1,1.5.7,4.2,0,5.9-.6,1.4-.6,6.6,0,6.6,0,1.1.1,2.1-.8,2.5-2.6,1-.2,5.8-1,6.5-1V58H412l-9.3-3.7,9.2-3.7Zm-50.7-30a.65.65,0,1,1,0,1.3c-.4,0-.7-.3-.6-.6a.67.67,0,0,1,.6-.7Zm16.6,14.2a22.59,22.59,0,0,0-3.4-1.8,8.11,8.11,0,0,1,.3-1.1c1.8-.5,3.4,2.3,3.8,2.7-.1,0-.4.4-.7.2Zm-3-4.7a7.84,7.84,0,0,0,.2-1.4,3.45,3.45,0,0,1,4.2,2.9,10.48,10.48,0,0,0-4.4-1.5Zm3.5-2.2a4.81,4.81,0,0,0-3.4-.6,8.8,8.8,0,0,0-.1-1.4c2.7-1.1,5.2.9,6.1,1.5a2.61,2.61,0,0,1-2.6.5Zm2-4.4a4.15,4.15,0,0,1-3.1.5,4.84,4.84,0,0,0-2.7.4,4.36,4.36,0,0,0-.5-1.3c2.5-1.5,4.6-.6,6.3.4ZM366,15l-.7-.2c-.3-.2-.5-.4-.8-.1,0,0-.1.3-.8.6-.2-1.6,1.1-2.3,2.5-3.2a2.19,2.19,0,0,0,.9-1c0,.4,2,1.9-1.1,3.9Zm2.4,2.3c-1-1-1-2.2.9-2.9a5.84,5.84,0,0,1,2.5-.5c0,2-3.4,2.9-3.4,3.4Zm2.7,2.2c-.2-.7-.8-.6-.6-1.2,1.1-1.7,4.1-1.7,4.9-2a1.43,1.43,0,0,1-1,1.9,2.8,2.8,0,0,0-2.1.8Zm1.3,1.1c2.3-2,4.8-1,5.7-.8,0,0-.2,1-1.6,1a18.12,18.12,0,0,0-3.1.9c-.1.2-.5-.6-1-1.1Zm.7,15.1a2.92,2.92,0,0,0,.7-1.2c1.1,0,2.3,2.7,2.7,3.6-1.5,0-3.1-2.1-3.4-2.4Zm-40.5,2.1a2.52,2.52,0,0,1-1.9,1.1,2.22,2.22,0,0,1-2-1,1.93,1.93,0,0,1-.1-1.5,1.78,1.78,0,0,1,1.6-1,.87.87,0,0,1,.9.6.75.75,0,0,1,0,.9c-.2.5-.9.6-1.4.7l.1.2a1.4,1.4,0,0,0,1.5-.3,1.55,1.55,0,0,0,.5-1.4,2.42,2.42,0,0,0-1.8-1.6c-4.4.1-2.1,5.4-3.5,7.9-.6,1.1-1.2,2.5-3.2,2.1,3-1.3,2.5-6.1,2.5-7.8a3.47,3.47,0,0,1,2.7-3.6,3.39,3.39,0,0,1,4.1,4.7Zm-2.3-10.9c-.3-.3-.8-.7-.7-1.2,3.2,1.5,7.4,1.1,10.6,0,1.8-.4,4-.1,4.9,1.6a2.85,2.85,0,0,1,0,1.3c-.3.1-.3-.3-.4-.4-1.3-1.7-3.6-1.1-5.3-.7-.7.4-1.6.2-2.3.5a7.4,7.4,0,0,1-6.8-1.1Zm14,2.5c-1.2,1.3-3.3.6-4.6.1-.5-.3-1.2-.4-1.7-.7,0-.5.6-.4.9-.6a13.1,13.1,0,0,1,2.7-.6,3.44,3.44,0,0,1,2.3.5,1.39,1.39,0,0,1,.4,1.3Zm-7.7-.5c2.7.4,5.1,2.1,8,1.3a3.72,3.72,0,0,0,1.9-2,3.42,3.42,0,0,0-.9-3.3c-3.9-3.3-8.3,1.2-12.5-.4-1.6-.8-1.1-1.7-1.2-2.5.3.7.6.8.9.9,4.5,1.5,9.1-2.9,13.3.4l.5.5a4.53,4.53,0,0,1,1.2,4.3,4.44,4.44,0,0,1-3.5,3.6c-4.2.6-7.6-3.5-12.3,0l-1.1-1.2c1.4-1,3.7-2.1,5.7-1.6Zm-10.5-.2c1.5.5,5.4,4.7,5.4,4.7a3.8,3.8,0,0,0-3.1-.5,3.71,3.71,0,0,0-2.9,3.9v.7c.1,2,.2,5.8-2.3,6.8h-.1a23.4,23.4,0,0,0,.3-3.8V38.3a18.49,18.49,0,0,0-2-8.6c.4-.9,2.2-1.7,4.7-1Zm-4-3.8a2.87,2.87,0,0,1,.1,3.7,1.76,1.76,0,0,0-.9.8,16.75,16.75,0,0,0-4.7-5.2,2,2,0,0,0,1.5-.6h0a2.57,2.57,0,0,0,.3-2.4,4.05,4.05,0,0,0-.5-.9l4.2,4.6ZM315,20.1a2.08,2.08,0,0,1,3.2,1.1,2.5,2.5,0,0,1-.3,2.2,1.77,1.77,0,0,1-1.7.5c-.8-.3-.3-.2.1-.4,1.1-.4,1.5-2.5-.2-2.5h-.2c-.3,0-.7.2-.7.5,0,0-.1.3.2.1a.76.76,0,0,1,1.1-.1c.4.4.2,1.4-.9,1.5-1.4,0-1.7-2.1-.6-2.9Zm-27.7,0c1.1.8.8,2.9-.7,2.8-1.1-.1-1.3-1.1-.9-1.5a.86.86,0,0,1,1.1.1c.2.2.2-.1.2-.1,0-.3-.4-.4-.7-.5h-.2c-1.7,0-1.3,2.1-.2,2.5.4.1.9.1.2.4a1.57,1.57,0,0,1-1.7-.5,2.16,2.16,0,0,1-.3-2.2,2.05,2.05,0,0,1,3.2-1Zm-7.1,4.8,4.1-4.7a2.62,2.62,0,0,0-.5.9,2.57,2.57,0,0,0,.3,2.4h0a1.83,1.83,0,0,0,1.5.6,15.61,15.61,0,0,0-4.7,5.2,2.36,2.36,0,0,0-.9-.8c-1-1-.6-2.7.2-3.6Zm-4,3.8c2.5-.7,4.4.1,4.6,1a18.49,18.49,0,0,0-2,8.6v2.2a23.4,23.4,0,0,0,.3,3.8h0c-2.5-1.1-2.4-4.8-2.3-6.8v-.7a3.89,3.89,0,0,0-6-3.4c0-.1,3.8-4.2,5.4-4.7Zm-3.6-4.5a2.56,2.56,0,0,1-1,1.9c-1,.8-2.7,1-5.3.5a22.91,22.91,0,0,1-2.8-.7c-2.5-.7-4.5-1.2-6.5.7a2,2,0,0,1,.1-1.3c1.9-2.3,3.7-1.6,6.1-.8a22.88,22.88,0,0,0,2.8.8q3.75.75,5.1-.6a2.66,2.66,0,0,0,.9-2.2,1.92,1.92,0,0,1,.6,1.7Zm-6.9,4.1c-.1.5-.7.6-1.1.8-1.8.9-4,2.3-6.2,1.2-.6-.3-.5-.9-.7-1.4a1.61,1.61,0,0,1,1.2-1.3c2.4-.8,4.6.2,6.8.7Zm4.1,1.6a7.57,7.57,0,0,0-5,1,17.75,17.75,0,0,1-3.6,1.5h0a4.89,4.89,0,0,1-5.2-2.2,4.81,4.81,0,0,1-.2-5.7l.1-.1v-.1c2.6-3.1,5.5-2.2,8.1-1.4a23.35,23.35,0,0,0,2.5.7c2.6.5,3.4,0,3.6-.2a3,3,0,0,0,1.2-2.7,1.75,1.75,0,0,1,.5,1c.2,2.1-.6,4.1-5.6,3.2-3.7-.7-6.6-3.1-9.3.2-1.7,2.6,1,6.5,4,5.7,3.9-1.1,5.1-3,9.2-2.5a8.25,8.25,0,0,1,2.6,1l-1,1.1c-.7-.1-1.3-.4-1.9-.5Zm.3,4.4a3.62,3.62,0,0,1,3.7-1.1,3.47,3.47,0,0,1,2.7,3.6c0,1.7-.5,6.5,2.5,7.8-1.9.4-2.6-1-3.2-2.1-1.3-2.5,1-7.8-3.5-7.9a2.14,2.14,0,0,0-1.8,1.6,1.47,1.47,0,0,0,.5,1.4,1.57,1.57,0,0,0,1.5.3l.1-.2a1.91,1.91,0,0,1-1.4-.7.75.75,0,0,1,0-.9c.1-.4.5-.5.9-.6a1.78,1.78,0,0,1,1.6,1,1.93,1.93,0,0,1-.1,1.5,2.33,2.33,0,0,1-2,1,2.37,2.37,0,0,1-1.9-1.1,3.33,3.33,0,0,1,.4-3.6Zm-17.5,4.6a10.46,10.46,0,0,1,.2-4c4.1,2.3,11.1,3.9,14.8,3.4l.8-.1c0,.1.1.2.2.3h0a4.1,4.1,0,0,0,2.8,1.7h.2a3.78,3.78,0,0,0,2.3-.8,8,8,0,0,0,.4,2.7,18.41,18.41,0,0,0-3.3-.3v.1c1.1.1,2.3.3,3.4.5.1.2.1.3.2.5V43c.2.3.4.7.6,1-.1.1-.3.1-.4.2a39.87,39.87,0,0,0-8.3-1.4v.1a31.56,31.56,0,0,1,7.9,1.7,4.56,4.56,0,0,0-1.2,1.2,33.7,33.7,0,0,0-9.1-1.6v.1a40.45,40.45,0,0,1,8.9,2,5.78,5.78,0,0,0-.5,1.4,43.72,43.72,0,0,0-11.5-2v.1c4.7.2,9.4,1.9,11.5,2.5v1.2c-4.2-1.1-10.5-2.3-14.9-2.1,1.3-3.9,0-5.1-1-6.1l-2.5-.4c3,1.4,2.8,5.3,1.5,6.7h0a4.73,4.73,0,0,0-1.9.6l-.2.1v1.6a38.56,38.56,0,0,1-6.9.1c-3-.3-1.8-1.2-3.5-2s-1.2,1.4-3.1,1.5h-.1l-1.4-.3c-.8-.7-.4-2.3-.1-2.7-2.2-.1-1.7,2.6-2.1,1.8a1.65,1.65,0,0,1-.2-2.4c-2.3.6-1.5,2.6-2,2.2-1.4-.6-1-1.9-.5-2.6-.9,0-1.7,1.2-1.9,2.2-1.9-1.8.1-3.7,1.6-3.5a8.79,8.79,0,0,0,4.9-.4c5.2-1.5,7.8.5,9.6.5,2.4.1,2.2.1,2.4-.8.2-1.5.6-1.2.6-2.3l1,.6c-.1-1-.1-2.9-.1-3.5Zm-23.5,4.8c.1,0,.1.1,0,0h0a3.64,3.64,0,0,1,.1-4.8,10,10,0,0,0,1.6-1.9,5.4,5.4,0,0,1-1.4,6.1c-.4.3-.3.5-.3.6Zm-1.5-7.4c.6-.7,2.1-2.7,2.1-2.7v.2c.1.3,1.1,1.6-1,3.9a8.25,8.25,0,0,0-1.4,2.3c-.3.4-.5.5-.7-.5-.2-1.6.2-1.9,1-3.2Zm-2.5,1.6c-.9-1.1.5-3.7,1.4-4.8s1.6-1.4,2.3-2.9c.5,2.8-.9,3.9-1.4,4.7a11.4,11.4,0,0,1-2.3,3Zm6.9,2.5a1.81,1.81,0,0,1,.8,2.6,2.18,2.18,0,0,1-2.1-.1,6,6,0,0,0,1.3-2.5Zm4.9-1.9c-1.7,0-3.2.7-3.2-.5s1.5-2.2,3.2-2.2,3.3,1,3.3,2.2-1.6.5-3.3.5Zm4,2,.4,1.4a2.34,2.34,0,0,0-1.5,0,2,2,0,0,1-.1-1.3ZM238,42.4a6.09,6.09,0,0,1-1.4,0l.1-1.6h1Zm-3.7-1.5,1.5-.1c.2.4-.3,1.7-.3,1.7l-1.2.3a5.91,5.91,0,0,0,0-1.9Zm11.5-3.3c1,.6,2.3,1.4,3.1,2s.2,2,.2,2.1-.2.3-.4.1a9.06,9.06,0,0,0-2.4-1.5,4.45,4.45,0,0,1-2.4-4.4.1.1,0,0,0-.1.1s.3-.9.1-.2v.1c.4,0,1.1,1.2,1.9,1.7Zm-1.4-6.5c0,.2,2.7,1.8,4.5,3.8,1.5,1.6,1.2,2.1,1.1,3,0,0-.9-.5-2.3-1.1a7.56,7.56,0,0,1-3.4-3.9,16.24,16.24,0,0,1,.1-1.8ZM247,43c.4.2-.1.1-.5.3-1,.4-2.2-.5-2.9-.6-.8-.3-1.7-1.6-1.4-3.7.5-.5.8,1.9,4.8,4Zm2.6-9.6a19.34,19.34,0,0,0-3.1-2.7c-.7-.6-1.4-.8-1.4-3.7.2.6,1.3,1.4,3.4,3a5.79,5.79,0,0,1,2.8,5.1c-1.1-.1-1.1-.9-1.7-1.7Zm1.4-3.5c-1.1-.8-2.4-1.7-2.7-2-1.1-1.2-2.9-1.2-2.8-3.1a15.29,15.29,0,0,0,3,1.3c1.2.5,2,1.5,2.5,3.8Zm-4.5-8.1c3.1.8,3.3,2.1,3.1,3.4a34.8,34.8,0,0,0-3.7-1.5,4.44,4.44,0,0,0,.6-1.9Zm-6.5,6a.77.77,0,0,1,.7-.8.71.71,0,0,1,.7.8.77.77,0,0,1-.7.8.85.85,0,0,1-.7-.8Zm-7.4-5.5a1,1,0,0,1,.5-1.1,10,10,0,0,1,3.8-.5,12.42,12.42,0,0,1,3.8.5,1.06,1.06,0,0,1,.6,1.1c2.9-3.2,4.6-3.4,4.5-.6s-1.5,1.4-1.8.3c0,0,.1,5.4.1,6.3a2.77,2.77,0,0,1-2.9,3,3.23,3.23,0,0,1,2.2.9c.2.3.2.9-.2.9a14.08,14.08,0,0,0-2-.1,4.76,4.76,0,0,0,1.4.5,2.09,2.09,0,0,1,.6.4,1.72,1.72,0,0,1-.3,1,16.22,16.22,0,0,0-2.2-.6,3.88,3.88,0,0,1,1.6,1.3c.3.4.5,1-.2,1a4.54,4.54,0,0,1-.9-.5c-1.2-1-3.1-.8-3.8-1.1-.3-.2.2-1.2.7-1.2,1.7,0,1.8-1.6,1.8-2.3,0,0-.4-2.2,1.3-2.1s1.7-1.4,1.8-3.1a11,11,0,0,1-2.2.1c-1.9,0-2.2-1.1-2.2-2.2l-.3,8c.3.2-.5.4-1.3.4s-1.5-.2-1.3-.4c0,0-.3-7.1-.3-8,0,1.1-.3,2.2-2.2,2.2a11,11,0,0,1-2.2-.1c0,1.7.1,3.2,1.8,3.1s1.3,2.1,1.3,2.1c0,.7.1,2.3,1.8,2.3.6,0,1.1,1,.7,1.2-.6.4-2.6.2-3.8,1.1a1.59,1.59,0,0,1-.9.5c-.7,0-.5-.6-.2-1a3.88,3.88,0,0,1,1.6-1.3,21.78,21.78,0,0,0-2.2.6,1.72,1.72,0,0,1-.3-1,2.48,2.48,0,0,1,.6-.4,4.76,4.76,0,0,0,1.4-.5c-.3,0-1.4.1-2,.1-.4-.1-.4-.6-.2-.9a3.49,3.49,0,0,1,2.2-.9,2.81,2.81,0,0,1-2.9-3V22c-.3,1-1.8,2.4-1.9-.3,0-2.9,1.6-2.7,4.6.6Zm1.2,5.5a.77.77,0,0,1-.7.8.71.71,0,0,1-.7-.8.71.71,0,1,1,1.4,0Zm-7.7-3.3c.6-.4.8-1.7.8-1.1.3.5,1,1.4.9,1.8s-1.7,3.1-2.9,2.2a4.18,4.18,0,0,1,1.2-2.9Zm-2.4,8.8c-.1-2,2.4-4.7,4.8-6.4.6-.4-.1,2.3-1.6,3.7s-1.9,2.6-3.2,2.7ZM208.9,48.8c0-.5.5-.8,1.2-.9a17,17,0,0,0,3.6-1.1l.3-.2a2.73,2.73,0,0,1,1.5-.7c.9,0,5.2-.2,5.4-.2,1.6-.1,3.7-.8,4.4-2.2l.1.1v2.1a2.64,2.64,0,0,1,1.8-1.7,22.55,22.55,0,0,0,.4,2.8c.4-.9,1.1-1.6,1.8-1.6a23.52,23.52,0,0,0-.1,2.8,30.29,30.29,0,0,0-12.7.3,1,1,0,0,0-.4-.5c-.9.6-1.2,2.3-.8,2.7a3.78,3.78,0,0,1-.8.1c-1.5-.5-.6-1.8-.4-2.1-.7.1-1.3.6-1.4,1.8,0,.2,0,.4-.1.4h-.6c-1.5-.5-.7-1.8-.4-2.1-.7.1-1.3.6-1.4,1.8,0,.2-.1.4-.3.4h-.6a2,2,0,0,1-.5-2Zm9.5,7.4H198.2l5.8-2.3L196.9,51h21.5Zm7.5,1.1-7.1-1.1a28.37,28.37,0,0,1,7.1-.8Zm28.3.5a42.58,42.58,0,0,1-13.1-1.3c-12.4-3.1-17.7-2.8-22.3-1.7V48.7c4.6-1.1,9.9-1.4,22.3,1.7a34.22,34.22,0,0,0,12,.9v4.8l5.9.6a10.84,10.84,0,0,1-4.8,1.1Zm7.7-1.3-7.9-.8c1.7-.7,4.8-.7,8-.4Zm-8.4-2V48.6c3.4-1.8,12.8-.3,18.9,1.4a12.77,12.77,0,0,0,4.1,7c-5.1-1.9-18.9-4.7-23-2.5Zm20.1-4.7c-.6-4.6,3.6-5,5.7-4.8a18,18,0,0,0,3.7,7.6,4.12,4.12,0,0,0-2.5-.8,3.63,3.63,0,0,0-2.9,1.3,3,3,0,0,0-.5,2.1,10.43,10.43,0,0,1-3.5-5.4Zm10,4.2c-.9-.5-3.1-1.3-4.4-.2-1,.9-.6,2.5.7,2.4.3,0,.8-.2.8-.5,0,0,.1-.3-.2-.2a.9.9,0,0,1-1.2.1,1.1,1.1,0,0,1,.9-1.7c1.6-.1,1.9,2.1.7,3a2.29,2.29,0,0,1-3.5-1.2,2.84,2.84,0,0,1,3-3.7c2.7.2,3.4,2.2,3.2,2Zm17.5,5.9c-12.2,0-22-7.1-22-19.4V38.3c0-12.3,9.9-18,22-18s22,5.7,22,18v2.2c.1,12.3-9.8,19.4-22,19.4Zm23.7-4a2.35,2.35,0,0,1-3.5,1.2c-1.2-.9-.8-3.2.8-3,1.2.1,1.4,1.2.9,1.7a.9.9,0,0,1-1.2-.1c-.3-.2-.2.2-.2.2,0,.3.5.5.8.5,1.3.1,1.7-1.5.7-2.4-1.3-1.1-3.6-.2-4.4.2-.2.1.5-1.8,3.1-1.9a2.72,2.72,0,0,1,3,3.6Zm.4-.7a3.14,3.14,0,0,0-.5-2.1,3.24,3.24,0,0,0-2.9-1.3,4.45,4.45,0,0,0-2.6.8,18,18,0,0,0,3.7-7.6c2.1-.3,6.2.1,5.7,4.8a9.73,9.73,0,0,1-3.4,5.4Zm.6,1.8a13.1,13.1,0,0,0,4.1-7c5.1-1.4,15.6-2.7,20.8-2h-.1c.1.6.2,2.4.3,3.2l-1.8.5.6,2c-6.5-.5-19.7,1.7-23.9,3.3Zm18.7-1.6c3.2-.3,6.3-.3,8,.4l-7.9.8Zm3.4,1.3,4.6-.5,1.1.8c-1.3.7-4.9.2-5.7-.3Zm7.2-1.3c-.3.4-.7.5-1.3-.2a8.51,8.51,0,0,0-2.3-2.4c1.8-.4,3.4-1.3,5.8,1.2-.6.2-1.9.7-2.2,1.4Zm15-7.5a15.6,15.6,0,0,0,6.3-2.1,7.23,7.23,0,0,1,4.6.2l-.1-.1.2.1H381l.1.1c.3.2,1,.8,1.5,1.2-2.2-.1-11.8,1.1-14.3,1.5a4.69,4.69,0,0,1,1.8-.9Zm.8,4.7h0a14,14,0,0,0-1.6-1v-.7c0-.3,0-.3.3-.4a1.15,1.15,0,0,1,1,.1c.5.3.6,1.3.3,2Zm1.7,1.6V54a3.82,3.82,0,0,0-.9-.9l.1-.1a1.77,1.77,0,0,0,.7-2.3c-.5-.8-1.5-.9-2.6-.7l-2.3.4a6.07,6.07,0,0,1-1-.7c7.3-1.6,22-2.9,25.7-1.2V54c-3-1.4-11.9-.9-19.7.2Zm7.1,3.1V54.5c4.3-.3,8.4-.4,10.9.1-.6.8-2.2,1.8-10.9,2.7Zm26.7-1.1H390.8c1.4-.2,1.7-.5,1.9-1.1V51h15l-7.1,2.9,5.8,2.3Z"/></g></g></svg>